<svg version="1.1" xmlns="http://www.w3.org/2000/svg" viewBox="0 0 643.5766712645833 929.2253790253046" width="643.5766712645833" height="929.2253790253046">
  <!-- svg-source:excalidraw -->
  
  <defs>
    <style class="style-fonts">
      
    </style>
    
  </defs>
  <g stroke-linecap="round" transform="translate(48.382033937161964 309.1600444230198) rotate(60.32829000301168 28.89847769164419 25.23304685061953)"><path d="M0 0 C0 0, 0 0, 0 0 M0 0 C0 0, 0 0, 0 0 M-0.26 6.4 C1.57 4.29, 3.4 2.19, 4.99 0.36 M-0.26 6.4 C1.17 4.76, 2.59 3.12, 4.99 0.36 M0.13 12.04 C2.77 9.01, 5.41 5.98, 10.63 -0.03 M0.13 12.04 C3.56 8.09, 7 4.15, 10.63 -0.03 M-0.13 18.44 C6.1 11.27, 12.34 4.1, 15.62 0.33 M-0.13 18.44 C5.68 11.75, 11.5 5.07, 15.62 0.33 M0.27 24.08 C5.76 17.76, 11.26 11.43, 21.26 -0.07 M0.27 24.08 C4.87 18.79, 9.47 13.49, 21.26 -0.07 M0 30.48 C7.14 22.27, 14.28 14.06, 26.25 0.29 M0 30.48 C9.99 18.99, 19.97 7.51, 26.25 0.29 M-0.26 36.88 C9.85 25.25, 19.95 13.63, 31.89 -0.1 M-0.26 36.88 C11.55 23.29, 23.36 9.71, 31.89 -0.1 M0.14 42.52 C13.55 27.1, 26.95 11.67, 36.88 0.26 M0.14 42.52 C12.38 28.43, 24.63 14.34, 36.88 0.26 M-0.12 48.92 C8.78 38.68, 17.68 28.44, 42.52 -0.14 M-0.12 48.92 C16.91 29.32, 33.94 9.73, 42.52 -0.14 M3.55 50.79 C15.06 37.55, 26.57 24.3, 47.51 0.22 M3.55 50.79 C15.94 36.53, 28.34 22.28, 47.51 0.22 M8.54 51.15 C21.64 36.08, 34.74 21.01, 53.15 -0.17 M8.54 51.15 C18.38 39.83, 28.22 28.51, 53.15 -0.17 M14.18 50.75 C25.09 38.21, 35.99 25.66, 58.14 0.19 M14.18 50.75 C23.28 40.29, 32.37 29.83, 58.14 0.19 M19.17 51.11 C33.34 34.81, 47.51 18.51, 57.88 6.59 M19.17 51.11 C31.25 37.21, 43.33 23.31, 57.88 6.59 M24.81 50.72 C31.75 42.74, 38.68 34.76, 58.27 12.23 M24.81 50.72 C35.37 38.57, 45.93 26.43, 58.27 12.23 M29.8 51.08 C40.28 39.02, 50.77 26.96, 58.01 18.63 M29.8 51.08 C36.35 43.54, 42.9 36.01, 58.01 18.63 M35.44 50.68 C42.83 42.19, 50.21 33.69, 58.4 24.27 M35.44 50.68 C43.29 41.66, 51.13 32.64, 58.4 24.27 M40.43 51.04 C45.82 44.85, 51.2 38.65, 58.14 30.67 M40.43 51.04 C46.01 44.62, 51.6 38.19, 58.14 30.67 M45.42 51.4 C50.05 46.07, 54.69 40.74, 57.88 37.06 M45.42 51.4 C48.48 47.88, 51.54 44.36, 57.88 37.06 M51.06 51.01 C53.27 48.47, 55.47 45.93, 58.28 42.71 M51.06 51.01 C53.75 47.92, 56.44 44.82, 58.28 42.71 M56.05 51.37 C56.51 50.83, 56.98 50.3, 58.01 49.11 M56.05 51.37 C56.66 50.66, 57.28 49.95, 58.01 49.11 M-0.08 50.39 C-0.08 50.39, -0.08 50.39, -0.08 50.39 M-0.08 50.39 C-0.08 50.39, -0.08 50.39, -0.08 50.39 M6.32 50.66 C3.93 48.58, 1.55 46.51, 0.28 45.41 M6.32 50.66 C4.74 49.29, 3.16 47.91, 0.28 45.41 M11.96 50.26 C9.19 47.86, 6.42 45.45, -0.12 39.76 M11.96 50.26 C9.09 47.77, 6.22 45.27, -0.12 39.76 M18.36 50.52 C14.36 47.05, 10.36 43.57, 0.24 34.78 M18.36 50.52 C12.44 45.38, 6.53 40.24, 0.24 34.78 M24.75 50.78 C17.84 44.78, 10.93 38.77, -0.15 29.13 M24.75 50.78 C16.03 43.2, 7.31 35.62, -0.15 29.13 M30.4 50.39 C21.66 42.79, 12.92 35.2, 0.21 24.15 M30.4 50.39 C19.03 40.5, 7.65 30.62, 0.21 24.15 M36.8 50.65 C27.59 42.65, 18.38 34.64, -0.19 18.5 M36.8 50.65 C27.65 42.7, 18.5 34.75, -0.19 18.5 M42.44 50.26 C30.86 40.2, 19.29 30.14, 0.17 13.52 M42.44 50.26 C33.77 42.72, 25.1 35.19, 0.17 13.52 M48.84 50.52 C32.74 36.52, 16.64 22.53, -0.22 7.87 M48.84 50.52 C37.9 41.01, 26.97 31.51, -0.22 7.87 M55.23 50.78 C41.73 39.04, 28.23 27.3, 0.14 2.89 M55.23 50.78 C42.48 39.7, 29.73 28.61, 0.14 2.89 M57.86 47.76 C44.01 35.72, 30.15 23.68, 2.01 -0.79 M57.86 47.76 C44.04 35.75, 30.22 23.73, 2.01 -0.79 M58.22 42.77 C39.64 26.63, 21.07 10.48, 8.41 -0.53 M58.22 42.77 C48.16 34.03, 38.1 25.29, 8.41 -0.53 M57.82 37.13 C40.75 22.29, 23.69 7.45, 14.05 -0.92 M57.82 37.13 C46.09 26.93, 34.35 16.73, 14.05 -0.92 M58.18 32.14 C49.68 24.75, 41.17 17.35, 20.45 -0.66 M58.18 32.14 C47.26 22.65, 36.33 13.15, 20.45 -0.66 M57.79 26.5 C49.01 18.87, 40.23 11.23, 26.85 -0.4 M57.79 26.5 C48.24 18.2, 38.7 9.91, 26.85 -0.4 M58.15 21.51 C51.24 15.51, 44.33 9.5, 32.49 -0.79 M58.15 21.51 C48.05 12.73, 37.95 3.95, 32.49 -0.79 M57.75 15.87 C51.94 10.82, 46.14 5.77, 38.89 -0.53 M57.75 15.87 C50.8 9.82, 43.84 3.77, 38.89 -0.53 M58.11 10.88 C53.1 6.52, 48.08 2.16, 44.53 -0.93 M58.11 10.88 C54.85 8.05, 51.58 5.21, 44.53 -0.93 M57.72 5.24 C55.08 2.94, 52.44 0.65, 50.93 -0.66 M57.72 5.24 C55.51 3.32, 53.29 1.39, 50.93 -0.66 M58.08 0.25 C57.86 0.06, 57.64 -0.13, 57.33 -0.4 M58.08 0.25 C57.87 0.07, 57.65 -0.12, 57.33 -0.4" stroke="#b2f2bb" stroke-width="0.5" fill="none"></path><path d="M0 0 C22.79 0, 45.57 0, 57.8 0 M0 0 C20.18 0, 40.36 0, 57.8 0 M57.8 0 C57.8 19.06, 57.8 38.11, 57.8 50.47 M57.8 0 C57.8 12.21, 57.8 24.41, 57.8 50.47 M57.8 50.47 C40.67 50.47, 23.54 50.47, 0 50.47 M57.8 50.47 C35.91 50.47, 14.02 50.47, 0 50.47 M0 50.47 C0 38.38, 0 26.29, 0 0 M0 50.47 C0 30.91, 0 11.35, 0 0" stroke="#e03131" stroke-width="1" fill="none"></path></g><g stroke-linecap="round" transform="translate(84.66714973267574 351.881338452848) rotate(60.32829000301168 15.991351020295838 23.28243992968578)"><path d="M0 0 C0 0, 0 0, 0 0 M0 0 C0 0, 0 0, 0 0 M-0.26 6.4 C0.83 5.15, 1.91 3.9, 4.99 0.36 M-0.26 6.4 C0.98 4.97, 2.21 3.55, 4.99 0.36 M0.13 12.04 C3.61 8.04, 7.08 4.05, 10.63 -0.03 M0.13 12.04 C3.31 8.39, 6.48 4.73, 10.63 -0.03 M-0.13 18.44 C5.27 12.23, 10.67 6.01, 15.62 0.33 M-0.13 18.44 C4.59 13.01, 9.3 7.59, 15.62 0.33 M0.27 24.08 C6.96 16.38, 13.66 8.67, 21.26 -0.07 M0.27 24.08 C6.57 16.82, 12.88 9.57, 21.26 -0.07 M0 30.48 C9.95 19.04, 19.89 7.6, 26.25 0.29 M0 30.48 C9.5 19.55, 19 8.63, 26.25 0.29 M-0.26 36.88 C6.42 29.19, 13.11 21.51, 31.89 -0.1 M-0.26 36.88 C7.83 27.58, 15.91 18.28, 31.89 -0.1 M0.14 42.52 C9.27 32.01, 18.4 21.51, 32.94 4.78 M0.14 42.52 C9.18 32.12, 18.22 21.72, 32.94 4.78 M1.84 46.65 C13.33 33.44, 24.82 20.23, 32.68 11.18 M1.84 46.65 C8.28 39.25, 14.71 31.85, 32.68 11.18 M6.83 47.01 C12.03 41.03, 17.23 35.05, 32.42 17.58 M6.83 47.01 C15.02 37.6, 23.2 28.19, 32.42 17.58 M12.47 46.62 C19.32 38.74, 26.17 30.86, 32.81 23.22 M12.47 46.62 C18.62 39.55, 24.77 32.48, 32.81 23.22 M17.46 46.98 C20.69 43.27, 23.92 39.55, 32.55 29.62 M17.46 46.98 C21.99 41.77, 26.52 36.56, 32.55 29.62 M23.1 46.59 C25.79 43.5, 28.47 40.42, 32.95 35.26 M23.1 46.59 C25.45 43.89, 27.8 41.19, 32.95 35.26 M28.09 46.95 C29.79 45, 31.48 43.05, 32.68 41.66 M28.09 46.95 C29.24 45.63, 30.38 44.31, 32.68 41.66 M0.34 46.86 C0.34 46.86, 0.34 46.86, 0.34 46.86 M0.34 46.86 C0.34 46.86, 0.34 46.86, 0.34 46.86 M5.98 46.47 C4.62 45.28, 3.26 44.1, -0.05 41.22 M5.98 46.47 C4.02 44.76, 2.06 43.05, -0.05 41.22 M12.38 46.73 C7.68 42.64, 2.99 38.56, 0.31 36.23 M12.38 46.73 C8.18 43.08, 3.99 39.43, 0.31 36.23 M18.02 46.33 C11.87 40.98, 5.71 35.63, -0.09 30.59 M18.02 46.33 C12.34 41.4, 6.67 36.46, -0.09 30.59 M24.42 46.59 C18.24 41.22, 12.05 35.84, 0.27 25.6 M24.42 46.59 C16.78 39.95, 9.14 33.31, 0.27 25.6 M30.82 46.86 C19.51 37.03, 8.21 27.2, -0.12 19.96 M30.82 46.86 C20.71 38.07, 10.6 29.28, -0.12 19.96 M31.93 42.52 C23.46 35.16, 14.99 27.8, 0.24 14.97 M31.93 42.52 C21.81 33.72, 11.68 24.92, 0.24 14.97 M32.29 37.54 C20.78 27.53, 9.27 17.52, -0.16 9.33 M32.29 37.54 C22.47 28.99, 12.64 20.45, -0.16 9.33 M31.9 31.89 C21.23 22.62, 10.55 13.34, 0.2 4.34 M31.9 31.89 C24.1 25.12, 16.31 18.34, 0.2 4.34 M32.26 26.91 C24.05 19.77, 15.83 12.63, 0.56 -0.65 M32.26 26.91 C22.53 18.45, 12.79 9.98, 0.56 -0.65 M31.87 21.26 C26.21 16.34, 20.55 11.42, 6.96 -0.39 M31.87 21.26 C22.85 13.43, 13.84 5.6, 6.96 -0.39 M32.23 16.28 C27.76 12.39, 23.29 8.51, 12.6 -0.78 M32.23 16.28 C27.69 12.34, 23.16 8.39, 12.6 -0.78 M31.83 10.63 C28.62 7.85, 25.42 5.06, 19 -0.52 M31.83 10.63 C29.14 8.3, 26.46 5.96, 19 -0.52 M32.19 5.65 C29.86 3.62, 27.54 1.6, 24.64 -0.91 M32.19 5.65 C29.98 3.73, 27.77 1.8, 24.64 -0.91 M31.8 0 C31.52 -0.23, 31.25 -0.47, 31.04 -0.65 M31.8 0 C31.56 -0.2, 31.33 -0.4, 31.04 -0.65" stroke="#b2f2bb" stroke-width="0.5" fill="none"></path><path d="M0 0 C11.06 0, 22.13 0, 31.98 0 M0 0 C10.93 0, 21.86 0, 31.98 0 M31.98 0 C31.98 17.4, 31.98 34.81, 31.98 46.56 M31.98 0 C31.98 10.6, 31.98 21.2, 31.98 46.56 M31.98 46.56 C22.44 46.56, 12.89 46.56, 0 46.56 M31.98 46.56 C21.27 46.56, 10.55 46.56, 0 46.56 M0 46.56 C0 32.31, 0 18.05, 0 0 M0 46.56 C0 35.15, 0 23.74, 0 0" stroke="#e03131" stroke-width="1" fill="none"></path></g><g stroke-linecap="round" transform="translate(101.73353337673768 381.6199356060381) rotate(60.32829000301168 15.642452059964398 22.7623028744639)"><path d="M0 0 C0 0, 0 0, 0 0 M0 0 C0 0, 0 0, 0 0 M-0.26 6.4 C1.4 4.49, 3.06 2.58, 4.99 0.36 M-0.26 6.4 C1.4 4.48, 3.07 2.57, 4.99 0.36 M0.13 12.04 C2.74 9.04, 5.36 6.03, 10.63 -0.03 M0.13 12.04 C3.5 8.17, 6.87 4.29, 10.63 -0.03 M-0.13 18.44 C3.18 14.63, 6.49 10.83, 15.62 0.33 M-0.13 18.44 C5.63 11.82, 11.39 5.19, 15.62 0.33 M0.27 24.08 C7.83 15.38, 15.4 6.67, 21.26 -0.07 M0.27 24.08 C4.96 18.69, 9.65 13.29, 21.26 -0.07 M0 30.48 C8.92 20.23, 17.83 9.98, 26.25 0.29 M0 30.48 C10.11 18.86, 20.21 7.24, 26.25 0.29 M-0.26 36.88 C9.24 25.95, 18.74 15.02, 31.89 -0.1 M-0.26 36.88 C12.01 22.77, 24.27 8.66, 31.89 -0.1 M0.14 42.52 C6.82 34.83, 13.51 27.14, 31.63 6.29 M0.14 42.52 C6.66 35.02, 13.17 27.52, 31.63 6.29 M2.5 45.9 C12.26 34.68, 22.01 23.45, 31.37 12.69 M2.5 45.9 C9.41 37.95, 16.31 30.01, 31.37 12.69 M8.14 45.5 C15.54 37, 22.93 28.5, 31.76 18.34 M8.14 45.5 C14.34 38.37, 20.55 31.24, 31.76 18.34 M13.13 45.86 C20.44 37.45, 27.76 29.04, 31.5 24.73 M13.13 45.86 C20.28 37.64, 27.42 29.42, 31.5 24.73 M18.77 45.47 C21.43 42.41, 24.09 39.35, 31.9 30.38 M18.77 45.47 C22.46 41.23, 26.14 37, 31.9 30.38 M23.76 45.83 C26.22 43, 28.69 40.16, 31.63 36.77 M23.76 45.83 C25.9 43.37, 28.04 40.91, 31.63 36.77 M29.4 45.44 C29.84 44.94, 30.27 44.44, 31.37 43.17 M29.4 45.44 C30.17 44.56, 30.94 43.67, 31.37 43.17 M0.1 45.61 C0.1 45.61, 0.1 45.61, 0.1 45.61 M0.1 45.61 C0.1 45.61, 0.1 45.61, 0.1 45.61 M5.74 45.22 C3.47 43.24, 1.19 41.26, -0.29 39.97 M5.74 45.22 C4.46 44.1, 3.17 42.98, -0.29 39.97 M12.14 45.48 C8.68 42.47, 5.22 39.46, 0.07 34.98 M12.14 45.48 C9.24 42.96, 6.34 40.43, 0.07 34.98 M18.54 45.74 C13.51 41.37, 8.49 37, -0.33 29.34 M18.54 45.74 C11.41 39.54, 4.28 33.34, -0.33 29.34 M24.18 45.35 C15.67 37.95, 7.16 30.55, 0.03 24.35 M24.18 45.35 C15.72 37.99, 7.26 30.64, 0.03 24.35 M30.58 45.61 C19.59 36.05, 8.6 26.5, -0.36 18.71 M30.58 45.61 C24.21 40.07, 17.83 34.53, -0.36 18.71 M31.69 41.28 C22.62 33.39, 13.55 25.5, 0 13.72 M31.69 41.28 C24.07 34.65, 16.44 28.01, 0 13.72 M31.3 35.63 C22.41 27.9, 13.52 20.18, 0.36 8.73 M31.3 35.63 C24.54 29.76, 17.78 23.88, 0.36 8.73 M31.66 30.65 C23.49 23.54, 15.32 16.44, -0.04 3.09 M31.66 30.65 C22.33 22.54, 13 14.43, -0.04 3.09 M31.27 25 C19.98 15.2, 8.7 5.39, 1.83 -0.58 M31.27 25 C24.34 18.98, 17.42 12.96, 1.83 -0.58 M31.63 20.02 C23.12 12.62, 14.62 5.23, 8.23 -0.32 M31.63 20.02 C23.61 13.05, 15.59 6.07, 8.23 -0.32 M31.23 14.37 C25.33 9.24, 19.42 4.11, 13.87 -0.72 M31.23 14.37 C26.47 10.23, 21.71 6.09, 13.87 -0.72 M31.59 9.39 C27.9 6.18, 24.21 2.97, 20.27 -0.45 M31.59 9.39 C27.45 5.79, 23.31 2.19, 20.27 -0.45 M31.95 4.4 C30.2 2.88, 28.45 1.35, 26.67 -0.19 M31.95 4.4 C30.62 3.24, 29.28 2.08, 26.67 -0.19" stroke="#b2f2bb" stroke-width="0.5" fill="none"></path><path d="M0 0 C9.86 0, 19.71 0, 31.28 0 M0 0 C7.36 0, 14.72 0, 31.28 0 M31.28 0 C31.28 12.95, 31.28 25.89, 31.28 45.52 M31.28 0 C31.28 18, 31.28 36, 31.28 45.52 M31.28 45.52 C22.1 45.52, 12.92 45.52, 0 45.52 M31.28 45.52 C23.47 45.52, 15.66 45.52, 0 45.52 M0 45.52 C0 35.25, 0 24.97, 0 0 M0 45.52 C0 31.62, 0 17.71, 0 0" stroke="#e03131" stroke-width="1" fill="none"></path></g><g stroke-linecap="round" transform="translate(110.91688952162292 421.96935650890987) rotate(60.32829000301168 29.71762052602736 22.7623028744639)"><path d="M0 0 C0 0, 0 0, 0 0 M0 0 C0 0, 0 0, 0 0 M-0.26 6.4 C1.12 4.81, 2.49 3.23, 4.99 0.36 M-0.26 6.4 C1.83 3.99, 3.92 1.59, 4.99 0.36 M0.13 12.04 C4.22 7.34, 8.3 2.65, 10.63 -0.03 M0.13 12.04 C2.26 9.59, 4.39 7.15, 10.63 -0.03 M-0.13 18.44 C4.29 13.35, 8.71 8.27, 15.62 0.33 M-0.13 18.44 C4.8 12.77, 9.72 7.11, 15.62 0.33 M0.27 24.08 C5.97 17.52, 11.67 10.97, 21.26 -0.07 M0.27 24.08 C4.87 18.79, 9.47 13.49, 21.26 -0.07 M0 30.48 C10.21 18.74, 20.42 7, 26.25 0.29 M0 30.48 C9.07 20.05, 18.14 9.61, 26.25 0.29 M-0.26 36.88 C8.62 26.67, 17.49 16.46, 31.89 -0.1 M-0.26 36.88 C11.86 22.94, 23.97 9.01, 31.89 -0.1 M0.14 42.52 C7.97 33.51, 15.81 24.49, 36.88 0.26 M0.14 42.52 C10.67 30.41, 21.2 18.29, 36.88 0.26 M2.5 45.9 C12.12 34.84, 21.73 23.78, 42.52 -0.14 M2.5 45.9 C13.16 33.64, 23.82 21.38, 42.52 -0.14 M8.14 45.5 C23.02 28.39, 37.9 11.27, 47.51 0.22 M8.14 45.5 C22.02 29.55, 35.89 13.59, 47.51 0.22 M13.13 45.86 C27.15 29.74, 41.17 13.61, 53.15 -0.17 M13.13 45.86 C27.34 29.51, 41.56 13.16, 53.15 -0.17 M18.77 45.47 C26.88 36.14, 34.99 26.81, 58.14 0.19 M18.77 45.47 C30.04 32.51, 41.31 19.55, 58.14 0.19 M23.76 45.83 C32.44 35.84, 41.13 25.85, 59.84 4.32 M23.76 45.83 C34.13 33.9, 44.49 21.98, 59.84 4.32 M29.4 45.44 C36 37.85, 42.59 30.26, 59.58 10.72 M29.4 45.44 C37.18 36.49, 44.96 27.54, 59.58 10.72 M34.39 45.8 C41.73 37.35, 49.07 28.91, 59.32 17.12 M34.39 45.8 C43.95 34.8, 53.5 23.81, 59.32 17.12 M40.03 45.4 C44.66 40.07, 49.3 34.75, 59.72 22.76 M40.03 45.4 C47.19 37.17, 54.34 28.94, 59.72 22.76 M45.02 45.76 C49.97 40.07, 54.92 34.38, 59.45 29.16 M45.02 45.76 C49.93 40.11, 54.84 34.46, 59.45 29.16 M50.66 45.37 C53.18 42.47, 55.7 39.57, 59.85 34.8 M50.66 45.37 C53.66 41.92, 56.65 38.48, 59.85 34.8 M55.65 45.73 C57.09 44.07, 58.53 42.41, 59.59 41.2 M55.65 45.73 C56.96 44.22, 58.26 42.72, 59.59 41.2 M0.1 45.61 C0.1 45.61, 0.1 45.61, 0.1 45.61 M0.1 45.61 C0.1 45.61, 0.1 45.61, 0.1 45.61 M5.74 45.22 C3.38 43.16, 1.01 41.11, -0.29 39.97 M5.74 45.22 C3.88 43.6, 2.02 41.98, -0.29 39.97 M12.14 45.48 C8.71 42.49, 5.27 39.51, 0.07 34.98 M12.14 45.48 C9.17 42.89, 6.2 40.31, 0.07 34.98 M18.54 45.74 C11.04 39.22, 3.55 32.71, -0.33 29.34 M18.54 45.74 C12.96 40.89, 7.38 36.04, -0.33 29.34 M24.18 45.35 C14.91 37.29, 5.64 29.23, 0.03 24.35 M24.18 45.35 C17.36 39.42, 10.54 33.49, 0.03 24.35 M30.58 45.61 C24.16 40.02, 17.73 34.44, -0.36 18.71 M30.58 45.61 C21.34 37.57, 12.1 29.54, -0.36 18.71 M36.22 45.21 C23.08 33.79, 9.95 22.37, 0 13.72 M36.22 45.21 C24.17 34.74, 12.12 24.26, 0 13.72 M42.62 45.47 C25.87 30.91, 9.11 16.35, 0.36 8.73 M42.62 45.47 C25.87 30.91, 9.12 16.36, 0.36 8.73 M49.02 45.74 C32.78 31.62, 16.54 17.5, -0.04 3.09 M49.02 45.74 C31.71 30.69, 14.41 15.65, -0.04 3.09 M54.66 45.34 C34.29 27.63, 13.92 9.92, 1.83 -0.58 M54.66 45.34 C41.71 34.08, 28.75 22.82, 1.83 -0.58 M59.55 44.29 C39.13 26.54, 18.72 8.8, 8.23 -0.32 M59.55 44.29 C42.88 29.8, 26.21 15.31, 8.23 -0.32 M59.16 38.65 C43.5 25.04, 27.84 11.42, 13.87 -0.72 M59.16 38.65 C42.02 23.75, 24.87 8.85, 13.87 -0.72 M59.52 33.66 C44.99 21.03, 30.46 8.4, 20.27 -0.45 M59.52 33.66 C45.48 21.46, 31.44 9.26, 20.27 -0.45 M59.12 28.02 C49.52 19.67, 39.92 11.33, 26.67 -0.19 M59.12 28.02 C49.2 19.39, 39.28 10.77, 26.67 -0.19 M59.48 23.03 C52.59 17.04, 45.69 11.04, 32.31 -0.59 M59.48 23.03 C48.97 13.9, 38.47 4.76, 32.31 -0.59 M59.09 17.39 C54.95 13.79, 50.81 10.19, 38.71 -0.33 M59.09 17.39 C54.75 13.61, 50.4 9.84, 38.71 -0.33 M59.45 12.4 C54.12 7.77, 48.8 3.14, 44.35 -0.72 M59.45 12.4 C55.31 8.81, 51.18 5.21, 44.35 -0.72 M59.81 7.41 C57.24 5.18, 54.67 2.95, 50.75 -0.46 M59.81 7.41 C57.42 5.34, 55.04 3.27, 50.75 -0.46 M59.41 1.77 C58.58 1.04, 57.74 0.32, 57.15 -0.2 M59.41 1.77 C58.72 1.16, 58.02 0.56, 57.15 -0.2" stroke="#b2f2bb" stroke-width="0.5" fill="none"></path><path d="M0 0 C13.28 0, 26.55 0, 59.44 0 M0 0 C20.18 0, 40.36 0, 59.44 0 M59.44 0 C59.44 17.52, 59.44 35.04, 59.44 45.52 M59.44 0 C59.44 13.45, 59.44 26.91, 59.44 45.52 M59.44 45.52 C36.76 45.52, 14.08 45.52, 0 45.52 M59.44 45.52 C46.82 45.52, 34.2 45.52, 0 45.52 M0 45.52 C0 36.1, 0 26.68, 0 0 M0 45.52 C0 30.14, 0 14.75, 0 0" stroke="#e03131" stroke-width="1" fill="none"></path></g><g stroke-linecap="round" transform="translate(142.3018394085817 474.01256893795744) rotate(60.32829000301168 29.268672407671147 23.272700421568175)"><path d="M0 0 C0 0, 0 0, 0 0 M0 0 C0 0, 0 0, 0 0 M-0.26 6.4 C1.81 4.01, 3.89 1.62, 4.99 0.36 M-0.26 6.4 C1.28 4.63, 2.81 2.86, 4.99 0.36 M0.13 12.04 C3.87 7.74, 7.61 3.43, 10.63 -0.03 M0.13 12.04 C3.31 8.39, 6.48 4.74, 10.63 -0.03 M-0.13 18.44 C3.72 14.01, 7.57 9.58, 15.62 0.33 M-0.13 18.44 C5.1 12.42, 10.33 6.41, 15.62 0.33 M0.27 24.08 C5.89 17.61, 11.51 11.14, 21.26 -0.07 M0.27 24.08 C5.52 18.04, 10.77 11.99, 21.26 -0.07 M0 30.48 C8.56 20.64, 17.11 10.81, 26.25 0.29 M0 30.48 C6.09 23.48, 12.17 16.49, 26.25 0.29 M-0.26 36.88 C7.42 28.05, 15.1 19.22, 31.89 -0.1 M-0.26 36.88 C8.73 26.54, 17.71 16.21, 31.89 -0.1 M0.14 42.52 C10.26 30.88, 20.38 19.24, 36.88 0.26 M0.14 42.52 C9.18 32.12, 18.21 21.73, 36.88 0.26 M1.84 46.65 C17.35 28.82, 32.85 10.98, 42.52 -0.14 M1.84 46.65 C16.32 30, 30.8 13.35, 42.52 -0.14 M6.83 47.01 C19.28 32.69, 31.74 18.36, 47.51 0.22 M6.83 47.01 C16.08 36.38, 25.32 25.74, 47.51 0.22 M12.47 46.62 C21.97 35.7, 31.47 24.77, 53.15 -0.17 M12.47 46.62 C28.49 28.19, 44.51 9.76, 53.15 -0.17 M17.46 46.98 C29.96 32.6, 42.45 18.23, 58.14 0.19 M17.46 46.98 C30.75 31.7, 44.03 16.42, 58.14 0.19 M23.1 46.59 C32.51 35.76, 41.92 24.94, 59.19 5.08 M23.1 46.59 C35.95 31.81, 48.79 17.04, 59.19 5.08 M28.09 46.95 C38.71 34.72, 49.34 22.5, 58.93 11.47 M28.09 46.95 C37.13 36.54, 46.18 26.14, 58.93 11.47 M33.73 46.55 C42.81 36.11, 51.88 25.68, 59.32 17.12 M33.73 46.55 C42.77 36.16, 51.81 25.76, 59.32 17.12 M38.72 46.91 C46.05 38.48, 53.38 30.05, 59.06 23.51 M38.72 46.91 C46.35 38.13, 53.98 29.36, 59.06 23.51 M44.37 46.52 C49.39 40.73, 54.42 34.95, 59.45 29.16 M44.37 46.52 C49.58 40.52, 54.79 34.53, 59.45 29.16 M49.35 46.88 C52.05 43.77, 54.74 40.67, 59.19 35.56 M49.35 46.88 C51.5 44.4, 53.65 41.93, 59.19 35.56 M55 46.48 C55.95 45.39, 56.9 44.3, 58.93 41.95 M55 46.48 C55.94 45.39, 56.89 44.31, 58.93 41.95 M0.35 46.85 C0.35 46.85, 0.35 46.85, 0.35 46.85 M0.35 46.85 C0.35 46.85, 0.35 46.85, 0.35 46.85 M5.99 46.45 C4.48 45.14, 2.97 43.83, -0.04 41.21 M5.99 46.45 C3.61 44.39, 1.23 42.32, -0.04 41.21 M12.39 46.72 C8.13 43.02, 3.88 39.32, 0.32 36.22 M12.39 46.72 C7.96 42.86, 3.53 39.01, 0.32 36.22 M18.03 46.32 C11.54 40.68, 5.06 35.04, -0.08 30.58 M18.03 46.32 C12.38 41.4, 6.72 36.49, -0.08 30.58 M24.43 46.58 C16.26 39.48, 8.1 32.38, 0.28 25.59 M24.43 46.58 C18.23 41.19, 12.03 35.81, 0.28 25.59 M30.83 46.84 C21.88 39.07, 12.93 31.29, -0.11 19.95 M30.83 46.84 C20.07 37.49, 9.3 28.13, -0.11 19.95 M36.47 46.45 C26.94 38.17, 17.42 29.88, 0.25 14.96 M36.47 46.45 C26.42 37.72, 16.38 28.98, 0.25 14.96 M42.87 46.71 C25.91 31.97, 8.94 17.22, -0.15 9.32 M42.87 46.71 C34.16 39.14, 25.46 31.58, -0.15 9.32 M48.51 46.32 C37.46 36.71, 26.42 27.11, 0.21 4.33 M48.51 46.32 C30.77 30.89, 13.02 15.46, 0.21 4.33 M54.91 46.58 C35.83 29.99, 16.75 13.4, 0.57 -0.66 M54.91 46.58 C42.62 35.89, 30.33 25.21, 0.57 -0.66 M59.04 44.87 C42.71 30.67, 26.37 16.47, 6.97 -0.4 M59.04 44.87 C45.31 32.93, 31.58 21, 6.97 -0.4 M58.65 39.23 C46.5 28.67, 34.35 18.11, 12.61 -0.79 M58.65 39.23 C44.02 26.51, 29.38 13.79, 12.61 -0.79 M59.01 34.24 C48.1 24.76, 37.19 15.27, 19.01 -0.53 M59.01 34.24 C50.95 27.23, 42.88 20.22, 19.01 -0.53 M58.62 28.6 C46.28 17.88, 33.95 7.16, 24.65 -0.92 M58.62 28.6 C50.99 21.97, 43.37 15.34, 24.65 -0.92 M58.98 23.61 C52.34 17.85, 45.71 12.08, 31.05 -0.66 M58.98 23.61 C52.98 18.4, 46.98 13.18, 31.05 -0.66 M58.58 17.97 C52.11 12.34, 45.64 6.72, 37.45 -0.4 M58.58 17.97 C53.48 13.53, 48.38 9.1, 37.45 -0.4 M58.94 12.98 C55.52 10.01, 52.1 7.04, 43.09 -0.8 M58.94 12.98 C55.21 9.74, 51.47 6.49, 43.09 -0.8 M59.3 7.99 C56.58 5.63, 53.87 3.27, 49.49 -0.53 M59.3 7.99 C56.23 5.33, 53.16 2.66, 49.49 -0.53 M58.91 2.35 C57.43 1.06, 55.95 -0.22, 55.13 -0.93 M58.91 2.35 C57.42 1.06, 55.93 -0.24, 55.13 -0.93" stroke="#b2f2bb" stroke-width="0.5" fill="none"></path><path d="M0 0 C20.94 0, 41.89 0, 58.54 0 M0 0 C12.67 0, 25.33 0, 58.54 0 M58.54 0 C58.54 15.47, 58.54 30.94, 58.54 46.55 M58.54 0 C58.54 17.3, 58.54 34.59, 58.54 46.55 M58.54 46.55 C35.31 46.55, 12.08 46.55, 0 46.55 M58.54 46.55 C39.21 46.55, 19.87 46.55, 0 46.55 M0 46.55 C0 36.34, 0 26.14, 0 0 M0 46.55 C0 29.86, 0 13.18, 0 0" stroke="#e03131" stroke-width="1" fill="none"></path></g><g stroke-linecap="round" transform="translate(173.72422269461447 526.8625205773828) rotate(60.32829000301168 29.268672407671147 23.272700421568175)"><path d="M0 0 C0 0, 0 0, 0 0 M0 0 C0 0, 0 0, 0 0 M-0.26 6.4 C1.61 4.25, 3.47 2.1, 4.99 0.36 M-0.26 6.4 C1.55 4.32, 3.35 2.24, 4.99 0.36 M0.13 12.04 C3.21 8.5, 6.29 4.96, 10.63 -0.03 M0.13 12.04 C3.86 7.76, 7.58 3.48, 10.63 -0.03 M-0.13 18.44 C5.43 12.04, 10.99 5.64, 15.62 0.33 M-0.13 18.44 C5.55 11.91, 11.22 5.38, 15.62 0.33 M0.27 24.08 C8.14 15.02, 16.02 5.96, 21.26 -0.07 M0.27 24.08 C7.26 16.03, 14.26 7.99, 21.26 -0.07 M0 30.48 C9.07 20.06, 18.13 9.63, 26.25 0.29 M0 30.48 C7.19 22.21, 14.38 13.94, 26.25 0.29 M-0.26 36.88 C6.77 28.8, 13.79 20.72, 31.89 -0.1 M-0.26 36.88 C7.5 27.95, 15.27 19.02, 31.89 -0.1 M0.14 42.52 C8.96 32.37, 17.78 22.22, 36.88 0.26 M0.14 42.52 C10.45 30.66, 20.75 18.8, 36.88 0.26 M1.84 46.65 C16.81 29.43, 31.79 12.21, 42.52 -0.14 M1.84 46.65 C12.03 34.93, 22.22 23.21, 42.52 -0.14 M6.83 47.01 C22.87 28.57, 38.9 10.12, 47.51 0.22 M6.83 47.01 C21.17 30.52, 35.5 14.03, 47.51 0.22 M12.47 46.62 C27.4 29.45, 42.32 12.28, 53.15 -0.17 M12.47 46.62 C27.05 29.86, 41.62 13.09, 53.15 -0.17 M17.46 46.98 C30.17 32.36, 42.87 17.75, 58.14 0.19 M17.46 46.98 C31.22 31.16, 44.97 15.33, 58.14 0.19 M23.1 46.59 C32.37 35.93, 41.63 25.28, 59.19 5.08 M23.1 46.59 C33.54 34.58, 43.98 22.58, 59.19 5.08 M28.09 46.95 C38.82 34.61, 49.54 22.27, 58.93 11.47 M28.09 46.95 C36.2 37.62, 44.31 28.29, 58.93 11.47 M33.73 46.55 C40.83 38.39, 47.93 30.22, 59.32 17.12 M33.73 46.55 C43.82 34.94, 53.91 23.34, 59.32 17.12 M38.72 46.91 C42.84 42.18, 46.95 37.44, 59.06 23.51 M38.72 46.91 C43.37 41.56, 48.03 36.21, 59.06 23.51 M44.37 46.52 C49.91 40.14, 55.45 33.76, 59.45 29.16 M44.37 46.52 C49.66 40.42, 54.96 34.32, 59.45 29.16 M49.35 46.88 C51.58 44.32, 53.8 41.75, 59.19 35.56 M49.35 46.88 C52.44 43.32, 55.53 39.77, 59.19 35.56 M55 46.48 C56.03 45.29, 57.07 44.09, 58.93 41.95 M55 46.48 C56.03 45.29, 57.07 44.09, 58.93 41.95 M0.35 46.85 C0.35 46.85, 0.35 46.85, 0.35 46.85 M0.35 46.85 C0.35 46.85, 0.35 46.85, 0.35 46.85 M5.99 46.45 C4.78 45.4, 3.56 44.34, -0.04 41.21 M5.99 46.45 C3.8 44.55, 1.61 42.64, -0.04 41.21 M12.39 46.72 C9.68 44.36, 6.97 42, 0.32 36.22 M12.39 46.72 C9.52 44.22, 6.66 41.73, 0.32 36.22 M18.03 46.32 C14.14 42.94, 10.25 39.56, -0.08 30.58 M18.03 46.32 C12.49 41.5, 6.94 36.68, -0.08 30.58 M24.43 46.58 C18.6 41.51, 12.77 36.44, 0.28 25.59 M24.43 46.58 C19.22 42.05, 14.01 37.52, 0.28 25.59 M30.83 46.84 C23.54 40.51, 16.25 34.17, -0.11 19.95 M30.83 46.84 C22.26 39.4, 13.69 31.95, -0.11 19.95 M36.47 46.45 C25.14 36.6, 13.81 26.75, 0.25 14.96 M36.47 46.45 C22.26 34.09, 8.05 21.74, 0.25 14.96 M42.87 46.71 C25.9 31.96, 8.92 17.2, -0.15 9.32 M42.87 46.71 C30.59 36.03, 18.3 25.36, -0.15 9.32 M48.51 46.32 C32.54 32.43, 16.56 18.54, 0.21 4.33 M48.51 46.32 C37.49 36.73, 26.46 27.15, 0.21 4.33 M54.91 46.58 C37.48 31.42, 20.04 16.27, 0.57 -0.66 M54.91 46.58 C40.29 33.87, 25.66 21.15, 0.57 -0.66 M59.04 44.87 C46.74 34.18, 34.45 23.49, 6.97 -0.4 M59.04 44.87 C40.23 28.51, 21.41 12.16, 6.97 -0.4 M58.65 39.23 C47.52 29.55, 36.38 19.87, 12.61 -0.79 M58.65 39.23 C40.64 23.57, 22.64 7.92, 12.61 -0.79 M59.01 34.24 C46.28 23.17, 33.54 12.1, 19.01 -0.53 M59.01 34.24 C46.78 23.61, 34.55 12.98, 19.01 -0.53 M58.62 28.6 C48.98 20.23, 39.35 11.85, 24.65 -0.92 M58.62 28.6 C47.01 18.51, 35.41 8.43, 24.65 -0.92 M58.98 23.61 C50.18 15.97, 41.39 8.33, 31.05 -0.66 M58.98 23.61 C49.13 15.06, 39.29 6.5, 31.05 -0.66 M58.58 17.97 C50.75 11.16, 42.92 4.36, 37.45 -0.4 M58.58 17.97 C53.57 13.61, 48.55 9.25, 37.45 -0.4 M58.94 12.98 C54 8.68, 49.06 4.39, 43.09 -0.8 M58.94 12.98 C54.68 9.28, 50.42 5.58, 43.09 -0.8 M59.3 7.99 C56.11 5.22, 52.92 2.45, 49.49 -0.53 M59.3 7.99 C56.15 5.25, 53 2.52, 49.49 -0.53 M58.91 2.35 C57.99 1.55, 57.07 0.75, 55.13 -0.93 M58.91 2.35 C57.4 1.04, 55.9 -0.26, 55.13 -0.93" stroke="#b2f2bb" stroke-width="0.5" fill="none"></path><path d="M0 0 C14.4 0, 28.8 0, 58.54 0 M0 0 C22.31 0, 44.63 0, 58.54 0 M58.54 0 C58.54 16.57, 58.54 33.13, 58.54 46.55 M58.54 0 C58.54 14.25, 58.54 28.5, 58.54 46.55 M58.54 46.55 C45.23 46.55, 31.93 46.55, 0 46.55 M58.54 46.55 C44.87 46.55, 31.21 46.55, 0 46.55 M0 46.55 C0 28.21, 0 9.88, 0 0 M0 46.55 C0 32.25, 0 17.95, 0 0" stroke="#e03131" stroke-width="1" fill="none"></path></g><g stroke-linecap="round" transform="translate(207.95441271160632 520.4007079890034) rotate(60.32829000301168 43.43878998559404 11.679865665646162)"><path d="M0 0 C0 0, 0 0, 0 0 M0 0 C0 0, 0 0, 0 0 M-0.26 6.4 C1.36 4.53, 2.99 2.66, 4.99 0.36 M-0.26 6.4 C1.7 4.14, 3.66 1.89, 4.99 0.36 M0.13 12.04 C3.29 8.41, 6.45 4.77, 10.63 -0.03 M0.13 12.04 C4.2 7.36, 8.26 2.69, 10.63 -0.03 M-0.13 18.44 C3.38 14.41, 6.88 10.37, 15.62 0.33 M-0.13 18.44 C3.98 13.71, 8.09 8.99, 15.62 0.33 M0.27 24.08 C5.17 18.44, 10.08 12.79, 21.26 -0.07 M0.27 24.08 C6.98 16.36, 13.7 8.63, 21.26 -0.07 M5.91 23.69 C11.83 16.88, 17.75 10.07, 26.25 0.29 M5.91 23.69 C11.4 17.37, 16.9 11.05, 26.25 0.29 M10.9 24.05 C18.65 15.12, 26.41 6.2, 31.89 -0.1 M10.9 24.05 C15.62 18.62, 20.34 13.18, 31.89 -0.1 M16.54 23.65 C24.37 14.64, 32.2 5.64, 36.88 0.26 M16.54 23.65 C21.3 18.18, 26.06 12.7, 36.88 0.26 M21.53 24.01 C26.05 18.81, 30.58 13.6, 42.52 -0.14 M21.53 24.01 C28.06 16.5, 34.59 8.99, 42.52 -0.14 M27.17 23.62 C31.72 18.39, 36.27 13.15, 47.51 0.22 M27.17 23.62 C34.53 15.15, 41.9 6.67, 47.51 0.22 M32.16 23.98 C37.98 17.27, 43.81 10.57, 53.15 -0.17 M32.16 23.98 C36.64 18.82, 41.13 13.66, 53.15 -0.17 M37.8 23.58 C43.37 17.17, 48.95 10.76, 58.14 0.19 M37.8 23.58 C44.73 15.61, 51.65 7.65, 58.14 0.19 M42.79 23.94 C50.34 15.26, 57.89 6.57, 63.78 -0.21 M42.79 23.94 C48.97 16.83, 55.16 9.71, 63.78 -0.21 M48.43 23.55 C53.56 17.65, 58.69 11.74, 68.77 0.15 M48.43 23.55 C53.15 18.11, 57.88 12.68, 68.77 0.15 M53.42 23.91 C58.96 17.53, 64.51 11.15, 74.41 -0.24 M53.42 23.91 C60.61 15.63, 67.81 7.36, 74.41 -0.24 M59.06 23.51 C63.58 18.31, 68.11 13.11, 79.4 0.12 M59.06 23.51 C66.71 14.71, 74.37 5.91, 79.4 0.12 M64.05 23.87 C70.18 16.82, 76.31 9.77, 85.04 -0.28 M64.05 23.87 C69.77 17.29, 75.5 10.7, 85.04 -0.28 M69.69 23.48 C74.95 17.42, 80.22 11.37, 87.4 3.1 M69.69 23.48 C74.8 17.6, 79.92 11.72, 87.4 3.1 M74.68 23.84 C78.95 18.92, 83.23 14.01, 87.14 9.5 M74.68 23.84 C77.5 20.59, 80.32 17.35, 87.14 9.5 M80.32 23.45 C82.54 20.9, 84.75 18.35, 86.88 15.9 M80.32 23.45 C82.69 20.72, 85.06 17.99, 86.88 15.9 M85.31 23.81 C85.73 23.32, 86.15 22.83, 87.28 21.54 M85.31 23.81 C85.84 23.19, 86.38 22.57, 87.28 21.54 M-0.25 23.15 C-0.25 23.15, -0.25 23.15, -0.25 23.15 M-0.25 23.15 C-0.25 23.15, -0.25 23.15, -0.25 23.15 M6.15 23.41 C4.32 21.82, 2.49 20.23, 0.11 18.16 M6.15 23.41 C4.32 21.81, 2.48 20.22, 0.11 18.16 M12.55 23.67 C8.67 20.3, 4.79 16.93, -0.28 12.52 M12.55 23.67 C8.16 19.86, 3.78 16.04, -0.28 12.52 M18.19 23.27 C12.7 18.5, 7.21 13.73, 0.08 7.53 M18.19 23.27 C11.97 17.86, 5.74 12.45, 0.08 7.53 M24.59 23.54 C14.85 15.07, 5.12 6.61, -0.31 1.89 M24.59 23.54 C16.7 16.67, 8.8 9.81, -0.31 1.89 M30.23 23.14 C21.87 15.87, 13.5 8.59, 3.06 -0.48 M30.23 23.14 C23.73 17.49, 17.22 11.83, 3.06 -0.48 M36.63 23.4 C26.47 14.57, 16.3 5.73, 9.46 -0.22 M36.63 23.4 C26.09 14.24, 15.56 5.08, 9.46 -0.22 M43.03 23.66 C34.63 16.36, 26.23 9.06, 15.86 0.05 M43.03 23.66 C33.1 15.04, 23.18 6.41, 15.86 0.05 M48.67 23.27 C39.03 14.88, 29.38 6.5, 21.5 -0.35 M48.67 23.27 C42.43 17.84, 36.18 12.41, 21.5 -0.35 M55.07 23.53 C47 16.52, 38.94 9.51, 27.9 -0.09 M55.07 23.53 C46.31 15.92, 37.55 8.3, 27.9 -0.09 M60.71 23.14 C50.24 14.03, 39.76 4.92, 33.54 -0.48 M60.71 23.14 C49.99 13.81, 39.26 4.49, 33.54 -0.48 M67.11 23.4 C57.35 14.91, 47.58 6.42, 39.94 -0.22 M67.11 23.4 C60.64 17.77, 54.16 12.14, 39.94 -0.22 M73.51 23.66 C63.57 15.02, 53.63 6.38, 46.34 0.04 M73.51 23.66 C67.77 18.67, 62.04 13.69, 46.34 0.04 M79.15 23.26 C68.73 14.2, 58.31 5.14, 51.98 -0.35 M79.15 23.26 C71.9 16.96, 64.64 10.65, 51.98 -0.35 M85.55 23.53 C76.19 15.39, 66.83 7.26, 58.38 -0.09 M85.55 23.53 C77.85 16.83, 70.15 10.14, 58.38 -0.09 M86.66 19.2 C78.63 12.21, 70.59 5.23, 64.02 -0.49 M86.66 19.2 C80.11 13.5, 73.56 7.81, 64.02 -0.49 M87.02 14.21 C83.4 11.06, 79.77 7.9, 70.42 -0.22 M87.02 14.21 C80.49 8.53, 73.96 2.85, 70.42 -0.22 M86.63 8.57 C84.11 6.37, 81.59 4.18, 76.82 0.04 M86.63 8.57 C84.55 6.75, 82.46 4.94, 76.82 0.04 M86.99 3.58 C85.93 2.66, 84.88 1.74, 82.46 -0.36 M86.99 3.58 C85.18 2.01, 83.38 0.44, 82.46 -0.36" stroke="#b2f2bb" stroke-width="0.5" fill="none"></path><path d="M0 0 C28.32 0, 56.64 0, 86.88 0 M0 0 C20.28 0, 40.57 0, 86.88 0 M86.88 0 C86.88 7.21, 86.88 14.41, 86.88 23.36 M86.88 0 C86.88 7.33, 86.88 14.65, 86.88 23.36 M86.88 23.36 C68.78 23.36, 50.69 23.36, 0 23.36 M86.88 23.36 C57.65 23.36, 28.42 23.36, 0 23.36 M0 23.36 C0 18.01, 0 12.65, 0 0 M0 23.36 C0 17.5, 0 11.64, 0 0" stroke="#e03131" stroke-width="1" fill="none"></path></g><g stroke-linecap="round"><g transform="translate(22.581109140699482 109.56778886327834) rotate(0 299.20722649159217 404.82879508101314)"><path d="M0 0 C-4.9 16.16, -9.79 32.33, -12.58 41.53 M0 0 C-3.59 11.85, -7.18 23.69, -12.58 41.53 M-12.58 41.53 C-12.26 56.43, -11.94 71.32, -11.66 83.89 M-12.58 41.53 C-12.28 55.3, -11.99 69.06, -11.66 83.89 M-11.66 83.89 C-6.9 110.89, -2.14 137.9, 7.01 189.78 M-11.66 83.89 C-5.48 118.95, 0.7 154, 7.01 189.78 M7.01 189.78 C8.56 189.79, 10.11 189.8, 13.44 189.83 M7.01 189.78 C8.73 189.79, 10.46 189.81, 13.44 189.83 M13.44 189.83 C15.3 193.48, 17.16 197.12, 22.35 207.31 M13.44 189.83 C16.03 194.9, 18.61 199.98, 22.35 207.31 M22.35 207.31 C19.94 208.99, 17.53 210.68, 15.35 212.21 M22.35 207.31 C19.79 209.1, 17.24 210.89, 15.35 212.21 M15.35 212.21 C55.32 281.52, 95.29 350.84, 130.79 412.4 M15.35 212.21 C60.84 291.11, 106.34 370.01, 130.79 412.4 M130.79 412.4 C132.58 415.7, 134.38 419, 135.81 421.62 M130.79 412.4 C131.97 414.57, 133.15 416.73, 135.81 421.62 M135.81 421.62 C164.33 470.09, 192.84 518.56, 208.77 545.64 M135.81 421.62 C152.05 449.23, 168.29 476.83, 208.77 545.64 M208.77 545.64 C210.53 549.3, 212.3 552.97, 215.66 559.94 M208.77 545.64 C211.48 551.26, 214.19 556.88, 215.66 559.94 M215.66 559.94 C225.6 577.3, 235.55 594.66, 241.04 604.25 M215.66 559.94 C220.84 568.98, 226.02 578.02, 241.04 604.25 M241.04 604.25 C237.33 610.92, 233.62 617.6, 231.52 621.38 M241.04 604.25 C237.65 610.34, 234.27 616.44, 231.52 621.38 M231.52 621.38 C228.36 620.84, 225.2 620.29, 217.49 618.96 M231.52 621.38 C227.1 620.62, 222.68 619.85, 217.49 618.96 M217.49 618.96 C217.95 627.61, 218.41 636.25, 218.69 641.45 M217.49 618.96 C217.89 626.51, 218.29 634.06, 218.69 641.45 M218.69 641.45 C214.97 641.17, 211.25 640.89, 206 640.5 M218.69 641.45 C213.86 641.09, 209.03 640.72, 206 640.5 M206 640.5 C206.78 646.09, 207.55 651.67, 209.18 663.36 M206 640.5 C207.1 648.38, 208.19 656.27, 209.18 663.36 M209.18 663.36 C206.12 662.83, 203.06 662.29, 195.62 660.99 M209.18 663.36 C204.09 662.47, 199.01 661.58, 195.62 660.99 M195.62 660.99 C195.95 666.33, 196.28 671.67, 196.93 682.44 M195.62 660.99 C196.01 667.29, 196.39 673.59, 196.93 682.44 M196.93 682.44 C191.78 681.79, 186.63 681.14, 183.29 680.72 M196.93 682.44 C192.57 681.89, 188.21 681.34, 183.29 680.72 M183.29 680.72 C183.51 686.03, 183.73 691.34, 184.16 701.55 M183.29 680.72 C183.54 686.78, 183.8 692.84, 184.16 701.55 M184.16 701.55 C179.77 701.13, 175.39 700.71, 170.95 700.29 M184.16 701.55 C179.07 701.06, 173.97 700.58, 170.95 700.29 M170.95 700.29 C171.17 709.18, 171.39 718.08, 171.51 722.79 M170.95 700.29 C171.14 708.02, 171.34 715.76, 171.51 722.79 M171.51 722.79 C160.81 740.09, 150.11 757.39, 144.53 766.4 M171.51 722.79 C160.97 739.84, 150.42 756.89, 144.53 766.4 M144.53 766.4 C164.54 765.67, 184.55 764.94, 197.24 764.48 M144.53 766.4 C158.12 765.9, 171.72 765.41, 197.24 764.48 M197.24 764.48 C202.6 768.34, 207.97 772.19, 214.66 777.01 M197.24 764.48 C202.53 768.28, 207.82 772.09, 214.66 777.01 M214.66 777.01 C217.78 772.26, 220.91 767.5, 222.59 764.94 M214.66 777.01 C217.34 772.94, 220.01 768.87, 222.59 764.94 M222.59 764.94 C227.7 768.65, 232.82 772.36, 238.23 776.29 M222.59 764.94 C227.9 768.79, 233.21 772.64, 238.23 776.29 M238.23 776.29 C239.45 773.8, 240.66 771.3, 244.26 763.88 M238.23 776.29 C239.95 772.76, 241.66 769.23, 244.26 763.88 M244.26 763.88 C249.75 767.58, 255.24 771.29, 260.27 774.68 M244.26 763.88 C248.46 766.72, 252.66 769.55, 260.27 774.68 M260.27 774.68 C261.51 772.11, 262.75 769.54, 265.43 763.99 M260.27 774.68 C261.82 771.47, 263.37 768.26, 265.43 763.99 M265.43 763.99 C272.47 768.2, 279.5 772.42, 284.43 775.37 M265.43 763.99 C270.85 767.23, 276.27 770.48, 284.43 775.37 M284.43 775.37 C286.1 771.52, 287.77 767.68, 289.53 763.63 M284.43 775.37 C286.39 770.85, 288.36 766.34, 289.53 763.63 M289.53 763.63 C293.93 766.62, 298.32 769.6, 307.01 775.51 M289.53 763.63 C295.99 768.02, 302.44 772.4, 307.01 775.51 M307.01 775.51 C309.46 771.25, 311.92 766.98, 313.93 763.5 M307.01 775.51 C308.63 772.69, 310.26 769.87, 313.93 763.5 M313.93 763.5 C320.58 763.37, 327.23 763.25, 332.73 763.14 M313.93 763.5 C320.01 763.38, 326.1 763.27, 332.73 763.14 M332.73 763.14 C343.26 781.37, 353.79 799.6, 359.6 809.66 M332.73 763.14 C342.06 779.29, 351.39 795.44, 359.6 809.66 M359.6 809.66 C365.97 798.28, 372.35 786.9, 383.02 767.87 M359.6 809.66 C366.78 796.84, 373.97 784.02, 383.02 767.87 M383.02 767.87 C402.29 768.2, 421.56 768.53, 433.26 768.73 M383.02 767.87 C398.93 768.15, 414.83 768.42, 433.26 768.73 M433.26 768.73 C425.39 755.04, 417.51 741.34, 409.29 727.04 M433.26 768.73 C425.48 755.19, 417.69 741.64, 409.29 727.04 M409.29 727.04 C452.59 654.95, 495.88 582.87, 580.99 441.2 M409.29 727.04 C466.99 630.98, 524.69 534.91, 580.99 441.2 M580.99 441.2 C570.04 434.59, 559.1 427.99, 540.47 416.75 M580.99 441.2 C567.5 433.06, 554.02 424.93, 540.47 416.75 M540.47 416.75 C533.89 417.61, 527.31 418.46, 523.88 418.91 M540.47 416.75 C535.54 417.39, 530.61 418.04, 523.88 418.91 M523.88 418.91 C522.93 423.16, 521.98 427.41, 521.32 430.34 M523.88 418.91 C523.02 422.73, 522.17 426.54, 521.32 430.34 M521.32 430.34 C477.07 430.75, 432.83 431.16, 408.29 431.39 M521.32 430.34 C488.53 430.65, 455.74 430.95, 408.29 431.39 M408.29 431.39 C424.99 402.04, 441.7 372.7, 458.29 343.56 M408.29 431.39 C422.27 406.83, 436.25 382.27, 458.29 343.56 M458.29 343.56 C454 343.48, 449.7 343.4, 443.43 343.28 M458.29 343.56 C453.79 343.47, 449.28 343.39, 443.43 343.28 M443.43 343.28 C443.04 331.75, 442.65 320.22, 442.42 313.34 M443.43 343.28 C443.06 332.18, 442.68 321.09, 442.42 313.34 M442.42 313.34 C481.55 313.27, 520.67 313.21, 565.58 313.13 M442.42 313.34 C482.22 313.27, 522.02 313.2, 565.58 313.13 M565.58 313.13 C582.77 288.65, 599.96 264.16, 611 248.44 M565.58 313.13 C581.71 290.16, 597.84 267.18, 611 248.44 M611 248.44 C453.7 247.98, 296.41 247.51, 199.37 247.23 M611 248.44 C514.03 248.15, 417.07 247.87, 199.37 247.23 M199.37 247.23 C210.07 267.28, 220.77 287.33, 235.61 315.15 M199.37 247.23 C207.72 262.88, 216.07 278.53, 235.61 315.15 M235.61 315.15 C221.05 323.17, 206.48 331.19, 195.58 337.19 M235.61 315.15 C222.64 322.29, 209.66 329.43, 195.58 337.19 M195.58 337.19 C128.61 221.72, 61.63 106.26, 0 0 M195.58 337.19 C128.73 221.93, 61.88 106.68, 0 0" stroke="#f08c00" stroke-width="4" fill="none"></path></g></g><mask></mask><g stroke-linecap="round"><g transform="translate(247.64087818298253 10.75806135556445) rotate(0 -37.669672453376506 156.92779500725533)"><path d="M0 0 C-10.52 -0.25, -21.04 -0.5, -31.71 -0.76 M0 0 C-11.57 -0.28, -23.15 -0.55, -31.71 -0.76 M-31.71 -0.76 C-38.62 0.9, -45.53 2.56, -56.61 5.22 M-31.71 -0.76 C-38.14 0.79, -44.57 2.33, -56.61 5.22 M-56.61 5.22 C-104.45 33.26, -152.29 61.3, -188 82.23 M-56.61 5.22 C-104.28 33.16, -151.95 61.1, -188 82.23 M-188 82.23 C-159.91 130.88, -131.82 179.52, -53.82 314.61 M-188 82.23 C-155.55 138.43, -123.1 194.63, -53.82 314.61 M-53.82 314.61 C-11.49 290.64, 30.84 266.66, 81.77 237.82 M-53.82 314.61 C-26.19 298.96, 1.44 283.32, 81.77 237.82 M81.77 237.82 C93.35 220.84, 104.92 203.87, 112.66 192.52 M81.77 237.82 C88.89 227.37, 96.02 216.92, 112.66 192.52 M112.66 192.52 C76.17 130.15, 39.67 67.79, 0 0 M112.66 192.52 C89.44 152.84, 66.22 113.17, 0 0" stroke="#f08c00" stroke-width="4" fill="none"></path></g></g><mask></mask><g stroke-linecap="round"><g transform="translate(87.99176303313754 278.24253100014926) rotate(0 106.61426095893205 216.38528443946188)" fill-rule="evenodd"><path d="M-11.35 3.39 C-11.35 3.39, -11.35 3.39, -11.35 3.39 M-11.35 3.39 C-11.35 3.39, -11.35 3.39, -11.35 3.39 M-8.99 6.76 C-7.95 4.5, -5.37 3.25, -4.39 1.48 M-8.99 6.76 C-7.14 5.29, -5.81 3.02, -4.39 1.48 M-6.62 10.14 C-3.14 5.5, -1.56 4.34, 1.25 1.09 M-6.62 10.14 C-4.01 6.76, -1.73 3.87, 1.25 1.09 M-4.92 14.28 C-1.49 11.43, -0.58 7.89, 2.96 5.22 M-4.92 14.28 C-2.81 11.24, 0.24 7.8, 2.96 5.22 M-2.55 17.66 C0.79 13.65, 3.61 10.32, 5.32 8.6 M-2.55 17.66 C1.16 14.37, 3.37 10.49, 5.32 8.6 M-0.85 21.79 C2.89 18.02, 6.76 15.19, 7.68 11.98 M-0.85 21.79 C1.33 19.19, 5.24 15.34, 7.68 11.98 M1.52 25.17 C3.13 22.71, 7.62 20.61, 9.39 16.11 M1.52 25.17 C4.1 22.2, 6.29 19.68, 9.39 16.11 M3.88 28.55 C6.33 26.19, 10.87 22.75, 11.75 19.49 M3.88 28.55 C6.78 26.33, 9.17 22.46, 11.75 19.49 M5.59 32.68 C8.93 30.27, 9.2 29.21, 14.11 22.87 M5.59 32.68 C7.57 30.57, 9.99 27.74, 14.11 22.87 M7.95 36.06 C11.75 33.18, 13.81 28.66, 15.82 27 M7.95 36.06 C10.04 33.2, 12.85 30.23, 15.82 27 M10.31 39.44 C12.72 37.94, 15.08 35.07, 18.18 30.38 M10.31 39.44 C13.13 36.77, 14.42 33.68, 18.18 30.38 M12.02 43.57 C13.53 42.23, 15.05 37.99, 20.55 33.76 M12.02 43.57 C14.87 40.44, 17.88 36.79, 20.55 33.76 M14.38 46.95 C15.47 44.45, 17.93 42.52, 22.25 37.9 M14.38 46.95 C16.86 44.84, 18.12 42.92, 22.25 37.9 M16.09 51.09 C16.99 47.96, 20.86 47.19, 24.62 41.27 M16.09 51.09 C18.98 47.54, 22.34 43.71, 24.62 41.27 M18.45 54.46 C20.59 49.91, 24.49 48.47, 26.98 44.65 M18.45 54.46 C21.09 51.15, 24.2 48.5, 26.98 44.65 M20.81 57.84 C22.27 55.97, 25.29 54.66, 28.69 48.79 M20.81 57.84 C22.25 56.08, 24.6 53.24, 28.69 48.79 M22.52 61.98 C25.29 57.48, 28.13 54.53, 31.05 52.17 M22.52 61.98 C24.93 59.36, 27.37 57.64, 31.05 52.17 M24.88 65.36 C28.49 63.46, 28.88 58.92, 33.41 55.54 M24.88 65.36 C26.91 62.66, 28.55 61.12, 33.41 55.54 M27.25 68.73 C30.68 65.46, 32.79 63.71, 35.12 59.68 M27.25 68.73 C29.2 66.91, 30.8 65.26, 35.12 59.68 M28.95 72.87 C30.55 69.36, 34.01 66.64, 37.48 63.06 M28.95 72.87 C30.72 70.42, 32.22 69.35, 37.48 63.06 M31.32 76.25 C34.15 74.73, 35.1 72.44, 39.84 66.44 M31.32 76.25 C33.47 73.12, 36.48 70.77, 39.84 66.44 M33.02 80.38 C34.15 76.71, 38.19 75.92, 41.55 70.57 M33.02 80.38 C36.57 76.4, 39.15 74.09, 41.55 70.57 M35.38 83.76 C38.71 82.06, 39.88 77.79, 43.91 73.95 M35.38 83.76 C38.21 79.78, 41.52 76.96, 43.91 73.95 M37.75 87.14 C39.95 84.86, 42.92 82.49, 46.28 77.33 M37.75 87.14 C40.65 83.8, 43.2 81.43, 46.28 77.33 M39.45 91.27 C43.36 87.04, 45.44 85.3, 47.98 81.46 M39.45 91.27 C42.85 88.37, 44.77 84.84, 47.98 81.46 M41.82 94.65 C45.15 90.94, 48.58 87.8, 50.35 84.84 M41.82 94.65 C45.49 91.36, 48.48 86.96, 50.35 84.84 M44.18 98.03 C46.9 95.23, 49.03 94.26, 52.71 88.22 M44.18 98.03 C46.23 95.27, 49.24 93.11, 52.71 88.22 M45.89 102.16 C47.32 100.58, 48.85 96.49, 54.42 92.35 M45.89 102.16 C48.58 99.56, 49.92 98.06, 54.42 92.35 M48.25 105.54 C52.31 101.46, 55.7 96.8, 56.78 95.73 M48.25 105.54 C50.7 101.62, 53.73 98.47, 56.78 95.73 M49.96 109.68 C52.02 105.23, 54.78 104.29, 59.14 99.11 M49.96 109.68 C52.01 107.59, 53.71 105.58, 59.14 99.11 M52.32 113.06 C55.36 110.64, 58.38 106.28, 60.85 103.24 M52.32 113.06 C54.49 110.44, 56.19 108.71, 60.85 103.24 M54.68 116.43 C56.88 113.82, 58.19 112.86, 63.21 106.62 M54.68 116.43 C56.7 114.11, 59.37 111.08, 63.21 106.62 M56.39 120.57 C59.4 118.03, 63.17 114.72, 65.57 110 M56.39 120.57 C57.73 117.82, 60.55 115.78, 65.57 110 M58.75 123.95 C60.18 120.65, 62.99 118.57, 67.94 113.38 M58.75 123.95 C62.25 119.61, 64.83 116.78, 67.94 113.38 M60.46 128.08 C63.16 125.03, 63.87 123.12, 69.64 117.52 M60.46 128.08 C63.84 124.21, 66.72 120.99, 69.64 117.52 M62.82 131.46 C65.1 130.12, 66.86 125.76, 72.01 120.89 M62.82 131.46 C66.14 128.56, 67.97 125.73, 72.01 120.89 M65.18 134.84 C66.68 131.76, 69.45 130.54, 74.37 124.27 M65.18 134.84 C67.41 132.71, 69.46 130.53, 74.37 124.27 M66.89 138.97 C69.49 137.39, 72.5 132.85, 76.07 128.41 M66.89 138.97 C69.94 135.27, 72.61 132.59, 76.07 128.41 M69.25 142.35 C70.73 138.27, 72.86 136.31, 78.44 131.79 M69.25 142.35 C71.39 139.46, 75.08 136.8, 78.44 131.79 M71.62 145.73 C73.85 141.43, 78.4 137.84, 80.8 135.16 M71.62 145.73 C74.39 142.48, 77.49 139.52, 80.8 135.16 M73.32 149.86 C74.62 149.03, 77.97 146.01, 82.51 139.3 M73.32 149.86 C77.28 145.58, 80.27 141.86, 82.51 139.3 M75.69 153.24 C79.26 149.71, 81.55 146.68, 84.87 142.68 M75.69 153.24 C78.71 150.58, 81.81 146.96, 84.87 142.68 M77.39 157.38 C80.42 154.73, 83.69 149.85, 88.54 144.55 M77.39 157.38 C81.44 153.81, 84.68 149.33, 88.54 144.55 M79.75 160.76 C86.13 152.25, 92.41 147.54, 98.78 138.87 M79.75 160.76 C84.4 154.78, 88.59 149.76, 98.78 138.87 M82.12 164.13 C87.74 156.26, 94.48 146.41, 107.05 135.46 M82.12 164.13 C91.53 153.5, 102.86 141.46, 107.05 135.46 M83.82 168.27 C87.94 163.97, 92.22 158.3, 93.67 156.95 M83.82 168.27 C86.56 165.87, 88.73 162.6, 93.67 156.95 M93.67 156.95 C100.75 150.44, 104.42 144.41, 109.41 138.83 M93.67 156.95 C97.51 152.89, 100.58 149.85, 109.41 138.83 M86.19 171.65 C88.65 168.3, 89.98 166.9, 95.37 161.08 M86.19 171.65 C89.56 168.39, 92.07 165.03, 95.37 161.08 M96.03 160.33 C100.04 155.78, 105.24 149.76, 111.77 142.21 M96.03 160.33 C100.71 153.68, 105.3 148.88, 111.77 142.21 M88.55 175.03 C91.31 169.4, 96.08 166.01, 97.73 164.46 M88.55 175.03 C89.85 173.41, 91.86 170.53, 97.73 164.46 M97.73 164.46 C101.13 159.92, 106.01 156.57, 113.48 146.35 M97.73 164.46 C102.66 158.14, 107.97 151.05, 113.48 146.35 M90.26 179.16 C91.2 177.26, 93.71 175.64, 99.44 168.59 M90.26 179.16 C93.86 176.11, 96.85 171.52, 99.44 168.59 M100.1 167.84 C104.54 161.81, 107.93 158.51, 115.84 149.73 M100.1 167.84 C105.71 161.26, 112.73 153.4, 115.84 149.73 M92.62 182.54 C95.85 179.35, 97.76 174.82, 101.8 171.97 M92.62 182.54 C95.83 178.37, 99.31 173.84, 101.8 171.97 M102.46 171.22 C108.52 164.52, 113.77 158, 118.21 153.1 M102.46 171.22 C107.65 165.07, 114.94 156.64, 118.21 153.1 M94.33 186.67 C95.55 182.85, 99.27 181.8, 103.51 176.11 M94.33 186.67 C98.01 183.21, 101.47 179.11, 103.51 176.11 M104.82 174.6 C110.62 168.15, 114.77 165.61, 119.91 157.24 M104.82 174.6 C108.92 170.48, 111.82 167.34, 119.91 157.24 M96.69 190.05 C99.17 186.65, 102.56 182.49, 105.22 180.24 M96.69 190.05 C98.89 187.47, 101.27 184.97, 105.22 180.24 M107.19 177.98 C110.72 174.07, 115.33 169.77, 122.28 160.62 M107.19 177.98 C113.35 171.37, 118.67 164.87, 122.28 160.62 M99.05 193.43 C100.67 191.34, 103.33 189.85, 107.58 183.62 M99.05 193.43 C101.48 190.59, 103.71 188.46, 107.58 183.62 M108.89 182.11 C113.38 176.59, 116.44 171.79, 124.64 164 M108.89 182.11 C114.31 176.73, 118.06 170.42, 124.64 164 M100.76 197.56 C102.92 194.57, 104.96 192.54, 109.29 187.75 M100.76 197.56 C102.36 194.98, 105.49 192.33, 109.29 187.75 M111.26 185.49 C116.8 180.18, 120.46 175.91, 127 167.38 M111.26 185.49 C113.72 182.04, 117.69 177.32, 127 167.38 M103.12 200.94 C105.94 199.75, 108.04 195.83, 111.65 191.13 M103.12 200.94 C106.44 197.14, 108.51 194.65, 111.65 191.13 M113.62 188.87 C119.29 182.26, 122.58 178.35, 128.71 171.51 M113.62 188.87 C119.03 182.76, 124.79 176.95, 128.71 171.51 M105.48 204.32 C109.68 199.5, 113.59 196.38, 115.98 192.25 M105.48 204.32 C109.61 200.14, 111.86 196.68, 115.98 192.25 M120.57 186.96 C125.73 184.26, 127.76 177.74, 131.07 174.89 M120.57 186.96 C122.78 183.81, 126.29 180.8, 131.07 174.89 M107.19 208.46 C114.53 201.3, 119.63 195.62, 122.28 191.1 M107.19 208.46 C110.97 203.45, 115.65 198.91, 122.28 191.1 M132.78 179.02 C133 178.8, 133.35 178.44, 133.43 178.27 M132.78 179.02 C132.96 178.78, 133.13 178.63, 133.43 178.27 M109.55 211.83 C115.38 205.72, 120.17 197.34, 124.64 194.48 M109.55 211.83 C113.4 208.51, 115.55 204.88, 124.64 194.48 M111.26 215.97 C115.41 207.99, 124.89 201.61, 127.66 197.1 M111.26 215.97 C116.51 209.8, 124.03 202, 127.66 197.1 M113.62 219.35 C116.59 217.16, 119.44 214.12, 121.5 210.29 M113.62 219.35 C115.8 216.68, 118.02 214.15, 121.5 210.29 M127.4 203.5 C128.52 202.32, 129.2 201.01, 130.02 200.48 M127.4 203.5 C127.82 202.94, 128.56 202.1, 130.02 200.48 M115.99 222.73 C118.29 220.21, 120.09 216.44, 123.86 213.67 M115.99 222.73 C118.02 220.46, 120.27 217.78, 123.86 213.67 M117.69 226.86 C120.59 222.38, 122.98 220.01, 125.56 217.8 M117.69 226.86 C120.51 223.93, 122.77 220.84, 125.56 217.8 M120.06 230.24 C121.87 228.02, 122.77 226.72, 127.93 221.18 M120.06 230.24 C122.26 228.63, 124.1 225.69, 127.93 221.18 M122.42 233.62 C126.29 231.47, 128.37 227.44, 130.29 224.56 M122.42 233.62 C125.36 230.4, 128.74 226.96, 130.29 224.56 M124.12 237.75 C124.85 235.26, 126.43 233.22, 132 228.69 M124.12 237.75 C126.29 234.99, 128.49 232.81, 132 228.69 M126.49 241.13 C128.94 238.49, 130.32 236.48, 134.36 232.07 M126.49 241.13 C129.66 237.27, 132.45 234.14, 134.36 232.07 M128.19 245.26 C130.4 241.29, 134.14 237.42, 136.72 235.45 M128.19 245.26 C129.41 243.74, 131.87 240.84, 136.72 235.45 M130.56 248.64 C133.8 244.23, 137.65 241.27, 138.43 239.59 M130.56 248.64 C133.28 245.2, 135.44 242.64, 138.43 239.59 M132.92 252.02 C133.81 250.6, 135.83 247.33, 140.79 242.97 M132.92 252.02 C134.69 249.71, 136.56 247.73, 140.79 242.97 M134.63 256.16 C137.49 252.83, 139.83 251.3, 143.16 246.34 M134.63 256.16 C137.33 252.7, 140.03 249.8, 143.16 246.34 M136.99 259.53 C138.34 257.82, 141.92 254.29, 144.86 250.48 M136.99 259.53 C139.64 256.14, 143.39 252.08, 144.86 250.48 M139.35 262.91 C141.14 260.75, 143.82 258.88, 147.22 253.86 M139.35 262.91 C141.79 259.21, 145.47 255.75, 147.22 253.86 M141.06 267.05 C142.29 264.05, 146.63 261.57, 149.59 257.24 M141.06 267.05 C143.63 262.93, 146.71 259.33, 149.59 257.24 M143.42 270.43 C145.83 267.25, 146.64 265.06, 151.29 261.37 M143.42 270.43 C145.37 267.8, 148.34 264.79, 151.29 261.37 M145.13 274.56 C146.91 272.68, 149.98 268.06, 153.66 264.75 M145.13 274.56 C146.76 272.67, 149.88 270.06, 153.66 264.75 M147.49 277.94 C150.56 276.88, 149.81 273.75, 156.02 268.13 M147.49 277.94 C149.52 274.68, 151.37 273.03, 156.02 268.13 M149.85 281.32 C152.5 280.52, 153.56 277.31, 157.73 272.26 M149.85 281.32 C152.2 278.21, 155.55 274.76, 157.73 272.26 M151.56 285.45 C156.02 282.14, 158.1 278.53, 160.09 275.64 M151.56 285.45 C154.71 281.69, 156.56 279.45, 160.09 275.64 M153.92 288.83 C155.42 286.14, 157.38 285.91, 162.45 279.02 M153.92 288.83 C155.61 286.66, 157.65 284.13, 162.45 279.02 M155.63 292.96 C158.25 289.01, 159.82 288.25, 164.16 283.15 M155.63 292.96 C158.49 289.99, 161.7 286.53, 164.16 283.15 M157.99 296.34 C160.44 292.7, 162.2 290.98, 166.52 286.53 M157.99 296.34 C159.53 293.77, 162.32 291.32, 166.52 286.53 M160.36 299.72 C162.21 296.72, 163.5 295.4, 168.88 289.91 M160.36 299.72 C163.45 296.52, 166.42 291.57, 168.88 289.91 M162.06 303.86 C164.89 301.59, 166.69 297.71, 170.59 294.04 M162.06 303.86 C164.43 301.15, 166.69 298.96, 170.59 294.04 M164.42 307.23 C165.81 304.37, 169.98 301.16, 172.95 297.42 M164.42 307.23 C166.66 304.29, 169.3 301.56, 172.95 297.42 M166.79 310.61 C168.42 308.35, 172.33 304.54, 175.32 300.8 M166.79 310.61 C170.43 307.08, 173.36 302.66, 175.32 300.8 M168.49 314.75 C170.74 310.23, 175.48 306.54, 177.02 304.94 M168.49 314.75 C170.19 312.29, 172.73 309.82, 177.02 304.94 M170.86 318.13 C172.73 315.83, 175.55 311.94, 179.39 308.31 M170.86 318.13 C172.66 315.93, 174.15 314.77, 179.39 308.31 M172.56 322.26 C176.03 318.47, 178.21 316.71, 181.75 311.69 M172.56 322.26 C174.33 320.16, 176.75 317.63, 181.75 311.69 M174.93 325.64 C178.65 321.98, 180.41 319.32, 184.11 315.07 M174.93 325.64 C178.38 322.7, 180.93 319.66, 184.11 315.07 M177.29 329.02 C179.12 326.33, 181.27 322.64, 185.82 319.21 M177.29 329.02 C180.07 324.89, 183.67 321.84, 185.82 319.21 M179 333.15 C182.91 329.4, 186.41 323.81, 188.18 322.58 M179 333.15 C181.02 330.72, 183.2 327.95, 188.18 322.58 M181.36 336.53 C186 331.78, 189.03 329.03, 190.54 325.96 M181.36 336.53 C184.21 334.11, 186.08 331, 190.54 325.96 M183.72 339.91 C185.91 335.12, 189.35 332.57, 192.25 330.1 M183.72 339.91 C186.88 336.27, 189.46 333.43, 192.25 330.1 M185.43 344.04 C188.7 341.12, 190.79 336.98, 194.61 333.48 M185.43 344.04 C187.84 341.14, 189.71 338.87, 194.61 333.48 M187.79 347.42 C190.67 344.28, 191.95 342.75, 196.98 336.86 M187.79 347.42 C191.53 343.86, 195.09 339.7, 196.98 336.86 M189.5 351.55 C191.65 346.65, 196.56 343.98, 198.68 340.99 M189.5 351.55 C192.28 348.51, 195.31 345.8, 198.68 340.99 M158.4 393.42 C158.4 393.42, 158.4 393.42, 158.4 393.42 M158.4 393.42 C158.4 393.42, 158.4 393.42, 158.4 393.42 M191.86 354.93 C193.52 350.66, 196.66 349.42, 201.05 344.37 M191.86 354.93 C195.05 351.31, 198.27 347.85, 201.05 344.37 M160.76 396.8 C161.5 395.97, 162.43 394.87, 163.39 393.78 M160.76 396.8 C161.69 395.91, 162.71 394.46, 163.39 393.78 M194.22 358.31 C197.69 355.73, 199.37 350.53, 203.41 347.75 M194.22 358.31 C196.78 355.2, 198.19 353.45, 203.41 347.75 M162.47 400.94 C163.77 399.29, 166.15 397.09, 169.03 393.39 M162.47 400.94 C164.9 398.37, 167.19 395.64, 169.03 393.39 M195.93 362.45 C199.63 360.48, 200.66 356.71, 205.12 351.88 M195.93 362.45 C198.61 358.88, 202.68 355.72, 205.12 351.88 M164.18 405.07 C166.71 402.3, 170.13 397.51, 174.02 393.75 M164.18 405.07 C165.72 402.99, 167.94 399.44, 174.02 393.75 M198.29 365.83 C200.24 364.08, 203.99 361.49, 207.48 355.26 M198.29 365.83 C201.42 363.02, 204.4 358.62, 207.48 355.26 M165.88 409.2 C169.52 405.51, 175.55 399.75, 179.01 394.11 M165.88 409.2 C171.34 403.05, 175.88 396.8, 179.01 394.11 M200.66 369.2 C203.45 366.37, 206.72 362.55, 209.84 358.64 M200.66 369.2 C203.51 365.75, 205.18 363.58, 209.84 358.64 M168.25 412.58 C172.23 407.21, 178.53 399.28, 183.99 394.47 M168.25 412.58 C171.75 409.83, 173.76 404.53, 183.99 394.47 M202.36 373.34 C204.27 370.37, 207.83 367.47, 211.55 362.77 M202.36 373.34 C206.38 369.56, 209.67 365.65, 211.55 362.77 M169.95 416.72 C176.38 410.37, 180.96 402.15, 188.98 394.83 M169.95 416.72 C173.06 413.11, 178.06 408.71, 188.98 394.83 M204.73 376.72 C206.95 373.49, 208.25 371.18, 213.91 366.15 M204.73 376.72 C209.09 372.91, 211.45 367.82, 213.91 366.15 M171.66 420.85 C174.7 413.74, 181.02 409.57, 193.97 395.19 M171.66 420.85 C180.44 410.07, 189.15 401.25, 193.97 395.19 M206.43 380.85 C210.14 378.03, 211.04 373.61, 216.27 369.53 M206.43 380.85 C210.35 376.81, 214.31 373, 216.27 369.53 M174.02 424.23 C179.22 417.34, 185.03 410.4, 198.95 395.55 M174.02 424.23 C182.31 414.6, 190.31 406.68, 198.95 395.55 M203.55 390.27 C207.06 384.96, 207.7 383.75, 217.98 373.66 M203.55 390.27 C208.93 384.01, 215.67 376.54, 217.98 373.66 M175.73 428.36 C186.16 419.52, 196.07 408.14, 220.34 377.04 M175.73 428.36 C187.71 414.3, 198.96 400.9, 220.34 377.04 M177.44 432.5 C188.16 421.05, 197.63 408.98, 222.71 380.42 M177.44 432.5 C190.97 415.84, 205.82 401.5, 222.71 380.42 M183.08 432.1 C194.74 418.87, 202.48 408.46, 224.41 384.56 M183.08 432.1 C192.84 420.8, 202.46 410.01, 224.41 384.56 M188.72 431.71 C196.29 424.48, 202.06 414.26, 214.97 401.52 M188.72 431.71 C198.51 420.35, 209.48 408.44, 214.97 401.52 M194.37 431.31 C198.83 427.96, 203.46 423.08, 206.18 417.73 M194.37 431.31 C197.86 426.99, 202.43 421.36, 206.18 417.73 M177.13 431.85 C177.13 431.85, 177.13 431.85, 177.13 431.85 M177.13 431.85 C177.13 431.85, 177.13 431.85, 177.13 431.85 M183.53 432.11 C179.84 429, 176.64 426.72, 172.96 422.93 M183.53 432.11 C181.35 430.56, 178.77 428.54, 172.96 422.93 M189.17 431.72 C183.08 425.94, 176.66 421.04, 168.79 414 M189.17 431.72 C182.17 425.02, 174.27 419.32, 168.79 414 M194.81 431.32 C182.61 421.51, 173.09 411.71, 163.87 404.42 M194.81 431.32 C182.3 419.97, 171.18 410.75, 163.87 404.42 M198.95 429.62 C185.02 414.91, 169.06 402.16, 159.7 395.5 M198.95 429.62 C185.54 418.72, 173.3 406.53, 159.7 395.5 M200.82 425.94 C187.55 412.62, 172.91 401.21, 163.08 393.14 M200.82 425.94 C186.21 414.48, 170.8 401.74, 163.08 393.14 M202.69 422.27 C195.69 414.63, 188.38 408.96, 170.23 394.06 M202.69 422.27 C189.54 410.42, 177.21 399.24, 170.23 394.06 M205.31 419.25 C194.33 410.15, 187.25 404.88, 176.63 394.32 M205.31 419.25 C195 411.31, 184.92 401.41, 176.63 394.32 M207.18 415.57 C199.07 406.04, 190.15 398.78, 183.03 394.58 M207.18 415.57 C197.66 406.9, 189.87 400.34, 183.03 394.58 M209.05 411.9 C200.4 407.19, 194.78 398.59, 189.43 394.84 M209.05 411.9 C202.49 407.01, 197.87 401.76, 189.43 394.84 M210.92 408.22 C206.76 405.53, 202.83 398.45, 195.82 395.1 M210.92 408.22 C207.48 405.9, 203.78 401.38, 195.82 395.1 M212.79 404.55 C207 398.88, 204.75 396.06, 200.71 394.05 M212.79 404.55 C210.07 402.3, 208.1 399.85, 200.71 394.05 M214.66 400.87 C211.75 398.77, 210.33 395.64, 202.58 390.38 M214.66 400.87 C209.65 397.38, 205.96 393.31, 202.58 390.38 M217.28 397.85 C213.26 396.08, 208.91 392.47, 204.45 386.7 M217.28 397.85 C213.9 395.26, 209.43 391.3, 204.45 386.7 M219.15 394.18 C215.82 391.4, 211.76 387.32, 207.08 383.68 M219.15 394.18 C214.92 390.95, 210.12 385.95, 207.08 383.68 M221.02 390.5 C214.93 384.42, 212.09 382.2, 204.42 376.07 M221.02 390.5 C216.55 386.24, 210.44 381.54, 204.42 376.07 M222.89 386.83 C215.15 382.51, 210.43 374.53, 198.74 365.84 M222.89 386.83 C215.19 381.19, 208.73 374.47, 198.74 365.84 M224.76 383.15 C213.85 375.19, 206.67 367.2, 192.31 354.94 M224.76 383.15 C216.37 376.62, 207.77 368.33, 192.31 354.94 M218.33 372.26 C209.52 363.6, 197.35 354.78, 185.87 344.05 M218.33 372.26 C206.77 362.1, 195.51 352.97, 185.87 344.05 M211.89 361.37 C202.2 354.83, 191.72 346.22, 180.2 333.82 M211.89 361.37 C200.91 352.32, 190.03 343.18, 180.2 333.82 M205.46 350.48 C196.23 342.1, 190.67 336.93, 173.76 322.93 M205.46 350.48 C198.82 344.67, 190.75 337.58, 173.76 322.93 M199.03 339.59 C190.9 332.65, 181.91 325.35, 168.09 312.69 M199.03 339.59 C187.34 331.29, 178.49 321.99, 168.09 312.69 M192.6 328.7 C182.39 318.39, 170.64 311.47, 161.65 301.8 M192.6 328.7 C185.65 322.27, 179.1 318.13, 161.65 301.8 M186.17 317.81 C180.6 310.69, 174.74 305.94, 155.22 290.91 M186.17 317.81 C179.98 312.04, 172.81 305.51, 155.22 290.91 M179.73 306.91 C168.63 298.12, 159.31 289.87, 149.54 280.67 M179.73 306.91 C170.12 298.76, 162.01 290.55, 149.54 280.67 M172.55 295.37 C164.42 289.89, 158.04 284.54, 143.11 269.78 M172.55 295.37 C161.07 285.95, 149.42 274.87, 143.11 269.78 M166.11 284.47 C155.19 275.31, 147.76 268.94, 137.44 259.54 M166.11 284.47 C157.78 276.47, 149.26 271.05, 137.44 259.54 M159.68 273.58 C151.14 265.93, 140.7 259.23, 131 248.65 M159.68 273.58 C147.98 262.91, 138.03 253.62, 131 248.65 M153.25 262.69 C142.51 254.85, 131.18 245.86, 124.57 237.76 M153.25 262.69 C145.47 256.75, 137.38 248.61, 124.57 237.76 M146.82 251.8 C140.96 245.62, 130.56 240.45, 118.89 227.53 M146.82 251.8 C141.07 245.12, 133.65 240.66, 118.89 227.53 M140.38 240.91 C128.26 230.3, 117.12 223.34, 112.46 216.63 M140.38 240.91 C131.22 233.51, 121.18 224.74, 112.46 216.63 M133.95 230.02 C127.47 224.99, 118.96 216.87, 106.03 205.74 M133.95 230.02 C126.3 222.75, 118.55 216.81, 106.03 205.74 M127.52 219.13 C117.77 210.61, 112.08 204.49, 100.35 195.51 M127.52 219.13 C120.49 211.77, 114.01 207.1, 100.35 195.51 M119.58 206.92 C111.09 199.38, 108.26 194.2, 93.92 184.62 M119.58 206.92 C111.85 200.41, 103.4 192.35, 93.92 184.62 M123.71 205.21 C115.26 199.14, 105.96 190.96, 88.24 174.38 M123.71 205.21 C114.35 198.07, 105.11 189.89, 88.24 174.38 M127.09 202.85 C122.39 197.97, 118.41 196.65, 115.02 192.36 M127.09 202.85 C123.99 199.27, 119.96 196.25, 115.02 192.36 M110.49 188.42 C102.25 182.22, 96.68 177.75, 81.81 163.49 M110.49 188.42 C98.59 178.56, 89.11 169.12, 81.81 163.49 M127.45 197.87 C123.25 195.25, 120.3 191.16, 118.39 189.99 M127.45 197.87 C125.84 196.84, 124.14 194.73, 118.39 189.99 M116.89 188.68 C115.47 187.38, 114.46 186.24, 111.6 184.09 M116.89 188.68 C114.8 186.95, 113.27 185.5, 111.6 184.09 M104.81 178.18 C97.62 173.32, 91.3 167.52, 75.38 152.6 M104.81 178.18 C97.91 172.83, 92.48 167.21, 75.38 152.6 M120.26 186.32 C114.01 183.43, 110.83 178.81, 103.66 171.88 M120.26 186.32 C115.95 181.25, 110.51 176.73, 103.66 171.88 M99.89 168.6 C90.15 159, 82.86 154.76, 69.7 142.36 M99.89 168.6 C91.45 160.98, 81.35 153.01, 69.7 142.36 M124.4 184.61 C114.35 178.51, 107.39 168.84, 95.72 159.68 M124.4 184.61 C116.64 178.37, 108.91 170.85, 95.72 159.68 M94.21 158.37 C83.48 149.95, 72.6 138.98, 63.27 131.47 M94.21 158.37 C87.75 151.62, 81.3 147.81, 63.27 131.47 M127.78 182.25 C106.59 166.49, 87 148.76, 57.59 121.23 M127.78 182.25 C108.56 164.26, 88.82 147.14, 57.59 121.23 M131.16 179.89 C117.67 171.84, 109.25 158.86, 88.89 143.15 M131.16 179.89 C117.73 167.93, 102.69 156.27, 88.89 143.15 M81.35 136.59 C74.45 131.87, 69.51 126.53, 51.16 110.34 M81.35 136.59 C73.69 129.86, 66.24 122.43, 51.16 110.34 M132.27 175.55 C116.78 163.18, 102.05 149.06, 93.03 141.44 M132.27 175.55 C123.82 168.17, 115.94 160.6, 93.03 141.44 M74.91 125.69 C63.33 115.52, 51.3 105.02, 44.72 99.45 M74.91 125.69 C63.38 117.21, 54.33 107.4, 44.72 99.45 M125.84 164.66 C116.51 157.76, 107.93 151.59, 96.4 139.08 M125.84 164.66 C119.91 158.36, 113.08 153.28, 96.4 139.08 M68.48 114.8 C60.7 109.65, 54.61 102.96, 39.05 89.22 M68.48 114.8 C58.51 106.55, 48.29 98.64, 39.05 89.22 M118.65 153.12 C113.11 149.61, 109.93 143.3, 100.54 137.37 M118.65 153.12 C113.47 147.25, 106.63 142.63, 100.54 137.37 M62.05 103.91 C56.87 98.72, 49.19 91.81, 32.61 78.32 M62.05 103.91 C53.59 95.74, 45.03 88.35, 32.61 78.32 M112.22 142.22 C109.79 139.99, 105.9 138.61, 103.92 135.01 M112.22 142.22 C109.97 140.32, 108.08 138.19, 103.92 135.01 M55.62 93.02 C45.62 86.69, 36.85 78.55, 26.94 68.09 M55.62 93.02 C47.54 85.94, 38.56 79.46, 26.94 68.09 M49.18 82.13 C41.5 75.8, 34.64 68.76, 20.5 57.2 M49.18 82.13 C42.27 77.67, 37.61 72.4, 20.5 57.2 M42.75 71.24 C34.95 67.3, 29.25 61.23, 14.07 46.31 M42.75 71.24 C33.51 63.31, 26.67 56.24, 14.07 46.31 M36.32 60.34 C26.9 53.94, 20.6 45.97, 8.39 36.07 M36.32 60.34 C26.94 51.94, 18.79 45.18, 8.39 36.07 M29.89 49.45 C17.85 39.74, 8.22 32.61, 1.96 25.18 M29.89 49.45 C21.22 41.99, 14.11 36.19, 1.96 25.18 M23.45 38.56 C16.44 31.38, 5.95 23.95, -4.47 14.29 M23.45 38.56 C12.83 30.11, 4.06 21.42, -4.47 14.29 M17.02 27.67 C7.39 18.96, 0.67 13.55, -10.15 4.05 M17.02 27.67 C9.12 20.91, 0.41 13.12, -10.15 4.05 M10.59 16.78 C6.72 14.04, 4.48 9.61, -6.77 1.69 M10.59 16.78 C6.65 12.98, 0.62 7.95, -6.77 1.69 M4.16 5.89 C3.05 4.81, 1.51 3.24, -2.63 -0.02 M4.16 5.89 C2.71 4.29, 0.63 3.24, -2.63 -0.02" stroke="#ffc9c9" stroke-width="0.5" fill="none"></path><path d="M0 0 C-2.71 1.58, -4.28 2.32, -11.13 3.14 M0 0 C-3.54 1.06, -5.4 1.76, -11.13 3.14 M-11.13 3.14 C52.93 111.14, 115.25 219.29, 207.46 381.85 M-11.13 3.14 C36.47 83.1, 81.9 161.26, 207.46 381.85 M207.46 381.85 C204.3 385.64, 203.34 392.31, 200.13 395.3 M207.46 381.85 C205.83 384.07, 203.76 386.94, 200.13 395.3 M200.13 395.3 C184.48 395.76, 171.61 393.02, 158.53 393.23 M200.13 395.3 C187.77 394.87, 174.93 394.77, 158.53 393.23 M158.53 393.23 C165.94 405.26, 171.99 418.58, 177.47 432.14 M158.53 393.23 C163.77 404.68, 169.61 416.66, 177.47 432.14 M177.47 432.14 C180.66 432.91, 184.82 433.41, 198.3 430.92 M177.47 432.14 C186.43 432.48, 194.23 431.21, 198.3 430.92 M198.3 430.92 C204.9 419.28, 209.13 409.29, 224.36 384.01 M198.3 430.92 C207.76 412.26, 218.28 396.63, 224.36 384.01 M224.36 384.01 C191.23 327.41, 159.26 268.63, 119.46 207.4 M224.36 384.01 C186.78 324.01, 151.32 263.89, 119.46 207.4 M119.46 207.4 C124.08 205.42, 127.37 203.22, 130.23 201.74 M119.46 207.4 C123.19 205.48, 125.22 203.79, 130.23 201.74 M130.23 201.74 C126.73 195.07, 124.24 192.11, 120.7 188.63 M130.23 201.74 C127.51 198.12, 124.46 193.23, 120.7 188.63 M120.7 188.63 C118.6 190.89, 115.73 191.25, 112.45 193.57 M120.7 188.63 C117.98 190.71, 114.89 192.31, 112.45 193.57 M112.45 193.57 C104.69 181.31, 100.59 172.53, 92.77 156.6 M112.45 193.57 C106.72 183.04, 101.53 172.65, 92.77 156.6 M92.77 156.6 C96.28 163.04, 103.74 174.01, 114.61 190.67 M92.77 156.6 C99.06 166.64, 106.54 178.44, 114.61 190.67 M114.61 190.67 C121.16 189.41, 122.29 186.31, 133.2 178.75 M114.61 190.67 C120.52 187.58, 126.6 183.46, 133.2 178.75 M133.2 178.75 C123.15 160.96, 111.93 144.51, 106.55 134.21 M133.2 178.75 C125.47 164.95, 115.43 150.77, 106.55 134.21 M106.55 134.21 C97.95 138.75, 90.11 144.47, 86.01 145.21 M106.55 134.21 C100.33 137.46, 96.08 139.63, 86.01 145.21 M86.01 145.21 C61.82 101.5, 37 60.19, 0 0 M86.01 145.21 C56.23 93.73, 27.48 42.65, 0 0 M0 0 C0 0, 0 0, 0 0 M0 0 C0 0, 0 0, 0 0" stroke="#e03131" stroke-width="1" fill="none"></path></g></g><mask></mask><g stroke-linecap="round"><g transform="translate(238.98847223763107 565.7503934269891) rotate(0 5.8937090889749015 52.6005025228003)" fill-rule="evenodd"><path d="M-42.9 24.98 C-42.9 24.98, -42.9 24.98, -42.9 24.98 M-42.9 24.98 C-42.9 24.98, -42.9 24.98, -42.9 24.98 M-40.54 28.36 C-36.95 25.27, -36.39 22.77, -32.01 18.55 M-40.54 28.36 C-37.1 24.79, -34.25 20.48, -32.01 18.55 M-38.18 31.74 C-35.38 25.19, -30.7 21.29, -21.12 12.12 M-38.18 31.74 C-33.42 24.63, -27.65 19.99, -21.12 12.12 M-36.47 35.87 C-28.84 25.32, -20.68 16.81, -10.89 6.44 M-36.47 35.87 C-30.26 30.03, -24.49 24.15, -10.89 6.44 M-34.11 39.25 C-23.71 26.41, -12.73 14.72, 0.01 0.01 M-34.11 39.25 C-25.24 27.85, -16.25 18.08, 0.01 0.01 M-31.75 42.63 C-21.81 30.34, -10.29 18.94, 2.37 3.38 M-31.75 42.63 C-20.44 28.64, -7.83 16.16, 2.37 3.38 M-29.38 46.01 C-17.68 32.21, -6.67 21.53, 4.08 7.52 M-29.38 46.01 C-18.15 33.68, -7.11 20.23, 4.08 7.52 M-27.68 50.14 C-19.23 40.12, -13.14 32.61, 6.44 10.9 M-27.68 50.14 C-13.22 35.2, -0.44 18.52, 6.44 10.9 M-25.31 53.52 C-16.43 40.85, -4.12 31.25, 8.15 15.03 M-25.31 53.52 C-16.08 42.98, -6.74 32.45, 8.15 15.03 M-22.95 56.9 C-13 47.78, -5.93 38.52, 10.51 18.41 M-22.95 56.9 C-13.98 46.3, -5.16 35.75, 10.51 18.41 M-21.24 61.03 C-6.17 44.45, 6.16 29.51, 12.87 21.79 M-21.24 61.03 C-9.79 49.24, -0.03 37.18, 12.87 21.79 M-18.88 64.41 C-7.86 51.76, 1.48 44.15, 14.58 25.92 M-18.88 64.41 C-10.75 56, -3.36 45.96, 14.58 25.92 M-16.52 67.79 C-4.75 53.98, 8.55 42.2, 16.94 29.3 M-16.52 67.79 C-3.95 53.08, 9.53 38.61, 16.94 29.3 M-14.16 71.17 C-6.23 60.32, 2.41 50.23, 19.3 32.68 M-14.16 71.17 C-7.29 62.4, 0.7 54.19, 19.3 32.68 M-12.45 75.3 C-4.97 66.25, 2.96 56.8, 21.01 36.81 M-12.45 75.3 C-4.03 63.47, 6.96 54.17, 21.01 36.81 M-10.09 78.68 C-0.53 64.95, 11.64 52, 23.37 40.19 M-10.09 78.68 C1.9 65.84, 12.7 52.15, 23.37 40.19 M-7.72 82.06 C2.09 69.92, 11.47 59.4, 25.08 44.33 M-7.72 82.06 C0.4 72.43, 8.95 62.55, 25.08 44.33 M-6.02 86.2 C7.5 70.21, 21.18 56.46, 27.44 47.71 M-6.02 86.2 C0.49 78.23, 7.47 68.74, 27.44 47.71 M-3.65 89.57 C3.38 81.66, 13.4 71.24, 29.8 51.08 M-3.65 89.57 C5.2 79.17, 13.84 68.71, 29.8 51.08 M-1.29 92.95 C5.44 84.62, 14.2 73.58, 31.51 55.22 M-1.29 92.95 C12.15 77.9, 24.75 63.47, 31.51 55.22 M1.07 96.33 C9.4 85.7, 18.69 76.26, 33.87 58.6 M1.07 96.33 C13.04 83.66, 22.96 70.17, 33.87 58.6 M2.78 100.47 C12.78 87.8, 26.39 75.88, 36.24 61.98 M2.78 100.47 C14.66 86.46, 26.35 74.74, 36.24 61.98 M5.8 103.09 C19.25 88.89, 30.4 76.85, 37.94 66.11 M5.8 103.09 C17.07 88.36, 29.21 76.09, 37.94 66.11 M10.78 103.45 C17.39 92.75, 27.03 85.21, 40.31 69.49 M10.78 103.45 C17.89 94.2, 26.06 86.19, 40.31 69.49 M15.77 103.81 C25.45 89.93, 35.13 78.48, 42.01 73.62 M15.77 103.81 C23.82 92.84, 32.37 83.44, 42.01 73.62 M20.76 104.17 C27.53 96.77, 35.54 85.9, 44.38 77 M20.76 104.17 C27.21 95.79, 33.98 89.27, 44.38 77 M26.4 103.78 C34.24 95.17, 36.71 89.46, 46.74 80.38 M26.4 103.78 C33.11 97.41, 37.95 90.21, 46.74 80.38 M31.39 104.14 C37.39 99.46, 39.89 96.42, 48.45 84.51 M31.39 104.14 C35.21 99.6, 40.66 92.98, 48.45 84.51 M36.37 104.5 C38.69 102.2, 43.8 98.92, 50.81 87.89 M36.37 104.5 C41.81 99.19, 45.78 92.48, 50.81 87.89 M41.36 104.86 C44.28 100.58, 50.26 94.43, 53.17 91.27 M41.36 104.86 C46 100.3, 49.01 95.07, 53.17 91.27 M46.35 105.22 C48.99 101.13, 53.92 96.63, 54.88 95.4 M46.35 105.22 C48.95 101.63, 51.65 99.18, 54.88 95.4 M4.69 102.83 C4.69 102.83, 4.69 102.83, 4.69 102.83 M4.69 102.83 C4.69 102.83, 4.69 102.83, 4.69 102.83 M11.08 103.09 C7.15 98.7, 2.39 96.24, -2.5 91.28 M11.08 103.09 C7.45 100.24, 3.5 96.87, -2.5 91.28 M17.48 103.35 C10.09 98.46, 4.56 91.53, -8.93 80.39 M17.48 103.35 C9.29 97, 1.88 89.29, -8.93 80.39 M23.88 103.62 C7.15 90.83, -6.95 76.95, -16.12 68.85 M23.88 103.62 C15.99 95.16, 5.2 87.97, -16.12 68.85 M30.28 103.88 C15.68 89.38, 0.5 80.25, -22.55 57.95 M30.28 103.88 C9.42 86.78, -10.87 67.81, -22.55 57.95 M36.67 104.14 C19.59 92.17, 4.36 75.48, -29.74 46.41 M36.67 104.14 C14.53 86.5, -5.79 68.17, -29.74 46.41 M43.83 105.06 C21.81 85.5, -2.07 66.26, -36.17 35.51 M43.83 105.06 C21.77 84.96, -2.38 64.48, -36.17 35.51 M50.22 105.32 C29.07 83.87, 3.86 64, -42.6 24.62 M50.22 105.32 C18.93 79.38, -11.1 53.31, -42.6 24.62 M51.34 100.99 C28.45 81.36, 3.13 57.76, -39.23 22.26 M51.34 100.99 C19.18 74.04, -13.14 44.75, -39.23 22.26 M53.21 97.31 C33.94 82.88, 17.96 64.16, -35.09 20.55 M53.21 97.31 C17.19 68.48, -16.26 36.92, -35.09 20.55 M52.81 91.67 C34.76 74.89, 15.54 59.23, -31.71 18.19 M52.81 91.67 C26.45 68.2, 0.87 46.18, -31.71 18.19 M47.14 81.43 C24.62 59.4, -0.78 41.05, -28.33 15.83 M47.14 81.43 C18.24 55.76, -10.79 29.23, -28.33 15.83 M40.7 70.54 C27.23 57.3, 13.91 48.17, -24.2 14.12 M40.7 70.54 C20.94 54.2, 0.36 34.93, -24.2 14.12 M34.27 59.65 C12.28 41.52, -9.92 23.04, -20.82 11.76 M34.27 59.65 C14.27 42.73, -4.17 25.38, -20.82 11.76 M28.59 49.42 C16.95 40.3, 9.15 34.18, -16.69 10.05 M28.59 49.42 C15.47 37.24, 2.8 25.6, -16.69 10.05 M22.16 38.52 C11.44 29.07, -1.03 17.29, -13.31 7.69 M22.16 38.52 C13.75 30.18, 5.13 23.18, -13.31 7.69 M16.48 28.29 C7.91 20.73, 1.48 15.01, -9.93 5.33 M16.48 28.29 C5.54 19.35, -4.73 10.63, -9.93 5.33 M10.05 17.4 C6.85 14.35, 4.24 10.29, -5.8 3.62 M10.05 17.4 C6.83 14.4, 4.4 11.42, -5.8 3.62 M3.62 6.51 C1.42 4.67, -0.13 2.89, -2.42 1.26 M3.62 6.51 C1.7 4.96, -0.19 2.63, -2.42 1.26" stroke="#b2f2bb" stroke-width="0.5" fill="none"></path><path d="M0 0 C-16.01 10.35, -31.57 19.16, -42.67 24.71 M0 0 C-10.2 4.69, -19.29 11.93, -42.67 24.71 M-42.67 24.71 C-32.64 44.37, -19.34 61.88, 4.31 102.5 M-42.67 24.71 C-31.41 41.29, -21.05 57.56, 4.31 102.5 M4.31 102.5 C17.51 103.75, 31.13 102.63, 49.92 105.2 M4.31 102.5 C14.77 102.1, 26.31 104.56, 49.92 105.2 M49.92 105.2 C51.6 101.99, 52.12 101.21, 54.45 94.43 M49.92 105.2 C50.69 102.98, 52.04 99.69, 54.45 94.43 M54.45 94.43 C39.84 68.88, 22.45 40.26, 0 0 M54.45 94.43 C38.35 64.13, 21.15 34.19, 0 0 M0 0 C0 0, 0 0, 0 0 M0 0 C0 0, 0 0, 0 0" stroke="#e03131" stroke-width="1" fill="none"></path></g></g><mask></mask><g stroke-linecap="round"><g transform="translate(432.61327672453524 543.5974108137741) rotate(0 56.14477995332487 65.6408492103094)" fill-rule="evenodd"><path d="M0 0 C0 0, 0 0, 0 0 M0 0 C0 0, 0 0, 0 0 M-11.41 19.23 C-7.61 14.9, -4.05 7.26, 5.64 -0.39 M-11.41 19.23 C-6.63 13.56, -0.25 5.47, 5.64 -0.39 M-22.17 37.7 C-16.26 28.61, -5.2 20.67, 10.63 -0.03 M-22.17 37.7 C-10.34 24.82, 0.83 10.1, 10.63 -0.03 M-33.59 56.93 C-21.67 43.1, -8.24 29.56, 16.27 -0.43 M-33.59 56.93 C-18.48 39.38, -2.3 21.99, 16.27 -0.43 M-44.35 75.4 C-22.92 49.25, 3.9 22.76, 21.26 -0.07 M-44.35 75.4 C-21.7 48.68, 2.76 21.3, 21.26 -0.07 M-45.26 82.55 C-29.39 64.58, -15.71 45.08, 26.9 -0.46 M-45.26 82.55 C-27.45 60.91, -7.55 40.1, 26.9 -0.46 M-40.28 82.91 C-16.37 56.62, 3.48 30.41, 31.89 -0.1 M-40.28 82.91 C-24.81 66.93, -9.53 48.24, 31.89 -0.1 M-35.29 83.27 C-19.35 64.55, -6.1 46.1, 37.53 -0.5 M-35.29 83.27 C-10.36 55.24, 16 26.87, 37.53 -0.5 M-29.65 82.88 C-12.53 62.59, 7.47 39.64, 42.52 -0.14 M-29.65 82.88 C-3.92 51.94, 22.22 23.1, 42.52 -0.14 M-24.66 83.24 C-8.34 64.2, 9.67 42.52, 48.16 -0.53 M-24.66 83.24 C-3.54 58.24, 17.67 34.51, 48.16 -0.53 M-19.67 83.6 C-1.37 59.56, 18.97 35.8, 53.15 -0.17 M-19.67 83.6 C-0.02 60.42, 19.25 35.92, 53.15 -0.17 M-14.69 83.96 C6.59 60.73, 30.96 34.94, 58.79 -0.57 M-14.69 83.96 C8.33 57.96, 33.46 30.1, 58.79 -0.57 M-9.7 84.32 C9.79 64.5, 26.2 45.98, 63.78 -0.21 M-9.7 84.32 C14.71 55.88, 40.38 27.13, 63.78 -0.21 M-6.02 86.19 C9.1 64.43, 29.47 47.14, 69.42 -0.6 M-6.02 86.19 C10.54 66.03, 28.59 47.78, 69.42 -0.6 M-4.97 91.08 C22.77 57.91, 48.65 26, 74.41 -0.24 M-4.97 91.08 C23.57 58.02, 52.93 24.22, 74.41 -0.24 M-3.27 95.21 C15.33 73.16, 30.77 53.09, 80.05 -0.64 M-3.27 95.21 C19.74 69.16, 42.57 42.32, 80.05 -0.64 M-6.81 105.38 C23.1 72.7, 53.95 37.48, 85.04 -0.28 M-6.81 105.38 C20.38 74.3, 47.72 42.56, 85.04 -0.28 M-16.25 122.35 C13.69 88.43, 44.27 52, 90.68 -0.67 M-16.25 122.35 C14.48 85.54, 48.01 47.21, 90.68 -0.67 M-19.14 131.76 C15.05 92.5, 53.23 51.51, 95.67 -0.31 M-19.14 131.76 C14.97 91.11, 50.33 50.6, 95.67 -0.31 M-14.15 132.12 C12.95 99.3, 38.63 69.13, 101.31 -0.71 M-14.15 132.12 C14.29 100.45, 40.58 70.52, 101.31 -0.71 M-8.51 131.73 C24.31 92.46, 60.41 55.99, 106.3 -0.34 M-8.51 131.73 C24.78 92.99, 57.71 54.4, 106.3 -0.34 M-3.52 132.09 C30.33 94.77, 61.13 59.24, 111.94 -0.74 M-3.52 132.09 C38.25 83.57, 79.9 34.19, 111.94 -0.74 M2.12 131.69 C38.2 91.42, 71.84 51.01, 116.93 -0.38 M2.12 131.69 C45.83 82.79, 90.2 31.51, 116.93 -0.38 M7.11 132.05 C31.82 105.04, 53.19 76.35, 120.61 1.49 M7.11 132.05 C37.84 97.21, 67.93 61.25, 120.61 1.49 M12.75 131.66 C46.01 95.67, 76.63 56.37, 124.28 3.36 M12.75 131.66 C36.58 103.55, 59.27 76.21, 124.28 3.36 M17.74 132.02 C46.75 100.38, 76.27 66.44, 127.96 5.23 M17.74 132.02 C51.69 92.11, 85.96 53.86, 127.96 5.23 M23.38 131.63 C56.36 93.36, 90.71 54.58, 131.63 7.1 M23.38 131.63 C53.2 99.68, 80.52 65.35, 131.63 7.1 M28.37 131.99 C70.3 83.61, 115.17 34.92, 135.31 8.97 M28.37 131.99 C60.9 96, 92.48 59.37, 135.31 8.97 M34.01 131.59 C56.59 105.65, 81.57 77.42, 138.98 10.84 M34.01 131.59 C69.62 90.19, 105.9 47.48, 138.98 10.84 M39 131.95 C66.37 101.45, 89.92 74.1, 142.66 12.71 M39 131.95 C64.15 104.53, 88.19 77.4, 142.66 12.71 M44.64 131.56 C67.74 104.09, 92.37 78.67, 146.33 14.58 M44.64 131.56 C74.47 97.94, 101.87 66.42, 146.33 14.58 M49.63 131.92 C88.55 86.49, 129.36 44.01, 150.01 16.45 M49.63 131.92 C71.82 106.1, 93.63 81.06, 150.01 16.45 M55.27 131.52 C77.78 106.26, 99.6 80.62, 153.02 19.07 M55.27 131.52 C78.03 107.69, 99.25 82.03, 153.02 19.07 M60.26 131.88 C80.59 106.82, 104.01 78.59, 156.7 20.94 M60.26 131.88 C87.21 98.81, 115.24 68.69, 156.7 20.94 M65.9 131.49 C95.95 95.43, 128.64 60.5, 161.03 22.05 M65.9 131.49 C100.76 90.59, 134.61 50.77, 161.03 22.05 M70.89 131.85 C100.22 100.73, 127.37 68.47, 148.3 42.79 M70.89 131.85 C100.56 98.37, 129.1 64.2, 148.3 42.79 M76.53 131.45 C94.8 106.83, 118.05 83.87, 136.23 62.77 M76.53 131.45 C88.1 117.87, 100.37 103.18, 136.23 62.77 M81.52 131.81 C98.83 113.76, 116.14 95.38, 124.16 82.76 M81.52 131.81 C90.51 121.24, 98.66 112.14, 124.16 82.76 M87.16 131.42 C95.1 122.18, 100.61 113.68, 112.09 102.74 M87.16 131.42 C93.44 123.26, 101.67 115.48, 112.09 102.74 M92.15 131.78 C93.95 129.37, 96.45 127.36, 100.02 122.72 M92.15 131.78 C95.61 129.14, 97.53 124.99, 100.02 122.72 M-21.95 131.95 C-21.95 131.95, -21.95 131.95, -21.95 131.95 M-21.95 131.95 C-21.95 131.95, -21.95 131.95, -21.95 131.95 M-16.31 131.55 C-17.41 131.03, -18.94 130.03, -20.08 128.27 M-16.31 131.55 C-17.61 130.45, -18.97 129.48, -20.08 128.27 M-9.91 131.82 C-13.67 128.38, -16 126.21, -18.21 124.6 M-9.91 131.82 C-12.6 129.42, -16.11 126.18, -18.21 124.6 M-4.27 131.42 C-8.31 127.33, -11.65 126.07, -16.34 120.92 M-4.27 131.42 C-8.72 127.89, -12.77 124.93, -16.34 120.92 M2.13 131.68 C-5.06 124.92, -10.17 123.67, -14.47 117.25 M2.13 131.68 C-3.71 127.66, -9.12 122.16, -14.47 117.25 M7.77 131.29 C0.93 123.73, -3.53 118.52, -12.6 113.57 M7.77 131.29 C3.12 126.93, -4.09 121.37, -12.6 113.57 M14.17 131.55 C7.68 125.06, -0.15 122.07, -10.73 109.9 M14.17 131.55 C9.58 126.72, 2.79 121.06, -10.73 109.9 M-43.19 81.69 C-44.14 80.82, -44.7 80.57, -46.21 79.07 M-43.19 81.69 C-44.45 80.7, -45.22 79.77, -46.21 79.07 M20.57 131.81 C13.29 125.13, 0.71 113.43, -8.86 106.23 M20.57 131.81 C13.08 127.02, 7.2 120.95, -8.86 106.23 M-36.79 81.95 C-39.37 80.09, -42.13 78.92, -44.34 75.39 M-36.79 81.95 C-38.47 80.67, -39.5 79.63, -44.34 75.39 M26.21 131.42 C16.34 123.32, 7.89 113.74, -6.24 103.21 M26.21 131.42 C13.15 120.64, 0.8 109.22, -6.24 103.21 M-30.39 82.21 C-34.27 79.17, -35.14 76.59, -42.47 71.72 M-30.39 82.21 C-32.33 79.31, -36.13 78.35, -42.47 71.72 M32.61 131.68 C24.45 122.73, 13.97 116.84, -4.37 99.53 M32.61 131.68 C24.44 124.5, 16.28 116.4, -4.37 99.53 M-23.99 82.47 C-28.83 77.47, -32.83 75.89, -39.84 68.7 M-23.99 82.47 C-27.3 79.62, -29.93 76.55, -39.84 68.7 M38.25 131.28 C29.56 121.39, 18.11 111.6, -3.26 95.2 M38.25 131.28 C27.33 122.75, 15.82 113.15, -3.26 95.2 M-17.6 82.74 C-25.12 79.8, -26.9 73.41, -37.97 65.02 M-17.6 82.74 C-25.6 76.17, -33.26 68.17, -37.97 65.02 M44.65 131.55 C23.09 112.05, 5.68 95.17, -5.16 88.25 M44.65 131.55 C30.11 117.34, 14.38 105.02, -5.16 88.25 M-11.2 83 C-14.82 77.15, -20.2 72.58, -36.1 61.35 M-11.2 83 C-21.08 75.58, -29.36 66.15, -36.1 61.35 M50.29 131.15 C17.99 102.12, -15.39 72.79, -34.23 57.67 M50.29 131.15 C18.36 102.86, -13.57 73.44, -34.23 57.67 M56.69 131.41 C37.81 116.71, 18.99 100.99, -31.61 54.65 M56.69 131.41 C27.06 105.57, -5.38 78.32, -31.61 54.65 M63.09 131.67 C45.18 116.14, 24.02 100.67, -29.74 50.98 M63.09 131.67 C42.13 113.18, 21.89 96.06, -29.74 50.98 M68.73 131.28 C41.72 107.04, 11.76 81.69, -27.87 47.3 M68.73 131.28 C35.6 102.42, 2.48 74.76, -27.87 47.3 M75.13 131.54 C36.95 99.01, -4.99 62.01, -26 43.63 M75.13 131.54 C42.86 102.86, 10.97 75.79, -26 43.63 M80.77 131.15 C42.18 102.31, 7.19 67.3, -23.38 40.61 M80.77 131.15 C47.61 101.77, 15.08 72.36, -23.38 40.61 M87.17 131.41 C46.14 93.84, 5.51 61.49, -21.51 36.93 M87.17 131.41 C55.88 104.36, 23.08 75.99, -21.51 36.93 M92.81 131.01 C49 96.52, 8.97 58.11, -19.64 33.26 M92.81 131.01 C56.11 98.45, 20.25 69.18, -19.64 33.26 M96.19 128.65 C55.01 90.85, 13.79 55.17, -17.77 29.58 M96.19 128.65 C54.19 92.5, 13.66 57.19, -17.77 29.58 M98.06 124.97 C73.38 104.04, 50.3 85.96, -15.14 26.57 M98.06 124.97 C64.51 95.44, 30.09 65.23, -15.14 26.57 M100.69 121.96 C72.34 97.95, 46.65 76.56, -13.27 22.89 M100.69 121.96 C72.82 98.89, 46.56 74.95, -13.27 22.89 M102.56 118.28 C56.52 78.69, 10.72 40.08, -11.4 19.22 M102.56 118.28 C68.77 88.2, 32.63 58.67, -11.4 19.22 M104.43 114.61 C74.17 92.91, 49.3 68.17, -9.53 15.54 M104.43 114.61 C79.25 91.73, 53.18 70.73, -9.53 15.54 M107.05 111.59 C71.24 78.52, 34.26 46.98, -6.91 12.52 M107.05 111.59 C75.33 83.17, 42.31 54.48, -6.91 12.52 M108.92 107.91 C71.48 78.29, 33.76 46.03, -5.04 8.85 M108.92 107.91 C72.09 74.15, 35.49 42.63, -5.04 8.85 M110.79 104.24 C77.19 76.74, 43.11 43.48, -3.17 5.17 M110.79 104.24 C80.77 75.44, 49.23 49.64, -3.17 5.17 M113.41 101.22 C69.21 64.54, 25.66 23.43, -0.55 2.15 M113.41 101.22 C72.17 64.81, 32.16 30.75, -0.55 2.15 M115.28 97.54 C86.36 71.06, 59.89 47.43, 2.83 -0.21 M115.28 97.54 C87.85 75.87, 63.66 52.98, 2.83 -0.21 M117.15 93.87 C94.09 75.28, 68.81 55.16, 9.23 0.05 M117.15 93.87 C93.87 73.1, 70.92 53.78, 9.23 0.05 M119.02 90.19 C92.23 66.27, 64.32 43.02, 14.87 -0.34 M119.02 90.19 C79.73 58.03, 41.7 23.89, 14.87 -0.34 M121.65 87.18 C86.07 55.39, 44.6 19.26, 21.27 -0.08 M121.65 87.18 C83.3 52.64, 42.86 18.11, 21.27 -0.08 M123.52 83.5 C84.46 50, 45.28 16.86, 26.91 -0.48 M123.52 83.5 C98.32 60.86, 74.01 39.3, 26.91 -0.48 M125.39 79.83 C96.64 55.42, 69.12 32.6, 33.31 -0.21 M125.39 79.83 C97.7 55.02, 70.18 31.59, 33.31 -0.21 M128.01 76.81 C101.63 52.92, 76.96 30.75, 39.71 0.05 M128.01 76.81 C98.97 52.56, 71.88 28.84, 39.71 0.05 M129.88 73.13 C110.59 54.95, 93.37 39.59, 45.35 -0.35 M129.88 73.13 C99.86 48.23, 70.78 21.17, 45.35 -0.35 M131.75 69.46 C102.22 44.36, 70.97 19.08, 51.75 -0.09 M131.75 69.46 C108.38 48.16, 84.3 27.87, 51.75 -0.09 M134.37 66.44 C117.18 51.72, 102.86 36.63, 57.39 -0.48 M134.37 66.44 C117.49 51.87, 100.08 36.16, 57.39 -0.48 M136.24 62.76 C122.79 48.89, 107.3 37.69, 63.79 -0.22 M136.24 62.76 C120.38 50.5, 107.3 37.81, 63.79 -0.22 M138.11 59.09 C111.6 36.72, 86.4 16.17, 69.43 -0.61 M138.11 59.09 C123.11 45.24, 106.98 31.96, 69.43 -0.61 M140.74 56.07 C113.68 33.88, 89.36 11.19, 75.83 -0.35 M140.74 56.07 C128.15 44.23, 114.97 34.7, 75.83 -0.35 M142.61 52.39 C119.33 30.9, 93.43 10.14, 81.47 -0.75 M142.61 52.39 C120.78 33.77, 100.62 16.22, 81.47 -0.75 M144.48 48.72 C130.82 37.22, 114.09 24.82, 87.87 -0.48 M144.48 48.72 C128 33.63, 109.44 18.45, 87.87 -0.48 M146.35 45.04 C132.92 32.37, 120.97 24.34, 93.52 -0.88 M146.35 45.04 C125.88 28.58, 106.32 10.64, 93.52 -0.88 M148.97 42.03 C131.05 25.9, 114.26 12.51, 99.91 -0.62 M148.97 42.03 C135.61 31.7, 123.77 20.63, 99.91 -0.62 M150.84 38.35 C137.02 25.69, 122.42 16.48, 106.31 -0.36 M150.84 38.35 C141.81 30.27, 131.13 22.66, 106.31 -0.36 M152.71 34.68 C137.42 24.22, 123.91 11.55, 111.95 -0.75 M152.71 34.68 C142.02 24.53, 132.49 16.31, 111.95 -0.75 M155.33 31.66 C141.75 20.44, 129.99 11.94, 119.86 0.82 M155.33 31.66 C142.55 20.29, 131.33 9.48, 119.86 0.82 M157.2 27.98 C149.48 23.1, 144.84 17.91, 135.32 8.96 M157.2 27.98 C150.59 22.9, 144.99 18.6, 135.32 8.96 M159.07 24.31 C158.02 22.82, 155.66 19.37, 150.02 16.43 M159.07 24.31 C156.19 20.91, 152.35 18.4, 150.02 16.43" stroke="#b2f2bb" stroke-width="0.5" fill="none"></path><path d="M0 0 C-14.11 26.3, -29.48 52.37, -48.38 82.13 M0 0 C-18.18 28.19, -35.49 58.78, -48.38 82.13 M-48.38 82.13 C-38.5 80.53, -28.18 82.45, -6.58 83.7 M-48.38 82.13 C-32.17 82.19, -18.09 83.43, -6.58 83.7 M-6.58 83.7 C-7.03 85.78, -5.04 88.86, -3.27 96.88 M-6.58 83.7 C-5.94 87.3, -4.75 90.89, -3.27 96.88 M-3.27 96.88 C-8.97 106.64, -11.18 114.47, -22.3 131.64 M-3.27 96.88 C-7.49 105.06, -14.02 114.61, -22.3 131.64 M-22.3 131.64 C13.09 133.58, 48.66 130.71, 94.63 131.28 M-22.3 131.64 C24.3 129.85, 71.81 131.2, 94.63 131.28 M94.63 131.28 C118.42 92.81, 143.36 51.75, 160.67 22.28 M94.63 131.28 C119.26 91.92, 141.51 54.23, 160.67 22.28 M160.67 22.28 C150.63 18.74, 140.04 11.7, 116.13 -0.71 M160.67 22.28 C151.14 16.24, 141.23 12.74, 116.13 -0.71 M116.13 -0.71 C81.79 0.45, 42.66 0.31, 0 0 M116.13 -0.71 C89.79 -1.36, 62.96 -1.02, 0 0 M0 0 C0 0, 0 0, 0 0 M0 0 C0 0, 0 0, 0 0" stroke="#e03131" stroke-width="1" fill="none"></path></g></g><mask></mask><g stroke-linecap="round"><g transform="translate(226.0516138338687 359.4288861994569) rotate(0 40.57632618346901 30.835531579058284)" fill-rule="evenodd"><path d="M0 0 C0 0, 0 0, 0 0 M0 0 C0 0, 0 0, 0 0 M2.36 3.38 C2.87 2.69, 3.35 1.68, 4.99 0.36 M2.36 3.38 C3.19 2.47, 3.77 1.8, 4.99 0.36 M4.07 7.51 C6.61 4.72, 7.54 2.45, 10.63 -0.03 M4.07 7.51 C5.65 5.35, 8.36 3.03, 10.63 -0.03 M6.43 10.89 C9.58 8.08, 13.02 5.33, 15.62 0.33 M6.43 10.89 C8.92 7.14, 12.09 3.99, 15.62 0.33 M8.14 15.03 C13.39 10.74, 17.85 5.79, 21.26 -0.07 M8.14 15.03 C12.64 9.71, 16.74 4.88, 21.26 -0.07 M10.5 18.4 C15.92 12.36, 22.7 3.04, 26.25 0.29 M10.5 18.4 C15.82 12.65, 19.78 8.62, 26.25 0.29 M12.21 22.54 C17.64 18.48, 22.84 10.12, 31.89 -0.1 M12.21 22.54 C17.03 15.88, 23.27 10.57, 31.89 -0.1 M14.57 25.92 C19.5 18.05, 25.15 11.82, 36.88 0.26 M14.57 25.92 C19.64 20.5, 25.08 13.94, 36.88 0.26 M16.28 30.05 C25.11 20.25, 34.45 11.84, 42.52 -0.14 M16.28 30.05 C23.83 21.95, 28.7 14.61, 42.52 -0.14 M18.64 33.43 C27.65 22.29, 34.77 13.68, 47.51 0.22 M18.64 33.43 C30.78 21.47, 40.95 7.3, 47.51 0.22 M20.35 37.56 C30.7 27.54, 39.23 15.98, 53.15 -0.17 M20.35 37.56 C31.13 24.45, 41.84 12.28, 53.15 -0.17 M22.71 40.94 C32.16 26.01, 44.22 13.14, 58.14 0.19 M22.71 40.94 C37.16 25.94, 50.16 9.45, 58.14 0.19 M24.42 45.08 C35.23 29.92, 47.17 18.83, 63.78 -0.21 M24.42 45.08 C36.92 29.7, 50.13 15.21, 63.78 -0.21 M26.78 48.45 C39.3 30.15, 53.85 17.54, 68.77 0.15 M26.78 48.45 C42.13 31.83, 57.59 14.26, 68.77 0.15 M28.49 52.59 C43.7 33.45, 60.96 16.74, 74.41 -0.24 M28.49 52.59 C42.52 38.91, 53.83 23.54, 74.41 -0.24 M30.85 55.97 C43.35 40.17, 54.83 28.19, 79.4 0.12 M30.85 55.97 C43.61 43.45, 53.87 29.85, 79.4 0.12 M32.56 60.1 C45.63 43.74, 60.16 30.58, 83.07 1.99 M32.56 60.1 C49.65 39.34, 69.25 18.62, 83.07 1.99 M35.57 62.73 C52.91 47.61, 64.76 26.75, 82.81 8.39 M35.57 62.73 C46.36 50.46, 58.6 37.6, 82.81 8.39 M40.56 63.09 C52.51 48.93, 64.19 35.88, 83.21 14.03 M40.56 63.09 C49 53.02, 58.93 43.48, 83.21 14.03 M46.2 62.69 C56.68 50.13, 68.57 36.42, 82.94 20.43 M46.2 62.69 C60.47 46.75, 75.34 29.81, 82.94 20.43 M51.19 63.05 C57.6 53.29, 67.85 44.44, 82.68 26.82 M51.19 63.05 C59.03 54.65, 64.37 48.45, 82.68 26.82 M56.84 62.66 C64.88 54.63, 70.59 49.24, 83.08 32.47 M56.84 62.66 C62.97 56.01, 69.12 48.35, 83.08 32.47 M61.82 63.02 C66.01 55.18, 71.01 51.07, 82.82 38.87 M61.82 63.02 C66.57 58.01, 71.96 52.68, 82.82 38.87 M67.47 62.62 C73.08 57.5, 75.89 52.19, 83.21 44.51 M67.47 62.62 C71.29 58.14, 74.45 53.15, 83.21 44.51 M72.45 62.98 C73.69 61.02, 79.5 56.48, 82.95 50.91 M72.45 62.98 C76.65 58.44, 81.11 52.87, 82.95 50.91 M78.1 62.59 C79.3 59.86, 81.86 57.83, 82.69 57.3 M78.1 62.59 C79.68 60.79, 80.84 59.47, 82.69 57.3 M33 61.11 C33 61.11, 33 61.11, 33 61.11 M33 61.11 C33 61.11, 33 61.11, 33 61.11 M39.4 61.37 C36.99 58.46, 33.94 58.58, 28.08 51.53 M39.4 61.37 C37.39 59.6, 34.04 56.41, 28.08 51.53 M45.04 60.98 C39.29 54.17, 32.46 49.46, 22.4 41.3 M45.04 60.98 C40.14 56, 34.41 50.69, 22.4 41.3 M51.44 61.24 C38.43 48.75, 25.85 36.71, 16.73 31.06 M51.44 61.24 C37.07 49.28, 23.9 37.57, 16.73 31.06 M57.84 61.5 C43.96 48.69, 27.61 35.19, 11.8 21.48 M57.84 61.5 C41.38 47.43, 26.62 35.32, 11.8 21.48 M63.48 61.11 C42.26 41.58, 17.47 23.94, 6.13 11.24 M63.48 61.11 C46.41 46.1, 30.3 32.1, 6.13 11.24 M69.88 61.37 C48.37 40.76, 22.27 21.3, 0.45 1.01 M69.88 61.37 C52.73 46.15, 35.02 32.02, 0.45 1.01 M75.52 60.97 C59.59 46.56, 48.04 35.23, 4.58 -0.7 M75.52 60.97 C55.55 44.45, 35.6 28.26, 4.58 -0.7 M81.17 60.58 C67.53 47.36, 50.95 33.63, 10.98 -0.44 M81.17 60.58 C53.28 35.37, 27.24 13.06, 10.98 -0.44 M80.77 54.93 C60.27 38.35, 41.1 22.63, 17.38 -0.17 M80.77 54.93 C63.94 41, 48.54 25.05, 17.38 -0.17 M81.13 49.95 C60.19 32.38, 42.54 14.75, 23.02 -0.57 M81.13 49.95 C68.97 38.08, 55.33 26.38, 23.02 -0.57 M80.74 44.3 C66.13 29.97, 53.1 17, 29.42 -0.31 M80.74 44.3 C67.86 32.86, 54.97 22.57, 29.42 -0.31 M81.1 39.32 C65.41 24.05, 49.63 10.7, 35.06 -0.7 M81.1 39.32 C65.38 25.88, 50.78 13.08, 35.06 -0.7 M81.46 34.33 C66.43 21.33, 49.79 4.76, 41.46 -0.44 M81.46 34.33 C71.78 25.64, 64.17 19.02, 41.46 -0.44 M81.06 28.69 C69.59 21.3, 60.6 12.13, 47.86 -0.18 M81.06 28.69 C72 20.81, 61.83 12.14, 47.86 -0.18 M81.42 23.7 C76.36 15.9, 69.54 12.46, 53.5 -0.57 M81.42 23.7 C74.38 18.37, 68.75 12.34, 53.5 -0.57 M81.03 18.06 C77.24 13.07, 67.92 7.8, 59.9 -0.31 M81.03 18.06 C74.56 13.42, 70.1 9.3, 59.9 -0.31 M81.39 13.07 C79.13 9.58, 72.33 7.04, 65.54 -0.71 M81.39 13.07 C76.1 7.89, 72.04 3.88, 65.54 -0.71 M80.99 7.43 C78.6 6.54, 77.37 2.91, 71.94 -0.45 M80.99 7.43 C77.4 4.58, 73.47 0.65, 71.94 -0.45 M81.35 2.44 C80.85 1.43, 80.18 0.79, 78.34 -0.18 M81.35 2.44 C80.08 1.26, 78.98 0.41, 78.34 -0.18" stroke="#b2f2bb" stroke-width="0.5" fill="none"></path><path d="M0 0 C23.98 1.25, 49.51 2.05, 80.53 -0.04 M0 0 C21.99 1.06, 41.94 -0.2, 80.53 -0.04 M80.53 -0.04 C78.16 24.95, 80.53 49.43, 80.42 61.2 M80.53 -0.04 C81.37 17.91, 81.39 35.6, 80.42 61.2 M80.42 61.2 C68.54 62.21, 58.94 61.47, 33.27 61.34 M80.42 61.2 C63.84 61.91, 47.49 61.02, 33.27 61.34 M33.27 61.34 C26.49 45.28, 16.22 32.24, 0 0 M33.27 61.34 C26 46.31, 17.6 32.9, 0 0 M0 0 C0 0, 0 0, 0 0 M0 0 C0 0, 0 0, 0 0" stroke="#e03131" stroke-width="1" fill="none"></path></g></g><mask></mask><g stroke-linecap="round"><g transform="translate(307.77261289751607 394.7038255718387) rotate(0 24.01616154707898 12.415886249753953)" fill-rule="evenodd"><path d="M0 0 C0 0, 0 0, 0 0 M0 0 C0 0, 0 0, 0 0 M-0.26 6.4 C1.42 5.23, 1.9 3.81, 6.3 -1.15 M-0.26 6.4 C2.37 3.52, 4.9 0.54, 6.3 -1.15 M-0.52 12.8 C4.45 7.14, 7.05 2.37, 11.29 -0.79 M-0.52 12.8 C3.43 7.94, 7.56 3.54, 11.29 -0.79 M-0.13 18.44 C2.62 14.24, 7.85 9.66, 12.34 4.1 M-0.13 18.44 C4.49 13.13, 9.2 7.75, 12.34 4.1 M-0.39 24.84 C3.32 18.97, 8.62 14.15, 12.08 10.5 M-0.39 24.84 C2.27 21, 5.65 18.09, 12.08 10.5 M3.94 25.95 C8.76 20.69, 13.06 16.17, 17.06 10.86 M3.94 25.95 C7.18 22.05, 11.54 17.98, 17.06 10.86 M8.93 26.31 C13.09 22.81, 16.31 18.82, 22.05 11.22 M8.93 26.31 C12.51 22.65, 15.2 18.66, 22.05 11.22 M14.57 25.92 C18.81 20.59, 23.09 18.04, 27.69 10.82 M14.57 25.92 C18.99 21.16, 23.03 15.67, 27.69 10.82 M19.56 26.28 C23.63 23.07, 26.94 19.19, 32.68 11.18 M19.56 26.28 C22.87 22.3, 26.02 18.55, 32.68 11.18 M25.2 25.88 C29.2 22.53, 31.77 18.26, 38.32 10.79 M25.2 25.88 C28.85 21.26, 32.71 16.83, 38.32 10.79 M30.19 26.24 C33.26 21.16, 37.51 16.21, 43.31 11.15 M30.19 26.24 C33.07 23.13, 36.57 19.25, 43.31 11.15 M35.83 25.85 C38.99 21.81, 42.8 17.7, 48.95 10.75 M35.83 25.85 C40.69 20.33, 44.42 15.22, 48.95 10.75 M40.82 26.21 C42.42 24.07, 44.02 22.11, 48.69 17.15 M40.82 26.21 C43.17 23.47, 45.56 20.5, 48.69 17.15 M46.46 25.81 C47.26 25.01, 47.89 24.08, 48.43 23.55 M46.46 25.81 C47 25.08, 47.65 24.48, 48.43 23.55 M-0.33 26.29 C-0.33 26.29, -0.33 26.29, -0.33 26.29 M-0.33 26.29 C-0.33 26.29, -0.33 26.29, -0.33 26.29 M5.31 25.9 C3.64 23.99, 1.45 22.71, -0.73 20.65 M5.31 25.9 C3.81 24.64, 2.4 23.11, -0.73 20.65 M11.71 26.16 C9.87 24.6, 5.8 22.05, -0.37 15.66 M11.71 26.16 C7.04 22.39, 2.86 18.25, -0.37 15.66 M18.11 26.42 C14.03 23.74, 10.72 18.76, -0.01 10.68 M18.11 26.42 C12.09 20.85, 6.47 16.18, -0.01 10.68 M23.75 26.03 C14.97 19.61, 6.88 12.77, -0.4 5.03 M23.75 26.03 C18.3 21.4, 13.49 16.98, -0.4 5.03 M30.15 26.29 C23.66 21.13, 17.9 16.56, 12.04 10.54 M30.15 26.29 C24.75 21.27, 19.93 16.54, 12.04 10.54 M9.77 8.58 C6.42 5.91, 3.49 3.89, -0.04 0.05 M9.77 8.58 C6.85 5.72, 3.53 3.27, -0.04 0.05 M35.79 25.89 C30.95 21.57, 27.15 18.4, 17.68 10.15 M35.79 25.89 C29.35 20.11, 21.56 13.88, 17.68 10.15 M11.64 4.9 C8.98 3.03, 6.79 0.93, 4.85 -1 M11.64 4.9 C10.37 3.53, 8.73 2.23, 4.85 -1 M42.19 26.16 C37.75 23.31, 34.75 19.43, 24.08 10.41 M42.19 26.16 C38.17 22.84, 33.37 18.86, 24.08 10.41 M10.49 -1.4 C10.22 -1.62, 10.06 -1.78, 9.74 -2.06 M10.49 -1.4 C10.32 -1.56, 10.17 -1.68, 9.74 -2.06 M47.83 25.76 C42.88 21.41, 38.47 18.4, 30.47 10.67 M47.83 25.76 C43.91 22.27, 40.09 18.84, 30.47 10.67 M48.19 20.77 C43.38 17.33, 39.01 12.94, 36.12 10.28 M48.19 20.77 C44.07 17.7, 40.51 13.8, 36.12 10.28 M48.55 15.79 C46.19 13.61, 43.87 11.7, 42.51 10.54 M48.55 15.79 C47.19 14.39, 45.31 13.05, 42.51 10.54" stroke="#ffc9c9" stroke-width="0.5" fill="none"></path><path d="M0 0 C3.15 -0.46, 7.24 -1.49, 10.62 -1.45 M0 0 C4.07 -0.76, 8.64 -0.93, 10.62 -1.45 M10.62 -1.45 C11.28 0.71, 11.25 2.33, 11.78 6.65 M10.62 -1.45 C10.76 0.5, 11.44 2.63, 11.78 6.65 M11.78 6.65 C10.88 7, 10.18 7.25, 9.21 7.77 M11.78 6.65 C10.99 6.98, 10.11 7.35, 9.21 7.77 M9.21 7.77 C9.43 8.57, 9.96 9.75, 10.06 10.32 M9.21 7.77 C9.36 8.44, 9.55 9.05, 10.06 10.32 M10.06 10.32 C23.39 10, 35.83 10.73, 48.48 10.72 M10.06 10.32 C18.73 10.62, 26.73 10.75, 48.48 10.72 M48.48 10.72 C48.19 17.11, 47.83 22.78, 47.74 26.07 M48.48 10.72 C47.88 15.69, 47.74 21.25, 47.74 26.07 M47.74 26.07 C34.08 26.71, 19.2 25.64, -0.45 26.19 M47.74 26.07 C29.43 25.67, 12.22 25.6, -0.45 26.19 M-0.45 26.19 C0.22 19.58, 0.4 14.06, 0 0 M-0.45 26.19 C-0.26 17.58, -0.13 9.18, 0 0 M0 0 C0 0, 0 0, 0 0 M0 0 C0 0, 0 0, 0 0" stroke="#e03131" stroke-width="1" fill="none"></path></g></g><mask></mask><g stroke-linecap="round"><g transform="translate(259.8503041651543 423.6501698322868) rotate(0 102.07378525759293 0.012146996894330186)"><path d="M0 0 C67.77 0.01, 135.53 0.02, 204.15 0.02 M0 0 C63.28 0.01, 126.56 0.02, 204.15 0.02" stroke="#f08c00" stroke-width="4" fill="none"></path></g></g><mask></mask></svg>