<svg version="1.1" xmlns="http://www.w3.org/2000/svg" viewBox="0 0 643.5766712645833 929.2253790253053" width="643.5766712645833" height="929.2253790253053">
  <!-- svg-source:excalidraw -->
  
  <defs>
    <style class="style-fonts">
      
    </style>
    
  </defs>
  <g stroke-linecap="round" transform="translate(46.775264931979336 310.1620219337856) rotate(60.32829000301168 30.563887432070203 26.11439993320755)"><path d="M0 0 C0 0, 0 0, 0 0 M0 0 C0 0, 0 0, 0 0 M-0.26 6.4 C0.83 5.15, 1.91 3.89, 4.99 0.36 M-0.26 6.4 C0.85 5.12, 1.96 3.84, 4.99 0.36 M0.13 12.04 C2.3 9.55, 4.47 7.05, 10.63 -0.03 M0.13 12.04 C3.09 8.64, 6.05 5.23, 10.63 -0.03 M-0.13 18.44 C5.76 11.66, 11.65 4.88, 15.62 0.33 M-0.13 18.44 C3.02 14.81, 6.18 11.19, 15.62 0.33 M0.27 24.08 C5.89 17.61, 11.52 11.14, 21.26 -0.07 M0.27 24.08 C7.66 15.57, 15.06 7.07, 21.26 -0.07 M0 30.48 C5.3 24.39, 10.59 18.3, 26.25 0.29 M0 30.48 C10.36 18.57, 20.71 6.66, 26.25 0.29 M-0.26 36.88 C11.55 23.3, 23.35 9.72, 31.89 -0.1 M-0.26 36.88 C12 22.77, 24.26 8.67, 31.89 -0.1 M0.14 42.52 C9.56 31.68, 18.98 20.85, 36.88 0.26 M0.14 42.52 C14.62 25.86, 29.11 9.19, 36.88 0.26 M-0.12 48.92 C16.2 30.14, 32.52 11.37, 42.52 -0.14 M-0.12 48.92 C11.37 35.7, 22.86 22.48, 42.52 -0.14 M1.58 53.05 C15.52 37.02, 29.45 21, 47.51 0.22 M1.58 53.05 C11.95 41.12, 22.32 29.2, 47.51 0.22 M7.23 52.66 C22.89 34.64, 38.56 16.61, 53.15 -0.17 M7.23 52.66 C25.29 31.88, 43.35 11.1, 53.15 -0.17 M12.21 53.02 C21.68 42.13, 31.14 31.24, 58.14 0.19 M12.21 53.02 C23.3 40.27, 34.38 27.51, 58.14 0.19 M17.86 52.62 C31.82 36.56, 45.78 20.5, 61.81 2.06 M17.86 52.62 C31.32 37.13, 44.79 21.64, 61.81 2.06 M22.84 52.98 C31.6 42.9, 40.36 32.83, 61.55 8.45 M22.84 52.98 C31.37 43.17, 39.9 33.37, 61.55 8.45 M28.49 52.59 C39.72 39.66, 50.96 26.74, 61.95 14.1 M28.49 52.59 C36.47 43.41, 44.45 34.23, 61.95 14.1 M33.47 52.95 C42.63 42.42, 51.78 31.89, 61.68 20.5 M33.47 52.95 C41.04 44.25, 48.6 35.55, 61.68 20.5 M39.12 52.55 C45.26 45.48, 51.41 38.41, 62.08 26.14 M39.12 52.55 C48.21 42.09, 57.31 31.63, 62.08 26.14 M44.1 52.91 C48.7 47.63, 53.29 42.34, 61.82 32.54 M44.1 52.91 C49.72 46.45, 55.34 39.99, 61.82 32.54 M49.75 52.52 C53.69 47.98, 57.63 43.45, 61.56 38.93 M49.75 52.52 C52.84 48.96, 55.94 45.39, 61.56 38.93 M54.73 52.88 C56.81 50.49, 58.89 48.1, 61.95 44.58 M54.73 52.88 C56.37 51, 58 49.12, 61.95 44.58 M60.38 52.48 C60.64 52.18, 60.91 51.87, 61.69 50.98 M60.38 52.48 C60.77 52.04, 61.16 51.59, 61.69 50.98 M-0.2 52.05 C-0.2 52.05, -0.2 52.05, -0.2 52.05 M-0.2 52.05 C-0.2 52.05, -0.2 52.05, -0.2 52.05 M6.2 52.32 C4.43 50.78, 2.66 49.24, 0.16 47.07 M6.2 52.32 C4.78 51.08, 3.36 49.85, 0.16 47.07 M11.84 51.92 C7.64 48.27, 3.43 44.61, -0.23 41.42 M11.84 51.92 C8.31 48.85, 4.77 45.78, -0.23 41.42 M18.24 52.18 C13.37 47.95, 8.49 43.71, 0.13 36.44 M18.24 52.18 C11.16 46.03, 4.08 39.87, 0.13 36.44 M24.64 52.44 C17.51 46.25, 10.39 40.06, -0.27 30.79 M24.64 52.44 C17.15 45.94, 9.67 39.43, -0.27 30.79 M30.28 52.05 C19.85 42.98, 9.41 33.91, 0.09 25.81 M30.28 52.05 C19.62 42.79, 8.97 33.53, 0.09 25.81 M36.68 52.31 C24.43 41.67, 12.19 31.02, -0.3 20.16 M36.68 52.31 C26.73 43.66, 16.77 35.01, -0.3 20.16 M42.32 51.92 C26.03 37.76, 9.74 23.6, 0.06 15.18 M42.32 51.92 C30.19 41.37, 18.05 30.82, 0.06 15.18 M48.72 52.18 C32.4 38, 16.09 23.81, -0.34 9.53 M48.72 52.18 C29.57 35.53, 10.43 18.89, -0.34 9.53 M55.12 52.44 C33.1 33.3, 11.09 14.17, 0.02 4.55 M55.12 52.44 C42.13 41.15, 29.14 29.86, 0.02 4.55 M60.76 52.05 C46.37 39.54, 31.98 27.03, 0.38 -0.44 M60.76 52.05 C37.68 31.99, 14.61 11.93, 0.38 -0.44 M61.87 47.71 C48.24 35.86, 34.6 24.01, 6.78 -0.18 M61.87 47.71 C49.86 37.27, 37.85 26.83, 6.78 -0.18 M61.48 42.07 C42.12 25.24, 22.77 8.42, 12.42 -0.57 M61.48 42.07 C42.37 25.46, 23.26 8.84, 12.42 -0.57 M61.84 37.08 C47.33 24.47, 32.82 11.85, 18.82 -0.31 M61.84 37.08 C47.67 24.77, 33.51 12.45, 18.82 -0.31 M61.44 31.44 C52.34 23.53, 43.24 15.62, 24.46 -0.71 M61.44 31.44 C50.95 22.32, 40.46 13.2, 24.46 -0.71 M61.8 26.45 C51.74 17.7, 41.67 8.95, 30.86 -0.44 M61.8 26.45 C54.32 19.95, 46.84 13.45, 30.86 -0.44 M61.41 20.81 C55.71 15.86, 50.01 10.9, 37.26 -0.18 M61.41 20.81 C52.65 13.2, 43.89 5.59, 37.26 -0.18 M61.77 15.82 C57.68 12.27, 53.6 8.72, 42.9 -0.58 M61.77 15.82 C56.03 10.84, 50.3 5.85, 42.9 -0.58 M61.38 10.18 C57.68 6.97, 53.99 3.76, 49.3 -0.32 M61.38 10.18 C58.35 7.55, 55.32 4.92, 49.3 -0.32 M61.74 5.19 C59.94 3.63, 58.15 2.07, 54.94 -0.71 M61.74 5.19 C60.1 3.77, 58.46 2.34, 54.94 -0.71" stroke="#b2f2bb" stroke-width="0.5" fill="none"></path><path d="M0 0 C24.03 0, 48.06 0, 61.13 0 M0 0 C16.52 0, 33.04 0, 61.13 0 M61.13 0 C61.13 19.92, 61.13 39.84, 61.13 52.23 M61.13 0 C61.13 20.33, 61.13 40.67, 61.13 52.23 M61.13 52.23 C47.29 52.23, 33.46 52.23, 0 52.23 M61.13 52.23 C36.69 52.23, 12.25 52.23, 0 52.23 M0 52.23 C0 40.06, 0 27.9, 0 0 M0 52.23 C0 33.57, 0 14.92, 0 0" stroke="#e03131" stroke-width="1" fill="none"></path></g><g stroke-linecap="round" transform="translate(104.53170946138516 328.6545794313188) rotate(60.32829000301168 32.91769313284453 9.819962813167422)"><path d="M0 0 C0 0, 0 0, 0 0 M0 0 C0 0, 0 0, 0 0 M-0.26 6.4 C1.64 4.21, 3.55 2.02, 4.99 0.36 M-0.26 6.4 C0.88 5.08, 2.02 3.77, 4.99 0.36 M0.13 12.04 C3.98 7.61, 7.83 3.19, 10.63 -0.03 M0.13 12.04 C3.28 8.42, 6.43 4.8, 10.63 -0.03 M-0.13 18.44 C6.13 11.23, 12.4 4.03, 15.62 0.33 M-0.13 18.44 C5.54 11.92, 11.2 5.4, 15.62 0.33 M4.2 19.55 C10.74 12.03, 17.28 4.5, 21.26 -0.07 M4.2 19.55 C9.78 13.13, 15.36 6.71, 21.26 -0.07 M9.19 19.91 C13.98 14.4, 18.78 8.88, 26.25 0.29 M9.19 19.91 C14.31 14.02, 19.44 8.12, 26.25 0.29 M14.83 19.52 C20.05 13.52, 25.26 7.52, 31.89 -0.1 M14.83 19.52 C19.42 14.24, 24 8.97, 31.89 -0.1 M19.82 19.88 C24.23 14.81, 28.63 9.74, 36.88 0.26 M19.82 19.88 C25.51 13.33, 31.21 6.78, 36.88 0.26 M25.46 19.48 C31.51 12.53, 37.56 5.57, 42.52 -0.14 M25.46 19.48 C29.41 14.94, 33.36 10.41, 42.52 -0.14 M30.45 19.84 C36.45 12.95, 42.44 6.05, 47.51 0.22 M30.45 19.84 C36.48 12.91, 42.5 5.98, 47.51 0.22 M36.09 19.45 C42.54 12.04, 48.98 4.62, 53.15 -0.17 M36.09 19.45 C40.69 14.16, 45.29 8.87, 53.15 -0.17 M41.08 19.81 C45.51 14.72, 49.93 9.63, 58.14 0.19 M41.08 19.81 C47.06 12.93, 53.03 6.06, 58.14 0.19 M46.72 19.42 C52.69 12.55, 58.66 5.68, 63.78 -0.21 M46.72 19.42 C51.62 13.78, 56.52 8.15, 63.78 -0.21 M51.71 19.78 C55.42 15.5, 59.14 11.23, 66.14 3.17 M51.71 19.78 C56.26 14.54, 60.81 9.31, 66.14 3.17 M57.35 19.38 C59.68 16.71, 62 14.04, 65.88 9.57 M57.35 19.38 C60.21 16.09, 63.07 12.8, 65.88 9.57 M62.34 19.74 C63.51 18.4, 64.68 17.05, 66.28 15.21 M62.34 19.74 C63.66 18.22, 64.98 16.7, 66.28 15.21 M0.09 19.72 C0.09 19.72, 0.09 19.72, 0.09 19.72 M0.09 19.72 C0.09 19.72, 0.09 19.72, 0.09 19.72 M5.73 19.32 C3.88 17.71, 2.03 16.11, -0.31 14.07 M5.73 19.32 C3.92 17.75, 2.11 16.18, -0.31 14.07 M12.13 19.58 C8.46 16.4, 4.8 13.21, 0.05 9.09 M12.13 19.58 C8.83 16.71, 5.53 13.85, 0.05 9.09 M18.53 19.84 C13.04 15.08, 7.56 10.31, -0.34 3.44 M18.53 19.84 C11.13 13.42, 3.74 6.99, -0.34 3.44 M24.17 19.45 C18.57 14.59, 12.98 9.72, 1.53 -0.23 M24.17 19.45 C17.18 13.38, 10.19 7.3, 1.53 -0.23 M30.57 19.71 C25.33 15.16, 20.09 10.6, 7.93 0.03 M30.57 19.71 C21.6 11.92, 12.64 4.13, 7.93 0.03 M36.21 19.32 C31.45 15.18, 26.68 11.03, 13.57 -0.37 M36.21 19.32 C30.18 14.08, 24.16 8.84, 13.57 -0.37 M42.61 19.58 C33.85 11.97, 25.1 4.36, 19.97 -0.1 M42.61 19.58 C33.68 11.82, 24.75 4.06, 19.97 -0.1 M49 19.84 C43.86 15.37, 38.72 10.9, 26.36 0.16 M49 19.84 C43.58 15.12, 38.15 10.41, 26.36 0.16 M54.65 19.44 C45.8 11.75, 36.95 4.06, 32.01 -0.24 M54.65 19.44 C48.59 14.18, 42.53 8.91, 32.01 -0.24 M61.05 19.71 C52.95 12.67, 44.86 5.63, 38.4 0.02 M61.05 19.71 C54.9 14.36, 48.75 9.02, 38.4 0.02 M66.69 19.31 C58.65 12.32, 50.6 5.33, 44.05 -0.37 M66.69 19.31 C57.75 11.54, 48.81 3.77, 44.05 -0.37 M66.29 13.67 C60.13 8.31, 53.97 2.96, 50.45 -0.11 M66.29 13.67 C62.29 10.19, 58.28 6.71, 50.45 -0.11 M66.65 8.68 C63.05 5.55, 59.44 2.41, 56.84 0.15 M66.65 8.68 C63.18 5.66, 59.71 2.65, 56.84 0.15 M66.26 3.04 C65 1.94, 63.74 0.85, 62.49 -0.24 M66.26 3.04 C65.42 2.31, 64.58 1.58, 62.49 -0.24" stroke="#b2f2bb" stroke-width="0.5" fill="none"></path><path d="M0 0 C15.36 0, 30.72 0, 65.84 0 M0 0 C24.22 0, 48.44 0, 65.84 0 M65.84 0 C65.84 6.65, 65.84 13.3, 65.84 19.64 M65.84 0 C65.84 6.7, 65.84 13.39, 65.84 19.64 M65.84 19.64 C46.32 19.64, 26.8 19.64, 0 19.64 M65.84 19.64 C45.71 19.64, 25.58 19.64, 0 19.64 M0 19.64 C0 15.57, 0 11.5, 0 0 M0 19.64 C0 14.2, 0 8.75, 0 0" stroke="#e03131" stroke-width="1" fill="none"></path></g><g stroke-linecap="round" transform="translate(141.35875588578926 383.1308962607991) rotate(60.32829000301168 28.120060197292105 10.072660586188704)"><path d="M0 0 C0 0, 0 0, 0 0 M0 0 C0 0, 0 0, 0 0 M-0.26 6.4 C1.36 4.54, 2.98 2.67, 4.99 0.36 M-0.26 6.4 C1.31 4.59, 2.88 2.79, 4.99 0.36 M0.13 12.04 C2.59 9.21, 5.05 6.39, 10.63 -0.03 M0.13 12.04 C3.76 7.87, 7.38 3.71, 10.63 -0.03 M-0.13 18.44 C4.23 13.43, 8.58 8.42, 15.62 0.33 M-0.13 18.44 C4.48 13.14, 9.08 7.84, 15.62 0.33 M3.55 20.31 C9.38 13.6, 15.21 6.9, 21.26 -0.07 M3.55 20.31 C8.9 14.15, 14.26 7.98, 21.26 -0.07 M8.53 20.67 C12.85 15.7, 17.17 10.74, 26.25 0.29 M8.53 20.67 C14.8 13.46, 21.07 6.25, 26.25 0.29 M13.52 21.03 C18.18 15.67, 22.84 10.31, 31.89 -0.1 M13.52 21.03 C18.49 15.31, 23.46 9.59, 31.89 -0.1 M19.16 20.63 C24.4 14.61, 29.63 8.59, 36.88 0.26 M19.16 20.63 C23.6 15.53, 28.04 10.43, 36.88 0.26 M24.15 20.99 C28.38 16.12, 32.62 11.25, 42.52 -0.14 M24.15 20.99 C29.53 14.81, 34.9 8.63, 42.52 -0.14 M29.79 20.6 C36.29 13.13, 42.79 5.65, 47.51 0.22 M29.79 20.6 C35.57 13.95, 41.35 7.3, 47.51 0.22 M34.78 20.96 C39.94 15.02, 45.1 9.09, 53.15 -0.17 M34.78 20.96 C39.16 15.92, 43.54 10.88, 53.15 -0.17 M40.42 20.56 C46.01 14.14, 51.59 7.72, 56.83 1.7 M40.42 20.56 C43.74 16.75, 47.05 12.94, 56.83 1.7 M45.41 20.92 C49.03 16.76, 52.65 12.59, 56.56 8.09 M45.41 20.92 C48.8 17.02, 52.2 13.12, 56.56 8.09 M51.05 20.53 C53.11 18.17, 55.16 15.81, 56.96 13.74 M51.05 20.53 C52.67 18.67, 54.3 16.8, 56.96 13.74 M-0.16 20 C-0.16 20, -0.16 20, -0.16 20 M-0.16 20 C-0.16 20, -0.16 20, -0.16 20 M6.23 20.26 C4.61 18.85, 2.99 17.44, 0.2 15.02 M6.23 20.26 C4.92 19.12, 3.61 17.98, 0.2 15.02 M11.88 19.87 C7.49 16.06, 3.11 12.25, -0.2 9.37 M11.88 19.87 C9.3 17.63, 6.72 15.38, -0.2 9.37 M18.28 20.13 C14.07 16.48, 9.87 12.83, 0.16 4.39 M18.28 20.13 C13.18 15.7, 8.09 11.27, 0.16 4.39 M24.67 20.39 C15.27 12.22, 5.87 4.05, 0.52 -0.6 M24.67 20.39 C15.43 12.35, 6.18 4.31, 0.52 -0.6 M30.32 20 C22.98 13.62, 15.64 7.24, 6.92 -0.34 M30.32 20 C21.13 12.02, 11.95 4.03, 6.92 -0.34 M36.71 20.26 C30.15 14.55, 23.58 8.85, 12.56 -0.73 M36.71 20.26 C28.91 13.48, 21.11 6.7, 12.56 -0.73 M42.36 19.87 C36.76 15, 31.16 10.13, 18.96 -0.47 M42.36 19.87 C36.4 14.69, 30.44 9.51, 18.96 -0.47 M48.75 20.13 C40.96 13.35, 33.16 6.57, 24.6 -0.87 M48.75 20.13 C39.98 12.5, 31.21 4.88, 24.6 -0.87 M55.15 20.39 C48.33 14.46, 41.51 8.53, 31 -0.61 M55.15 20.39 C49.17 15.19, 43.19 9.99, 31 -0.61 M56.27 16.06 C49.61 10.27, 42.96 4.49, 37.4 -0.34 M56.27 16.06 C49.49 10.17, 42.72 4.28, 37.4 -0.34 M56.63 11.07 C51.67 6.76, 46.71 2.45, 43.04 -0.74 M56.63 11.07 C52.17 7.2, 47.72 3.33, 43.04 -0.74 M56.23 5.43 C53.72 3.24, 51.21 1.06, 49.44 -0.48 M56.23 5.43 C53.57 3.11, 50.9 0.79, 49.44 -0.48 M56.59 0.44 C56.05 -0.03, 55.51 -0.5, 55.08 -0.87 M56.59 0.44 C56.1 0.01, 55.6 -0.42, 55.08 -0.87" stroke="#b2f2bb" stroke-width="0.5" fill="none"></path><path d="M0 0 C21.05 0, 42.1 0, 56.24 0 M0 0 C11.47 0, 22.93 0, 56.24 0 M56.24 0 C56.24 5.36, 56.24 10.72, 56.24 20.15 M56.24 0 C56.24 6.62, 56.24 13.24, 56.24 20.15 M56.24 20.15 C43.11 20.15, 29.99 20.15, 0 20.15 M56.24 20.15 C43.72 20.15, 31.21 20.15, 0 20.15 M0 20.15 C0 16.09, 0 12.04, 0 0 M0 20.15 C0 14.46, 0 8.77, 0 0" stroke="#e03131" stroke-width="1" fill="none"></path></g><g stroke-linecap="round" transform="translate(75.87998408527733 368.62014535629714) rotate(60.32829000301168 30.59098221073674 27.38115792366125)"><path d="M0 0 C0 0, 0 0, 0 0 M0 0 C0 0, 0 0, 0 0 M-0.26 6.4 C1.23 4.68, 2.73 2.96, 4.99 0.36 M-0.26 6.4 C1.46 4.41, 3.19 2.43, 4.99 0.36 M0.13 12.04 C2.63 9.16, 5.13 6.29, 10.63 -0.03 M0.13 12.04 C2.82 8.95, 5.51 5.85, 10.63 -0.03 M-0.13 18.44 C4.19 13.47, 8.51 8.51, 15.62 0.33 M-0.13 18.44 C5.74 11.69, 11.61 4.94, 15.62 0.33 M0.27 24.08 C6.41 17.01, 12.56 9.94, 21.26 -0.07 M0.27 24.08 C8.52 14.59, 16.77 5.1, 21.26 -0.07 M0 30.48 C6.73 22.74, 13.46 15, 26.25 0.29 M0 30.48 C7.79 21.52, 15.57 12.57, 26.25 0.29 M-0.26 36.88 C9.77 25.35, 19.79 13.82, 31.89 -0.1 M-0.26 36.88 C7.95 27.44, 16.15 18, 31.89 -0.1 M0.14 42.52 C7.92 33.57, 15.71 24.61, 36.88 0.26 M0.14 42.52 C9.72 31.49, 19.31 20.47, 36.88 0.26 M-0.12 48.92 C10.01 37.26, 20.14 25.61, 42.52 -0.14 M-0.12 48.92 C10.72 36.45, 21.56 23.98, 42.52 -0.14 M0.27 54.56 C10.65 42.62, 21.04 30.67, 47.51 0.22 M0.27 54.56 C16.92 35.41, 33.57 16.26, 47.51 0.22 M5.26 54.92 C17.76 40.54, 30.27 26.15, 53.15 -0.17 M5.26 54.92 C23.34 34.12, 41.43 13.31, 53.15 -0.17 M10.9 54.53 C27.8 35.09, 44.69 15.65, 58.14 0.19 M10.9 54.53 C24.35 39.05, 37.8 23.58, 58.14 0.19 M15.89 54.89 C30.65 37.91, 45.41 20.93, 61.81 2.06 M15.89 54.89 C29.2 39.58, 42.5 24.27, 61.81 2.06 M21.53 54.49 C29.59 45.22, 37.66 35.94, 61.55 8.45 M21.53 54.49 C33.45 40.78, 45.37 27.06, 61.55 8.45 M26.52 54.85 C33.83 46.45, 41.13 38.04, 61.95 14.1 M26.52 54.85 C34.72 45.42, 42.92 35.98, 61.95 14.1 M32.16 54.46 C41.77 43.4, 51.38 32.35, 61.68 20.5 M32.16 54.46 C39.79 45.68, 47.42 36.9, 61.68 20.5 M37.15 54.82 C43.43 47.6, 49.7 40.38, 62.08 26.14 M37.15 54.82 C45.13 45.63, 53.11 36.45, 62.08 26.14 M42.14 55.18 C46.12 50.59, 50.11 46, 61.82 32.54 M42.14 55.18 C49.22 47.03, 56.3 38.89, 61.82 32.54 M47.78 54.78 C51.12 50.94, 54.46 47.1, 61.56 38.93 M47.78 54.78 C51.22 50.82, 54.66 46.86, 61.56 38.93 M52.77 55.14 C55.56 51.93, 58.35 48.72, 61.95 44.58 M52.77 55.14 C54.8 52.8, 56.83 50.46, 61.95 44.58 M58.41 54.75 C59.43 53.57, 60.45 52.4, 61.69 50.98 M58.41 54.75 C59.69 53.27, 60.97 51.8, 61.69 50.98 M0.05 54.81 C0.05 54.81, 0.05 54.81, 0.05 54.81 M0.05 54.81 C0.05 54.81, 0.05 54.81, 0.05 54.81 M6.45 55.07 C4.82 53.66, 3.2 52.24, -0.34 49.17 M6.45 55.07 C4.48 53.35, 2.5 51.64, -0.34 49.17 M12.1 54.68 C8.99 51.97, 5.87 49.27, 0.02 44.18 M12.1 54.68 C9.23 52.18, 6.35 49.69, 0.02 44.18 M18.49 54.94 C11.75 49.07, 5 43.21, -0.37 38.54 M18.49 54.94 C11.46 48.82, 4.43 42.71, -0.37 38.54 M24.14 54.54 C15.82 47.32, 7.51 40.09, -0.01 33.55 M24.14 54.54 C17.74 48.99, 11.35 43.43, -0.01 33.55 M30.53 54.81 C23.19 48.42, 15.85 42.04, 0.35 28.56 M30.53 54.81 C23.37 48.58, 16.21 42.36, 0.35 28.56 M36.93 55.07 C24.93 44.63, 12.92 34.2, -0.05 22.92 M36.93 55.07 C22.26 42.31, 7.59 29.56, -0.05 22.92 M42.58 54.67 C33.13 46.47, 23.69 38.26, 0.31 17.93 M42.58 54.67 C27.32 41.41, 12.07 28.16, 0.31 17.93 M48.97 54.93 C31.2 39.49, 13.43 24.04, -0.08 12.29 M48.97 54.93 C34.93 42.72, 20.88 30.51, -0.08 12.29 M54.62 54.54 C39.77 41.64, 24.93 28.73, 0.28 7.3 M54.62 54.54 C33.04 35.78, 11.46 17.02, 0.28 7.3 M61.01 54.8 C47.62 43.16, 34.23 31.52, -0.12 1.66 M61.01 54.8 C48.01 43.5, 35.01 32.2, -0.12 1.66 M61.37 49.81 C43 33.84, 24.63 17.87, 3.26 -0.7 M61.37 49.81 C45.34 35.88, 29.31 21.94, 3.26 -0.7 M61.73 44.83 C43.23 28.74, 24.72 12.65, 9.66 -0.44 M61.73 44.83 C41.87 27.56, 22.01 10.29, 9.66 -0.44 M62.09 39.84 C47.16 26.85, 32.22 13.87, 16.06 -0.18 M62.09 39.84 C48.12 27.69, 34.14 15.54, 16.06 -0.18 M61.7 34.2 C52.5 26.2, 43.31 18.21, 21.7 -0.57 M61.7 34.2 C52.71 26.38, 43.72 18.56, 21.7 -0.57 M62.06 29.21 C54.64 22.76, 47.21 16.3, 28.1 -0.31 M62.06 29.21 C53.12 21.44, 44.17 13.66, 28.1 -0.31 M61.67 23.57 C50.5 13.86, 39.33 4.15, 33.74 -0.71 M61.67 23.57 C53.24 16.24, 44.82 8.92, 33.74 -0.71 M62.03 18.58 C53.99 11.59, 45.95 4.6, 40.14 -0.45 M62.03 18.58 C55.14 12.59, 48.25 6.61, 40.14 -0.45 M61.63 12.94 C58.3 10.04, 54.96 7.14, 46.54 -0.19 M61.63 12.94 C55.63 7.72, 49.63 2.51, 46.54 -0.19 M61.99 7.95 C59.16 5.49, 56.34 3.03, 52.18 -0.58 M61.99 7.95 C59.11 5.44, 56.23 2.94, 52.18 -0.58 M61.6 2.31 C60.55 1.4, 59.5 0.48, 58.58 -0.32 M61.6 2.31 C60.92 1.72, 60.24 1.13, 58.58 -0.32" stroke="#b2f2bb" stroke-width="0.5" fill="none"></path><path d="M0 0 C16.17 0, 32.35 0, 61.18 0 M0 0 C14.48 0, 28.96 0, 61.18 0 M61.18 0 C61.18 13.88, 61.18 27.77, 61.18 54.76 M61.18 0 C61.18 14.89, 61.18 29.79, 61.18 54.76 M61.18 54.76 C43.12 54.76, 25.05 54.76, 0 54.76 M61.18 54.76 C36.84 54.76, 12.49 54.76, 0 54.76 M0 54.76 C0 38.02, 0 21.28, 0 0 M0 54.76 C0 42.12, 0 29.47, 0 0" stroke="#e03131" stroke-width="1" fill="none"></path></g><g stroke-linecap="round" transform="translate(111.59632072879128 422.417487717672) rotate(60.32829000301168 28.13242328135709 24.85435840672926)"><path d="M0 0 C0 0, 0 0, 0 0 M0 0 C0 0, 0 0, 0 0 M-0.26 6.4 C1.11 4.82, 2.48 3.24, 4.99 0.36 M-0.26 6.4 C1.22 4.69, 2.71 2.98, 4.99 0.36 M0.13 12.04 C4.13 7.44, 8.13 2.84, 10.63 -0.03 M0.13 12.04 C2.72 9.06, 5.31 6.09, 10.63 -0.03 M-0.13 18.44 C3.32 14.47, 6.77 10.51, 15.62 0.33 M-0.13 18.44 C3.3 14.5, 6.72 10.56, 15.62 0.33 M0.27 24.08 C5.6 17.95, 10.94 11.81, 21.26 -0.07 M0.27 24.08 C7.48 15.79, 14.69 7.49, 21.26 -0.07 M0 30.48 C6.07 23.5, 12.14 16.52, 26.25 0.29 M0 30.48 C10.03 18.94, 20.06 7.41, 26.25 0.29 M-0.26 36.88 C12.04 22.74, 24.33 8.59, 31.89 -0.1 M-0.26 36.88 C10.39 24.63, 21.03 12.38, 31.89 -0.1 M0.14 42.52 C12.95 27.78, 25.77 13.04, 36.88 0.26 M0.14 42.52 C13.18 27.52, 26.22 12.51, 36.88 0.26 M-0.12 48.92 C8.53 38.96, 17.18 29.01, 42.52 -0.14 M-0.12 48.92 C8.99 38.43, 18.11 27.94, 42.52 -0.14 M4.21 50.03 C20.23 31.6, 36.26 13.16, 47.51 0.22 M4.21 50.03 C21.14 30.55, 38.08 11.07, 47.51 0.22 M9.85 49.64 C20.72 37.14, 31.58 24.64, 53.15 -0.17 M9.85 49.64 C23.8 33.59, 37.74 17.55, 53.15 -0.17 M14.84 50 C29.21 33.46, 43.59 16.93, 56.83 1.7 M14.84 50 C28.35 34.45, 41.86 18.91, 56.83 1.7 M20.48 49.6 C29.87 38.8, 39.26 28, 56.56 8.09 M20.48 49.6 C28.17 40.75, 35.87 31.9, 56.56 8.09 M25.47 49.96 C33.68 40.51, 41.9 31.06, 56.96 13.74 M25.47 49.96 C33.51 40.72, 41.54 31.47, 56.96 13.74 M30.45 50.32 C37.36 42.38, 44.26 34.44, 56.7 20.14 M30.45 50.32 C40.19 39.12, 49.93 27.92, 56.7 20.14 M36.1 49.93 C43.62 41.28, 51.13 32.63, 56.44 26.53 M36.1 49.93 C41.71 43.47, 47.32 37.02, 56.44 26.53 M41.08 50.29 C45.65 45.04, 50.21 39.79, 56.83 32.18 M41.08 50.29 C45.9 44.75, 50.72 39.21, 56.83 32.18 M46.73 49.89 C49.3 46.94, 51.87 43.98, 56.57 38.57 M46.73 49.89 C50.12 45.99, 53.52 42.08, 56.57 38.57 M51.71 50.26 C53.13 48.62, 54.55 46.99, 56.96 44.22 M51.71 50.26 C53.05 48.72, 54.39 47.18, 56.96 44.22 M0.29 49.96 C0.29 49.96, 0.29 49.96, 0.29 49.96 M0.29 49.96 C0.29 49.96, 0.29 49.96, 0.29 49.96 M5.94 49.57 C3.94 47.83, 1.94 46.1, -0.1 44.32 M5.94 49.57 C4.24 48.09, 2.54 46.62, -0.1 44.32 M12.33 49.83 C8.67 46.65, 5.01 43.46, 0.26 39.33 M12.33 49.83 C9.24 47.14, 6.14 44.45, 0.26 39.33 M17.98 49.44 C12.57 44.74, 7.17 40.04, -0.14 33.69 M17.98 49.44 C11.19 43.53, 4.39 37.63, -0.14 33.69 M24.37 49.7 C17.59 43.8, 10.8 37.9, 0.22 28.7 M24.37 49.7 C17.05 43.33, 9.72 36.96, 0.22 28.7 M30.77 49.96 C18.49 39.28, 6.21 28.6, -0.17 23.06 M30.77 49.96 C19.85 40.46, 8.92 30.97, -0.17 23.06 M36.42 49.56 C25.72 40.27, 15.03 30.97, 0.19 18.07 M36.42 49.56 C28.84 42.98, 21.26 36.39, 0.19 18.07 M42.81 49.83 C27.78 36.76, 12.75 23.69, -0.21 12.43 M42.81 49.83 C27.39 36.42, 11.97 23.01, -0.21 12.43 M48.46 49.43 C30.09 33.46, 11.72 17.49, 0.15 7.44 M48.46 49.43 C37.95 40.29, 27.43 31.16, 0.15 7.44 M54.85 49.69 C39.59 36.42, 24.33 23.16, -0.24 1.8 M54.85 49.69 C34.96 32.4, 15.07 15.11, -0.24 1.8 M55.97 45.36 C39.1 30.69, 22.22 16.03, 3.14 -0.56 M55.97 45.36 C42.8 33.91, 29.63 22.47, 3.14 -0.56 M56.33 40.37 C37.64 24.12, 18.94 7.87, 9.54 -0.3 M56.33 40.37 C44.3 29.92, 32.28 19.46, 9.54 -0.3 M56.69 35.39 C42.68 23.21, 28.66 11.02, 15.93 -0.04 M56.69 35.39 C48.49 28.26, 40.29 21.13, 15.93 -0.04 M56.29 29.74 C44.67 19.64, 33.04 9.53, 21.58 -0.43 M56.29 29.74 C43.47 18.6, 30.65 7.45, 21.58 -0.43 M56.65 24.76 C49.96 18.94, 43.26 13.11, 27.98 -0.17 M56.65 24.76 C49.57 18.59, 42.48 12.43, 27.98 -0.17 M56.26 19.11 C51.73 15.18, 47.2 11.24, 33.62 -0.57 M56.26 19.11 C48.39 12.28, 40.53 5.44, 33.62 -0.57 M56.62 14.13 C53.02 11, 49.42 7.87, 40.02 -0.31 M56.62 14.13 C51.02 9.26, 45.42 4.39, 40.02 -0.31 M56.23 8.48 C53.19 5.84, 50.15 3.2, 46.41 -0.04 M56.23 8.48 C53.6 6.21, 50.98 3.93, 46.41 -0.04 M56.59 3.5 C55.36 2.43, 54.14 1.37, 52.06 -0.44 M56.59 3.5 C55.23 2.32, 53.88 1.15, 52.06 -0.44" stroke="#b2f2bb" stroke-width="0.5" fill="none"></path><path d="M0 0 C16.97 0, 33.94 0, 56.26 0 M0 0 C14.49 0, 28.99 0, 56.26 0 M56.26 0 C56.26 12.6, 56.26 25.2, 56.26 49.71 M56.26 0 C56.26 18.54, 56.26 37.08, 56.26 49.71 M56.26 49.71 C36.82 49.71, 17.37 49.71, 0 49.71 M56.26 49.71 C37.06 49.71, 17.86 49.71, 0 49.71 M0 49.71 C0 31.94, 0 14.16, 0 0 M0 49.71 C0 30.99, 0 12.28, 0 0" stroke="#e03131" stroke-width="1" fill="none"></path></g><g stroke-linecap="round" transform="translate(140.5507755881157 472.9489082335813) rotate(60.32829000301168 29.8031299570265 24.323329346125774)"><path d="M0 0 C0 0, 0 0, 0 0 M0 0 C0 0, 0 0, 0 0 M-0.26 6.4 C0.85 5.12, 1.96 3.84, 4.99 0.36 M-0.26 6.4 C0.82 5.15, 1.91 3.9, 4.99 0.36 M0.13 12.04 C3.09 8.64, 6.05 5.23, 10.63 -0.03 M0.13 12.04 C4.06 7.52, 7.99 3, 10.63 -0.03 M-0.13 18.44 C3.02 14.81, 6.18 11.19, 15.62 0.33 M-0.13 18.44 C4.09 13.59, 8.31 8.73, 15.62 0.33 M0.27 24.08 C7.66 15.57, 15.06 7.07, 21.26 -0.07 M0.27 24.08 C4.5 19.21, 8.73 14.34, 21.26 -0.07 M0 30.48 C10.36 18.57, 20.71 6.66, 26.25 0.29 M0 30.48 C9.64 19.39, 19.28 8.31, 26.25 0.29 M-0.26 36.88 C12 22.77, 24.26 8.67, 31.89 -0.1 M-0.26 36.88 C7.99 27.4, 16.23 17.91, 31.89 -0.1 M0.14 42.52 C14.62 25.86, 29.11 9.19, 36.88 0.26 M0.14 42.52 C14.2 26.34, 28.26 10.17, 36.88 0.26 M-0.12 48.92 C11.37 35.7, 22.86 22.48, 42.52 -0.14 M-0.12 48.92 C12.81 34.03, 25.75 19.15, 42.52 -0.14 M5.52 48.52 C15 37.62, 24.48 26.71, 47.51 0.22 M5.52 48.52 C19.84 32.05, 34.17 15.57, 47.51 0.22 M10.51 48.88 C27.28 29.59, 44.05 10.29, 53.15 -0.17 M10.51 48.88 C19.29 38.77, 28.08 28.67, 53.15 -0.17 M16.15 48.49 C26.28 36.83, 36.42 25.17, 58.14 0.19 M16.15 48.49 C29.49 33.15, 42.82 17.81, 58.14 0.19 M21.14 48.85 C33 35.21, 44.86 21.56, 59.84 4.32 M21.14 48.85 C29.9 38.77, 38.66 28.69, 59.84 4.32 M26.78 48.45 C34.01 40.14, 41.23 31.83, 59.58 10.72 M26.78 48.45 C37.79 35.78, 48.81 23.11, 59.58 10.72 M31.77 48.81 C38.34 41.26, 44.91 33.7, 59.32 17.12 M31.77 48.81 C40.71 38.53, 49.65 28.24, 59.32 17.12 M37.41 48.42 C43.39 41.54, 49.37 34.66, 59.72 22.76 M37.41 48.42 C43.38 41.55, 49.35 34.68, 59.72 22.76 M42.4 48.78 C49.15 41.01, 55.91 33.23, 59.45 29.16 M42.4 48.78 C46.82 43.69, 51.24 38.6, 59.45 29.16 M48.04 48.39 C51.79 44.08, 55.53 39.77, 59.85 34.8 M48.04 48.39 C51.98 43.85, 55.92 39.31, 59.85 34.8 M53.03 48.75 C54.75 46.77, 56.47 44.79, 59.59 41.2 M53.03 48.75 C54.92 46.57, 56.81 44.4, 59.59 41.2 M58.67 48.35 C58.82 48.18, 58.97 48.01, 59.33 47.6 M58.67 48.35 C58.8 48.2, 58.94 48.04, 59.33 47.6 M0.06 48.7 C0.06 48.7, 0.06 48.7, 0.06 48.7 M0.06 48.7 C0.06 48.7, 0.06 48.7, 0.06 48.7 M6.46 48.96 C4.55 47.31, 2.65 45.65, -0.33 43.06 M6.46 48.96 C4.47 47.23, 2.48 45.5, -0.33 43.06 M12.1 48.57 C9.26 46.1, 6.42 43.63, 0.03 38.07 M12.1 48.57 C7.9 44.91, 3.7 41.26, 0.03 38.07 M18.5 48.83 C12.98 44.03, 7.46 39.23, -0.37 32.43 M18.5 48.83 C13.43 44.42, 8.35 40.01, -0.37 32.43 M24.15 48.44 C14.7 40.23, 5.26 32.02, 0 27.44 M24.15 48.44 C17.24 42.43, 10.33 36.42, 0 27.44 M30.54 48.7 C21.47 40.81, 12.4 32.93, 0.36 22.46 M30.54 48.7 C20.11 39.63, 9.68 30.56, 0.36 22.46 M36.94 48.96 C23.89 37.61, 10.84 26.27, -0.04 16.81 M36.94 48.96 C24.7 38.32, 12.45 27.67, -0.04 16.81 M42.58 48.56 C31.21 38.68, 19.84 28.79, 0.32 11.83 M42.58 48.56 C26.3 34.4, 10.01 20.24, 0.32 11.83 M48.98 48.83 C34.9 36.58, 20.82 24.34, -0.07 6.18 M48.98 48.83 C32.67 34.64, 16.35 20.46, -0.07 6.18 M54.63 48.43 C33.42 30, 12.21 11.56, 0.29 1.19 M54.63 48.43 C32.91 29.56, 11.2 10.69, 0.29 1.19 M60.27 48.04 C47.1 36.59, 33.93 25.14, 4.42 -0.51 M60.27 48.04 C46.96 36.47, 33.65 24.9, 4.42 -0.51 M59.87 42.39 C41.12 26.09, 22.37 9.8, 10.82 -0.25 M59.87 42.39 C47.73 31.84, 35.59 21.28, 10.82 -0.25 M60.23 37.41 C50.85 29.25, 41.48 21.1, 17.22 0.01 M60.23 37.41 C43.26 22.65, 26.29 7.9, 17.22 0.01 M59.84 31.76 C45.43 19.24, 31.02 6.72, 22.86 -0.38 M59.84 31.76 C47.36 20.92, 34.89 10.07, 22.86 -0.38 M60.2 26.78 C50.01 17.92, 39.82 9.06, 29.26 -0.12 M60.2 26.78 C52.58 20.16, 44.97 13.54, 29.26 -0.12 M60.56 21.79 C53.28 15.46, 46 9.13, 34.9 -0.52 M60.56 21.79 C52.21 14.53, 43.86 7.27, 34.9 -0.52 M60.16 16.15 C55.6 12.18, 51.04 8.21, 41.3 -0.26 M60.16 16.15 C55.71 12.28, 51.26 8.4, 41.3 -0.26 M60.53 11.16 C55.87 7.12, 51.22 3.07, 47.69 0.01 M60.53 11.16 C57.75 8.74, 54.97 6.33, 47.69 0.01 M60.13 5.52 C58.07 3.72, 56 1.93, 53.34 -0.39 M60.13 5.52 C58.05 3.71, 55.98 1.9, 53.34 -0.39" stroke="#b2f2bb" stroke-width="0.5" fill="none"></path><path d="M0 0 C16.11 0, 32.22 0, 59.61 0 M0 0 C22.73 0, 45.47 0, 59.61 0 M59.61 0 C59.61 18.94, 59.61 37.88, 59.61 48.65 M59.61 0 C59.61 11.01, 59.61 22.02, 59.61 48.65 M59.61 48.65 C35.78 48.65, 11.95 48.65, 0 48.65 M59.61 48.65 C45.72 48.65, 31.84 48.65, 0 48.65 M0 48.65 C0 31.27, 0 13.89, 0 0 M0 48.65 C0 31.47, 0 14.29, 0 0" stroke="#e03131" stroke-width="1" fill="none"></path></g><g stroke-linecap="round" transform="translate(171.2331810264011 525.0504662948651) rotate(60.32829000301168 30.02806143160825 24.475881675465644)"><path d="M0 0 C0 0, 0 0, 0 0 M0 0 C0 0, 0 0, 0 0 M-0.26 6.4 C0.88 5.08, 2.02 3.77, 4.99 0.36 M-0.26 6.4 C1.66 4.18, 3.59 1.97, 4.99 0.36 M0.13 12.04 C3.28 8.42, 6.43 4.8, 10.63 -0.03 M0.13 12.04 C4.31 7.24, 8.48 2.44, 10.63 -0.03 M-0.13 18.44 C5.54 11.92, 11.2 5.4, 15.62 0.33 M-0.13 18.44 C5.91 11.49, 11.95 4.55, 15.62 0.33 M0.27 24.08 C7.13 16.18, 14 8.28, 21.26 -0.07 M0.27 24.08 C6.17 17.29, 12.07 10.51, 21.26 -0.07 M0 30.48 C7.89 21.41, 15.77 12.34, 26.25 0.29 M0 30.48 C8.03 21.25, 16.05 12.03, 26.25 0.29 M-0.26 36.88 C8.38 26.94, 17.03 17, 31.89 -0.1 M-0.26 36.88 C8.05 27.32, 16.35 17.77, 31.89 -0.1 M0.14 42.52 C12.4 28.41, 24.67 14.3, 36.88 0.26 M0.14 42.52 C13.16 27.54, 26.18 12.56, 36.88 0.26 M-0.12 48.92 C9.74 37.57, 19.61 26.22, 42.52 -0.14 M-0.12 48.92 C14.87 31.67, 29.86 14.42, 42.52 -0.14 M4.86 49.28 C19.93 31.95, 35 14.62, 47.51 0.22 M4.86 49.28 C20.97 30.75, 37.08 12.21, 47.51 0.22 M9.85 49.64 C21.53 36.21, 33.2 22.77, 53.15 -0.17 M9.85 49.64 C21.09 36.71, 32.33 23.78, 53.15 -0.17 M15.49 49.24 C30.44 32.06, 45.38 14.87, 58.14 0.19 M15.49 49.24 C30.42 32.07, 45.35 14.9, 58.14 0.19 M20.48 49.6 C31.97 36.39, 43.46 23.17, 60.5 3.57 M20.48 49.6 C30.78 37.76, 41.08 25.91, 60.5 3.57 M26.12 49.21 C36.87 36.84, 47.62 24.48, 60.24 9.96 M26.12 49.21 C35.41 38.52, 44.7 27.84, 60.24 9.96 M31.11 49.57 C41.01 38.18, 50.91 26.8, 60.63 15.61 M31.11 49.57 C39.87 39.49, 48.63 29.41, 60.63 15.61 M36.75 49.17 C44.69 40.05, 52.62 30.92, 60.37 22.01 M36.75 49.17 C43.18 41.78, 49.6 34.39, 60.37 22.01 M41.74 49.53 C47.72 42.65, 53.71 35.77, 60.77 27.65 M41.74 49.53 C47.57 42.83, 53.39 36.13, 60.77 27.65 M46.73 49.89 C50.86 45.15, 54.98 40.4, 60.51 34.05 M46.73 49.89 C50.91 45.09, 55.09 40.28, 60.51 34.05 M52.37 49.5 C54.52 47.03, 56.67 44.55, 60.24 40.44 M52.37 49.5 C54.66 46.87, 56.95 44.24, 60.24 40.44 M57.36 49.86 C58.64 48.38, 59.93 46.9, 60.64 46.09 M57.36 49.86 C58.17 48.93, 58.98 48, 60.64 46.09 M-0.09 48.88 C-0.09 48.88, -0.09 48.88, -0.09 48.88 M-0.09 48.88 C-0.09 48.88, -0.09 48.88, -0.09 48.88 M6.31 49.14 C3.92 47.06, 1.53 44.98, 0.27 43.89 M6.31 49.14 C5.04 48.03, 3.77 46.93, 0.27 43.89 M11.95 48.74 C8.74 45.95, 5.53 43.16, -0.12 38.25 M11.95 48.74 C7.29 44.68, 2.62 40.63, -0.12 38.25 M18.35 49 C11.21 42.8, 4.07 36.59, 0.24 33.26 M18.35 49 C14.24 45.43, 10.13 41.85, 0.24 33.26 M24.75 49.27 C18.78 44.08, 12.81 38.89, -0.16 27.62 M24.75 49.27 C15.02 40.8, 5.28 32.34, -0.16 27.62 M30.39 48.87 C22.31 41.85, 14.24 34.83, 0.2 22.63 M30.39 48.87 C19.6 39.49, 8.81 30.11, 0.2 22.63 M36.79 49.13 C26.75 40.4, 16.7 31.67, -0.19 16.99 M36.79 49.13 C23.65 37.71, 10.52 26.3, -0.19 16.99 M42.43 48.74 C25.74 34.23, 9.05 19.72, 0.17 12 M42.43 48.74 C26.01 34.46, 9.58 20.18, 0.17 12 M48.83 49 C36.44 38.22, 24.04 27.45, -0.22 6.36 M48.83 49 C30.81 33.33, 12.78 17.66, -0.22 6.36 M55.23 49.26 C35.74 32.32, 16.26 15.38, 0.14 1.37 M55.23 49.26 C36.83 33.26, 18.42 17.27, 0.14 1.37 M60.12 48.21 C47.71 37.42, 35.29 26.63, 4.27 -0.34 M60.12 48.21 C38.23 29.18, 16.34 10.16, 4.27 -0.34 M60.48 43.22 C49.52 33.7, 38.56 24.18, 10.67 -0.08 M60.48 43.22 C43.86 28.78, 27.24 14.33, 10.67 -0.08 M60.08 37.58 C48.56 27.56, 37.04 17.55, 17.06 0.18 M60.08 37.58 C44.19 23.77, 28.31 9.96, 17.06 0.18 M60.44 32.59 C50.33 23.8, 40.21 15.01, 22.71 -0.21 M60.44 32.59 C47.08 20.97, 33.71 9.35, 22.71 -0.21 M60.8 27.61 C53.65 21.39, 46.5 15.17, 29.11 0.05 M60.8 27.61 C50.75 18.87, 40.69 10.13, 29.11 0.05 M60.41 21.96 C53.46 15.92, 46.51 9.88, 34.75 -0.34 M60.41 21.96 C53 15.52, 45.58 9.08, 34.75 -0.34 M60.77 16.98 C53.31 10.49, 45.84 4, 41.15 -0.08 M60.77 16.98 C56.27 13.06, 51.76 9.15, 41.15 -0.08 M60.37 11.33 C55.25 6.88, 50.12 2.42, 47.54 0.18 M60.37 11.33 C57.07 8.46, 53.77 5.59, 47.54 0.18 M60.73 6.35 C57.98 3.95, 55.23 1.56, 53.19 -0.21 M60.73 6.35 C57.89 3.88, 55.05 1.4, 53.19 -0.21 M60.34 0.7 C60.1 0.49, 59.85 0.28, 59.58 0.05 M60.34 0.7 C60.11 0.5, 59.88 0.3, 59.58 0.05" stroke="#b2f2bb" stroke-width="0.5" fill="none"></path><path d="M0 0 C22.1 0, 44.19 0, 60.06 0 M0 0 C20.34 0, 40.67 0, 60.06 0 M60.06 0 C60.06 16.69, 60.06 33.38, 60.06 48.95 M60.06 0 C60.06 14.51, 60.06 29.02, 60.06 48.95 M60.06 48.95 C41.7 48.95, 23.34 48.95, 0 48.95 M60.06 48.95 C47.61 48.95, 35.17 48.95, 0 48.95 M0 48.95 C0 35.38, 0 21.81, 0 0 M0 48.95 C0 31.31, 0 13.67, 0 0" stroke="#e03131" stroke-width="1" fill="none"></path></g><g stroke-linecap="round" transform="translate(204.0047285821057 577.1332762031998) rotate(60.32829000301168 26.227645110277308 23.679594227946836)"><path d="M0 0 C0 0, 0 0, 0 0 M0 0 C0 0, 0 0, 0 0 M-0.26 6.4 C0.98 4.97, 2.23 3.53, 4.99 0.36 M-0.26 6.4 C1.77 4.07, 3.79 1.73, 4.99 0.36 M0.13 12.04 C2.62 9.18, 5.11 6.31, 10.63 -0.03 M0.13 12.04 C3.92 7.69, 7.7 3.34, 10.63 -0.03 M-0.13 18.44 C3.44 14.33, 7.01 10.22, 15.62 0.33 M-0.13 18.44 C3.53 14.23, 7.2 10.01, 15.62 0.33 M0.27 24.08 C4.59 19.11, 8.91 14.13, 21.26 -0.07 M0.27 24.08 C8.05 15.12, 15.84 6.17, 21.26 -0.07 M0 30.48 C5.46 24.21, 10.91 17.94, 26.25 0.29 M0 30.48 C6.8 22.66, 13.6 14.84, 26.25 0.29 M-0.26 36.88 C7.02 28.51, 14.29 20.14, 31.89 -0.1 M-0.26 36.88 C9.97 25.11, 20.2 13.35, 31.89 -0.1 M0.14 42.52 C9.13 32.17, 18.13 21.82, 36.88 0.26 M0.14 42.52 C8.53 32.86, 16.93 23.21, 36.88 0.26 M0.53 48.16 C15.82 30.58, 31.1 13, 42.52 -0.14 M0.53 48.16 C15.29 31.18, 30.05 14.21, 42.52 -0.14 M6.18 47.77 C15.67 36.84, 25.17 25.91, 47.51 0.22 M6.18 47.77 C16.58 35.79, 26.99 23.82, 47.51 0.22 M11.16 48.13 C26.11 30.93, 41.06 13.73, 52.49 0.58 M11.16 48.13 C24.34 32.97, 37.52 17.81, 52.49 0.58 M16.81 47.73 C30.55 31.93, 44.29 16.12, 52.89 6.23 M16.81 47.73 C27.23 35.75, 37.64 23.76, 52.89 6.23 M21.79 48.09 C32.22 36.1, 42.65 24.1, 52.63 12.62 M21.79 48.09 C30.01 38.64, 38.22 29.19, 52.63 12.62 M27.44 47.7 C36.2 37.61, 44.97 27.53, 53.02 18.27 M27.44 47.7 C33.76 40.42, 40.09 33.15, 53.02 18.27 M32.42 48.06 C38.3 41.3, 44.18 34.53, 52.76 24.66 M32.42 48.06 C39.32 40.13, 46.21 32.2, 52.76 24.66 M38.07 47.67 C42.2 42.91, 46.34 38.15, 52.5 31.06 M38.07 47.67 C42.16 42.96, 46.25 38.25, 52.5 31.06 M43.05 48.03 C46.86 43.65, 50.66 39.28, 52.89 36.7 M43.05 48.03 C45.8 44.86, 48.55 41.7, 52.89 36.7 M48.7 47.63 C49.52 46.68, 50.35 45.72, 52.63 43.1 M48.7 47.63 C49.89 46.26, 51.08 44.89, 52.63 43.1 M-0.05 47.31 C-0.05 47.31, -0.05 47.31, -0.05 47.31 M-0.05 47.31 C-0.05 47.31, -0.05 47.31, -0.05 47.31 M6.34 47.57 C4.9 46.32, 3.46 45.07, 0.31 42.33 M6.34 47.57 C4.79 46.22, 3.23 44.87, 0.31 42.33 M11.99 47.18 C7.26 43.07, 2.53 38.96, -0.09 36.68 M11.99 47.18 C8.01 43.72, 4.03 40.26, -0.09 36.68 M18.39 47.44 C12.54 42.36, 6.7 37.29, 0.27 31.7 M18.39 47.44 C13.83 43.49, 9.28 39.53, 0.27 31.7 M24.03 47.05 C18.55 42.29, 13.08 37.53, -0.12 26.05 M24.03 47.05 C18.77 42.48, 13.52 37.91, -0.12 26.05 M30.43 47.31 C20.19 38.41, 9.95 29.51, 0.24 21.07 M30.43 47.31 C23.41 41.21, 16.4 35.11, 0.24 21.07 M36.82 47.57 C27.13 39.14, 17.44 30.72, -0.16 15.42 M36.82 47.57 C24.6 36.94, 12.37 26.32, -0.16 15.42 M42.47 47.18 C25.86 32.74, 9.25 18.3, 0.2 10.44 M42.47 47.18 C29.78 36.15, 17.1 25.12, 0.2 10.44 M48.86 47.44 C36.46 36.65, 24.05 25.86, -0.19 4.79 M48.86 47.44 C33.96 34.48, 19.05 21.52, -0.19 4.79 M53 45.73 C36.38 31.28, 19.75 16.83, 0.17 -0.19 M53 45.73 C42.35 36.47, 31.7 27.22, 0.17 -0.19 M52.6 40.09 C37.38 26.85, 22.16 13.62, 6.57 0.07 M52.6 40.09 C35.51 25.23, 18.41 10.36, 6.57 0.07 M52.96 35.1 C38.24 22.3, 23.51 9.5, 12.21 -0.33 M52.96 35.1 C43.5 26.88, 34.04 18.65, 12.21 -0.33 M52.57 29.46 C42.27 20.51, 31.98 11.55, 18.61 -0.07 M52.57 29.46 C43.57 21.63, 34.56 13.8, 18.61 -0.07 M52.93 24.47 C43.84 16.57, 34.75 8.67, 24.25 -0.46 M52.93 24.47 C43.3 16.1, 33.67 7.73, 24.25 -0.46 M52.54 18.83 C44.76 12.07, 36.99 5.31, 30.65 -0.2 M52.54 18.83 C45.62 12.82, 38.71 6.81, 30.65 -0.2 M52.9 13.84 C46.69 8.44, 40.48 3.05, 37.05 0.06 M52.9 13.84 C49.65 11.02, 46.4 8.2, 37.05 0.06 M52.5 8.2 C49.09 5.23, 45.67 2.26, 42.69 -0.33 M52.5 8.2 C49.04 5.19, 45.58 2.18, 42.69 -0.33 M52.86 3.21 C51.64 2.15, 50.43 1.09, 49.09 -0.07 M52.86 3.21 C51.43 1.96, 49.99 0.72, 49.09 -0.07" stroke="#b2f2bb" stroke-width="0.5" fill="none"></path><path d="M0 0 C12.11 0, 24.23 0, 52.46 0 M0 0 C12.18 0, 24.36 0, 52.46 0 M52.46 0 C52.46 14.38, 52.46 28.76, 52.46 47.36 M52.46 0 C52.46 15.44, 52.46 30.87, 52.46 47.36 M52.46 47.36 C32.83 47.36, 13.2 47.36, 0 47.36 M52.46 47.36 C39.64 47.36, 26.82 47.36, 0 47.36 M0 47.36 C0 33.15, 0 18.94, 0 0 M0 47.36 C0 37.6, 0 27.84, 0 0" stroke="#e03131" stroke-width="1" fill="none"></path></g><g stroke-linecap="round" transform="translate(216.2075714143101 502.12059861788384) rotate(60.32829000301168 21.061643588537663 12.253852605244901)"><path d="M0 0 C0 0, 0 0, 0 0 M0 0 C0 0, 0 0, 0 0 M-0.26 6.4 C1.31 4.59, 2.88 2.79, 4.99 0.36 M-0.26 6.4 C0.97 4.98, 2.2 3.57, 4.99 0.36 M0.13 12.04 C3.76 7.87, 7.38 3.71, 10.63 -0.03 M0.13 12.04 C3.04 8.7, 5.94 5.36, 10.63 -0.03 M-0.13 18.44 C4.48 13.14, 9.08 7.84, 15.62 0.33 M-0.13 18.44 C5.05 12.48, 10.24 6.52, 15.62 0.33 M0.27 24.08 C6.62 16.78, 12.97 9.47, 21.26 -0.07 M0.27 24.08 C5.38 18.2, 10.5 12.31, 21.26 -0.07 M4.6 25.2 C12.26 16.38, 19.92 7.57, 26.25 0.29 M4.6 25.2 C10.09 18.88, 15.58 12.56, 26.25 0.29 M10.24 24.8 C16.1 18.06, 21.96 11.32, 31.89 -0.1 M10.24 24.8 C16.64 17.44, 23.04 10.08, 31.89 -0.1 M15.23 25.16 C20.65 18.92, 26.07 12.69, 36.88 0.26 M15.23 25.16 C20.22 19.42, 25.21 13.68, 36.88 0.26 M20.87 24.77 C27.21 17.48, 33.54 10.19, 42.52 -0.14 M20.87 24.77 C28.81 15.63, 36.75 6.5, 42.52 -0.14 M25.86 25.13 C31.21 18.97, 36.56 12.81, 42.26 6.26 M25.86 25.13 C30.47 19.83, 35.07 14.53, 42.26 6.26 M30.84 25.49 C33.5 22.43, 36.16 19.37, 42 12.66 M30.84 25.49 C34.64 21.12, 38.44 16.75, 42 12.66 M36.49 25.09 C37.68 23.72, 38.87 22.35, 42.39 18.3 M36.49 25.09 C38.4 22.89, 40.32 20.68, 42.39 18.3 M-0.06 24.46 C-0.06 24.46, -0.06 24.46, -0.06 24.46 M-0.06 24.46 C-0.06 24.46, -0.06 24.46, -0.06 24.46 M6.34 24.72 C4.68 23.28, 3.02 21.84, 0.3 19.47 M6.34 24.72 C4.65 23.25, 2.96 21.78, 0.3 19.47 M11.98 24.32 C8.2 21.04, 4.43 17.76, -0.09 13.83 M11.98 24.32 C8.73 21.5, 5.49 18.68, -0.09 13.83 M18.38 24.58 C14.44 21.16, 10.5 17.74, 0.27 8.84 M18.38 24.58 C11.8 18.87, 5.23 13.15, 0.27 8.84 M24.02 24.19 C18.86 19.7, 13.7 15.22, -0.13 3.2 M24.02 24.19 C18.42 19.32, 12.82 14.45, -0.13 3.2 M30.42 24.45 C22.35 17.44, 14.29 10.43, 1.74 -0.48 M30.42 24.45 C19.26 14.75, 8.1 5.05, 1.74 -0.48 M36.82 24.71 C25.84 15.17, 14.85 5.62, 8.14 -0.22 M36.82 24.71 C27.82 16.89, 18.82 9.07, 8.14 -0.22 M42.46 24.32 C31.2 14.53, 19.95 4.75, 13.78 -0.61 M42.46 24.32 C34.66 17.54, 26.87 10.76, 13.78 -0.61 M42.07 18.68 C35 12.53, 27.93 6.38, 20.18 -0.35 M42.07 18.68 C36.83 14.12, 31.59 9.57, 20.18 -0.35 M42.43 13.69 C38.39 10.18, 34.35 6.67, 26.58 -0.09 M42.43 13.69 C37.31 9.24, 32.19 4.79, 26.58 -0.09 M42.03 8.05 C38.47 4.95, 34.91 1.85, 32.22 -0.48 M42.03 8.05 C39.26 5.64, 36.49 3.23, 32.22 -0.48 M42.39 3.06 C41.46 2.25, 40.52 1.43, 38.62 -0.22 M42.39 3.06 C41.06 1.9, 39.73 0.74, 38.62 -0.22" stroke="#b2f2bb" stroke-width="0.5" fill="none"></path><path d="M0 0 C8.59 0, 17.18 0, 42.12 0 M0 0 C11.2 0, 22.41 0, 42.12 0 M42.12 0 C42.12 8.05, 42.12 16.11, 42.12 24.51 M42.12 0 C42.12 5.72, 42.12 11.44, 42.12 24.51 M42.12 24.51 C32.75 24.51, 23.37 24.51, 0 24.51 M42.12 24.51 C33.64 24.51, 25.17 24.51, 0 24.51 M0 24.51 C0 17.59, 0 10.66, 0 0 M0 24.51 C0 18.52, 0 12.54, 0 0" stroke="#e03131" stroke-width="1" fill="none"></path></g><g stroke-linecap="round" transform="translate(239.09899705137025 542.6371179860407) rotate(60.32829000301168 21.86395128947339 12.253852605244901)"><path d="M0 0 C0 0, 0 0, 0 0 M0 0 C0 0, 0 0, 0 0 M-0.26 6.4 C1.25 4.66, 2.75 2.93, 4.99 0.36 M-0.26 6.4 C1.08 4.86, 2.42 3.32, 4.99 0.36 M0.13 12.04 C3.39 8.3, 6.65 4.55, 10.63 -0.03 M0.13 12.04 C4.24 7.32, 8.34 2.6, 10.63 -0.03 M-0.13 18.44 C3.75 13.98, 7.62 9.52, 15.62 0.33 M-0.13 18.44 C3.86 13.85, 7.85 9.26, 15.62 0.33 M0.27 24.08 C5.47 18.1, 10.67 12.12, 21.26 -0.07 M0.27 24.08 C6.32 17.12, 12.37 10.16, 21.26 -0.07 M4.6 25.2 C9.78 19.23, 14.97 13.27, 26.25 0.29 M4.6 25.2 C12.07 16.6, 19.55 8, 26.25 0.29 M10.24 24.8 C17.59 16.34, 24.95 7.88, 31.89 -0.1 M10.24 24.8 C16.9 17.14, 23.57 9.47, 31.89 -0.1 M15.23 25.16 C23.5 15.65, 31.76 6.14, 36.88 0.26 M15.23 25.16 C19.99 19.68, 24.75 14.21, 36.88 0.26 M20.87 24.77 C28.17 16.37, 35.47 7.97, 42.52 -0.14 M20.87 24.77 C27.69 16.92, 34.51 9.08, 42.52 -0.14 M25.86 25.13 C30.19 20.14, 34.53 15.16, 44.23 4 M25.86 25.13 C32.17 17.87, 38.47 10.61, 44.23 4 M30.84 25.49 C36.21 19.31, 41.58 13.14, 44.62 9.64 M30.84 25.49 C33.62 22.3, 36.39 19.11, 44.62 9.64 M36.49 25.09 C38.95 22.26, 41.41 19.43, 44.36 16.04 M36.49 25.09 C38.52 22.76, 40.55 20.42, 44.36 16.04 M41.47 25.45 C42.61 24.15, 43.74 22.85, 44.75 21.68 M41.47 25.45 C42.74 24, 44 22.55, 44.75 21.68 M-0.06 24.46 C-0.06 24.46, -0.06 24.46, -0.06 24.46 M-0.06 24.46 C-0.06 24.46, -0.06 24.46, -0.06 24.46 M6.34 24.72 C4.84 23.41, 3.33 22.11, 0.3 19.47 M6.34 24.72 C4.46 23.09, 2.59 21.46, 0.3 19.47 M11.98 24.32 C8.1 20.95, 4.22 17.58, -0.09 13.83 M11.98 24.32 C9.41 22.09, 6.84 19.85, -0.09 13.83 M18.38 24.58 C13.91 20.7, 9.44 16.82, 0.27 8.84 M18.38 24.58 C12.05 19.09, 5.73 13.59, 0.27 8.84 M24.02 24.19 C16.36 17.53, 8.7 10.87, -0.13 3.2 M24.02 24.19 C18.69 19.55, 13.35 14.92, -0.13 3.2 M30.42 24.45 C22.35 17.44, 14.29 10.43, 1.74 -0.48 M30.42 24.45 C21.83 16.99, 13.25 9.52, 1.74 -0.48 M36.82 24.71 C29.22 18.11, 21.63 11.51, 8.14 -0.22 M36.82 24.71 C26.63 15.86, 16.44 7, 8.14 -0.22 M42.46 24.32 C31.15 14.49, 19.85 4.66, 13.78 -0.61 M42.46 24.32 C34.28 17.21, 26.1 10.1, 13.78 -0.61 M43.58 19.99 C36.15 13.53, 28.73 7.08, 20.18 -0.35 M43.58 19.99 C37.93 15.08, 32.29 10.18, 20.18 -0.35 M43.94 15 C40.02 11.59, 36.1 8.19, 26.58 -0.09 M43.94 15 C39.46 11.11, 34.99 7.22, 26.58 -0.09 M44.3 10.01 C39.75 6.06, 35.21 2.11, 32.22 -0.48 M44.3 10.01 C39.7 6.02, 35.11 2.02, 32.22 -0.48 M43.9 4.37 C42.24 2.93, 40.58 1.49, 38.62 -0.22 M43.9 4.37 C42.35 3.02, 40.79 1.67, 38.62 -0.22" stroke="#b2f2bb" stroke-width="0.5" fill="none"></path><path d="M0 0 C17.14 0, 34.29 0, 43.73 0 M0 0 C12.31 0, 24.61 0, 43.73 0 M43.73 0 C43.73 6.36, 43.73 12.71, 43.73 24.51 M43.73 0 C43.73 6.5, 43.73 13, 43.73 24.51 M43.73 24.51 C31.17 24.51, 18.61 24.51, 0 24.51 M43.73 24.51 C33.4 24.51, 23.07 24.51, 0 24.51 M0 24.51 C0 14.76, 0 5.02, 0 0 M0 24.51 C0 16.23, 0 7.95, 0 0" stroke="#e03131" stroke-width="1" fill="none"></path></g><g stroke-linecap="round"><g transform="translate(22.581109140699482 109.56778886327902) rotate(0 299.20722649159217 404.82879508101314)"><path d="M0 0 C-2.98 9.83, -5.96 19.66, -12.58 41.53 M0 0 C-3.19 10.53, -6.38 21.06, -12.58 41.53 M-12.58 41.53 C-12.33 53.05, -12.08 64.57, -11.66 83.89 M-12.58 41.53 C-12.31 54.04, -12.04 66.55, -11.66 83.89 M-11.66 83.89 C-4.24 126.03, 3.19 168.16, 7.01 189.78 M-11.66 83.89 C-5.96 116.27, -0.25 148.64, 7.01 189.78 M7.01 189.78 C8.49 189.79, 9.98 189.8, 13.44 189.83 M7.01 189.78 C9.29 189.8, 11.57 189.82, 13.44 189.83 M13.44 189.83 C16.21 195.26, 18.98 200.69, 22.35 207.31 M13.44 189.83 C15.98 194.81, 18.51 199.78, 22.35 207.31 M22.35 207.31 C20.05 208.92, 17.74 210.53, 15.35 212.21 M22.35 207.31 C20.68 208.47, 19.01 209.64, 15.35 212.21 M15.35 212.21 C44.94 263.53, 74.53 314.85, 130.79 412.4 M15.35 212.21 C47 267.1, 78.65 321.98, 130.79 412.4 M130.79 412.4 C132.66 415.84, 134.53 419.27, 135.81 421.62 M130.79 412.4 C132.26 415.1, 133.73 417.8, 135.81 421.62 M135.81 421.62 C164.48 470.36, 193.16 519.1, 208.77 545.64 M135.81 421.62 C154.52 453.41, 173.22 485.2, 208.77 545.64 M208.77 545.64 C210.81 549.88, 212.86 554.12, 215.66 559.94 M208.77 545.64 C210.92 550.09, 213.06 554.55, 215.66 559.94 M215.66 559.94 C222.14 571.25, 228.62 582.56, 241.04 604.25 M215.66 559.94 C221.04 569.33, 226.42 578.71, 241.04 604.25 M241.04 604.25 C238.56 608.72, 236.07 613.19, 231.52 621.38 M241.04 604.25 C238.78 608.32, 236.52 612.39, 231.52 621.38 M231.52 621.38 C227.95 620.77, 224.39 620.15, 217.49 618.96 M231.52 621.38 C228.44 620.85, 225.35 620.32, 217.49 618.96 M217.49 618.96 C217.91 626.88, 218.33 634.81, 218.69 641.45 M217.49 618.96 C217.8 624.83, 218.12 630.7, 218.69 641.45 M218.69 641.45 C213.9 641.09, 209.11 640.73, 206 640.5 M218.69 641.45 C214.15 641.11, 209.61 640.77, 206 640.5 M206 640.5 C206.91 647.01, 207.81 653.52, 209.18 663.36 M206 640.5 C207.02 647.85, 208.04 655.2, 209.18 663.36 M209.18 663.36 C205.25 662.68, 201.32 661.99, 195.62 660.99 M209.18 663.36 C206.45 662.89, 203.72 662.41, 195.62 660.99 M195.62 660.99 C196.01 667.38, 196.4 673.77, 196.93 682.44 M195.62 660.99 C195.89 665.41, 196.16 669.84, 196.93 682.44 M196.93 682.44 C193.77 682.04, 190.62 681.64, 183.29 680.72 M196.93 682.44 C192.49 681.88, 188.05 681.32, 183.29 680.72 M183.29 680.72 C183.52 686.1, 183.74 691.49, 184.16 701.55 M183.29 680.72 C183.51 685.96, 183.73 691.21, 184.16 701.55 M184.16 701.55 C179.93 701.14, 175.7 700.74, 170.95 700.29 M184.16 701.55 C181.48 701.29, 178.8 701.04, 170.95 700.29 M170.95 700.29 C171.15 708.38, 171.35 716.48, 171.51 722.79 M170.95 700.29 C171.08 705.74, 171.22 711.2, 171.51 722.79 M171.51 722.79 C164.77 733.69, 158.03 744.59, 144.53 766.4 M171.51 722.79 C163.31 736.06, 155.1 749.32, 144.53 766.4 M144.53 766.4 C156.2 765.97, 167.87 765.55, 197.24 764.48 M144.53 766.4 C160.94 765.8, 177.35 765.2, 197.24 764.48 M197.24 764.48 C204.05 769.38, 210.87 774.28, 214.66 777.01 M197.24 764.48 C204.21 769.49, 211.17 774.5, 214.66 777.01 M214.66 777.01 C217.75 772.31, 220.84 767.6, 222.59 764.94 M214.66 777.01 C216.56 774.12, 218.46 771.22, 222.59 764.94 M222.59 764.94 C227.14 768.24, 231.69 771.54, 238.23 776.29 M222.59 764.94 C226.62 767.86, 230.65 770.79, 238.23 776.29 M238.23 776.29 C239.67 773.34, 241.1 770.39, 244.26 763.88 M238.23 776.29 C240.39 771.85, 242.55 767.41, 244.26 763.88 M244.26 763.88 C250.23 767.91, 256.2 771.93, 260.27 774.68 M244.26 763.88 C249.77 767.6, 255.28 771.32, 260.27 774.68 M260.27 774.68 C261.63 771.85, 263 769.02, 265.43 763.99 M260.27 774.68 C261.52 772.08, 262.78 769.48, 265.43 763.99 M265.43 763.99 C269.94 766.69, 274.44 769.39, 284.43 775.37 M265.43 763.99 C271.6 767.68, 277.76 771.38, 284.43 775.37 M284.43 775.37 C286.45 770.71, 288.48 766.06, 289.53 763.63 M284.43 775.37 C285.57 772.75, 286.71 770.12, 289.53 763.63 M289.53 763.63 C295.84 767.92, 302.15 772.21, 307.01 775.51 M289.53 763.63 C295.86 767.94, 302.2 772.24, 307.01 775.51 M307.01 775.51 C308.99 772.07, 310.97 768.63, 313.93 763.5 M307.01 775.51 C308.9 772.23, 310.79 768.95, 313.93 763.5 M313.93 763.5 C321.4 763.36, 328.87 763.21, 332.73 763.14 M313.93 763.5 C318.05 763.42, 322.17 763.34, 332.73 763.14 M332.73 763.14 C338.45 773.03, 344.16 782.93, 359.6 809.66 M332.73 763.14 C341.23 777.85, 349.72 792.55, 359.6 809.66 M359.6 809.66 C366.06 798.13, 372.52 786.6, 383.02 767.87 M359.6 809.66 C367.92 794.81, 376.24 779.96, 383.02 767.87 M383.02 767.87 C402.18 768.2, 421.35 768.53, 433.26 768.73 M383.02 767.87 C399.32 768.15, 415.62 768.43, 433.26 768.73 M433.26 768.73 C425.98 756.07, 418.7 743.42, 409.29 727.04 M433.26 768.73 C427.75 759.15, 422.24 749.56, 409.29 727.04 M409.29 727.04 C447.89 662.78, 486.48 598.52, 580.99 441.2 M409.29 727.04 C446.81 664.57, 484.34 602.1, 580.99 441.2 M580.99 441.2 C570.32 434.76, 559.65 428.32, 540.47 416.75 M580.99 441.2 C564.79 431.42, 548.59 421.65, 540.47 416.75 M540.47 416.75 C535.46 417.4, 530.46 418.05, 523.88 418.91 M540.47 416.75 C534.37 417.54, 528.28 418.34, 523.88 418.91 M523.88 418.91 C523.07 422.51, 522.27 426.11, 521.32 430.34 M523.88 418.91 C523.31 421.44, 522.75 423.96, 521.32 430.34 M521.32 430.34 C476.4 430.76, 431.48 431.17, 408.29 431.39 M521.32 430.34 C488.74 430.64, 456.17 430.95, 408.29 431.39 M408.29 431.39 C422.97 405.59, 437.66 379.8, 458.29 343.56 M408.29 431.39 C425.64 400.91, 443 370.42, 458.29 343.56 M458.29 343.56 C454.97 343.5, 451.64 343.43, 443.43 343.28 M458.29 343.56 C453.14 343.46, 447.98 343.36, 443.43 343.28 M443.43 343.28 C443.22 336.89, 443 330.51, 442.42 313.34 M443.43 343.28 C443.2 336.36, 442.96 329.45, 442.42 313.34 M442.42 313.34 C481.79 313.27, 521.16 313.21, 565.58 313.13 M442.42 313.34 C474.17 313.28, 505.91 313.23, 565.58 313.13 M565.58 313.13 C582.04 289.68, 598.5 266.23, 611 248.44 M565.58 313.13 C575.73 298.68, 585.87 284.22, 611 248.44 M611 248.44 C467 248.02, 323 247.59, 199.37 247.23 M611 248.44 C453.21 247.98, 295.42 247.51, 199.37 247.23 M199.37 247.23 C206.89 261.31, 214.4 275.39, 235.61 315.15 M199.37 247.23 C209.3 265.84, 219.23 284.44, 235.61 315.15 M235.61 315.15 C227.37 319.69, 219.12 324.23, 195.58 337.19 M235.61 315.15 C226.21 320.32, 216.82 325.5, 195.58 337.19 M195.58 337.19 C138.83 239.34, 82.07 141.49, 0 0 M195.58 337.19 C150.54 259.54, 105.5 181.89, 0 0" stroke="#f08c00" stroke-width="4" fill="none"></path></g></g><mask></mask><g stroke-linecap="round"><g transform="translate(247.64087818298253 10.758061355564678) rotate(0 -37.669672453376506 156.9277950072551)"><path d="M0 0 C-8.01 -0.19, -16.02 -0.38, -31.71 -0.76 M0 0 C-8.38 -0.2, -16.76 -0.4, -31.71 -0.76 M-31.71 -0.76 C-37.29 0.58, -42.88 1.93, -56.61 5.22 M-31.71 -0.76 C-36.85 0.48, -41.99 1.71, -56.61 5.22 M-56.61 5.22 C-95.45 27.99, -134.29 50.75, -188 82.23 M-56.61 5.22 C-83.12 20.76, -109.63 36.3, -188 82.23 M-188 82.23 C-152.15 144.32, -116.29 206.42, -53.82 314.61 M-188 82.23 C-144.36 157.81, -100.72 233.39, -53.82 314.61 M-53.82 314.61 C-12.37 291.14, 29.07 267.67, 81.77 237.82 M-53.82 314.61 C-4.56 286.72, 44.69 258.82, 81.77 237.82 M81.77 237.82 C93.04 221.29, 104.31 204.76, 112.66 192.52 M81.77 237.82 C89.22 226.89, 96.68 215.95, 112.66 192.52 M112.66 192.52 C77.96 133.22, 43.26 73.92, 0 0 M112.66 192.52 C72.98 124.71, 33.3 56.9, 0 0" stroke="#f08c00" stroke-width="4" fill="none"></path></g></g><mask></mask><g stroke-linecap="round"><g transform="translate(87.99176303313754 278.24253100014994) rotate(0 104.65644714291011 216.07249172362026)" fill-rule="evenodd"><path d="M-10.18 7.05 C-10.18 7.05, -10.18 7.05, -10.18 7.05 M-10.18 7.05 C-10.18 7.05, -10.18 7.05, -10.18 7.05 M-8.47 11.19 C-5.94 8.27, -3.4 5.35, 0.71 0.62 M-8.47 11.19 C-5.81 8.12, -3.15 5.06, 0.71 0.62 M-6.11 14.56 C-3.3 11.33, -0.49 8.1, 3.08 4 M-6.11 14.56 C-3.71 11.81, -1.31 9.05, 3.08 4 M-3.75 17.94 C-0.8 14.56, 2.14 11.17, 4.78 8.13 M-3.75 17.94 C-1.44 15.29, 0.86 12.64, 4.78 8.13 M-2.04 22.08 C0.3 19.39, 2.64 16.69, 7.14 11.51 M-2.04 22.08 C1.41 18.11, 4.86 14.13, 7.14 11.51 M0.32 25.46 C2.16 23.34, 4.01 21.22, 9.51 14.89 M0.32 25.46 C3.36 21.96, 6.4 18.46, 9.51 14.89 M2.69 28.83 C5.08 26.08, 7.48 23.32, 11.21 19.02 M2.69 28.83 C5.27 25.86, 7.86 22.88, 11.21 19.02 M4.39 32.97 C6.75 30.26, 9.1 27.55, 13.58 22.4 M4.39 32.97 C7.13 29.82, 9.87 26.66, 13.58 22.4 M6.76 36.35 C10.2 32.39, 13.64 28.42, 15.94 25.78 M6.76 36.35 C9.34 33.38, 11.92 30.41, 15.94 25.78 M8.46 40.48 C11.25 37.28, 14.03 34.07, 17.65 29.92 M8.46 40.48 C12.11 36.29, 15.75 32.09, 17.65 29.92 M10.82 43.86 C14.07 40.13, 17.31 36.4, 20.01 33.29 M10.82 43.86 C13.54 40.74, 16.25 37.62, 20.01 33.29 M13.19 47.24 C15.11 45.03, 17.03 42.82, 22.37 36.67 M13.19 47.24 C16.4 43.55, 19.61 39.85, 22.37 36.67 M14.89 51.37 C18.19 47.59, 21.48 43.8, 24.08 40.81 M14.89 51.37 C18.39 47.35, 21.88 43.34, 24.08 40.81 M17.26 54.75 C19.26 52.45, 21.25 50.15, 26.44 44.19 M17.26 54.75 C19.8 51.82, 22.35 48.9, 26.44 44.19 M19.62 58.13 C22.94 54.32, 26.25 50.5, 28.8 47.56 M19.62 58.13 C22.55 54.76, 25.49 51.38, 28.8 47.56 M21.33 62.26 C23.62 59.63, 25.91 57, 30.51 51.7 M21.33 62.26 C25 58.04, 28.67 53.82, 30.51 51.7 M23.69 65.64 C26.05 62.93, 28.41 60.21, 32.87 55.08 M23.69 65.64 C26.85 62.01, 30.01 58.38, 32.87 55.08 M26.05 69.02 C27.9 66.9, 29.75 64.77, 35.24 58.46 M26.05 69.02 C29.13 65.48, 32.21 61.94, 35.24 58.46 M27.76 73.16 C31.15 69.25, 34.54 65.35, 36.94 62.59 M27.76 73.16 C29.9 70.69, 32.05 68.22, 36.94 62.59 M30.12 76.53 C32.39 73.92, 34.66 71.31, 39.31 65.97 M30.12 76.53 C31.96 74.42, 33.8 72.31, 39.31 65.97 M31.83 80.67 C35.25 76.74, 38.67 72.8, 41.67 69.35 M31.83 80.67 C33.96 78.22, 36.09 75.76, 41.67 69.35 M34.19 84.05 C37.29 80.48, 40.39 76.92, 43.38 73.48 M34.19 84.05 C37.03 80.78, 39.88 77.5, 43.38 73.48 M36.55 87.43 C39.01 84.6, 41.46 81.78, 45.74 76.86 M36.55 87.43 C39.04 84.57, 41.52 81.72, 45.74 76.86 M38.26 91.56 C41.2 88.18, 44.13 84.8, 48.1 80.24 M38.26 91.56 C40.99 88.42, 43.72 85.28, 48.1 80.24 M40.62 94.94 C43.67 91.44, 46.71 87.94, 49.81 84.37 M40.62 94.94 C42.64 92.62, 44.65 90.31, 49.81 84.37 M42.99 98.32 C46.05 94.79, 49.12 91.27, 52.17 87.75 M42.99 98.32 C45.88 94.99, 48.77 91.66, 52.17 87.75 M44.69 102.45 C48.32 98.28, 51.95 94.1, 54.53 91.13 M44.69 102.45 C47.02 99.77, 49.36 97.09, 54.53 91.13 M47.06 105.83 C50.03 102.41, 52.99 99, 56.24 95.26 M47.06 105.83 C50.11 102.32, 53.17 98.8, 56.24 95.26 M49.42 109.21 C52.5 105.66, 55.58 102.12, 58.6 98.64 M49.42 109.21 C52.6 105.55, 55.77 101.9, 58.6 98.64 M51.13 113.34 C54.31 109.68, 57.49 106.02, 60.97 102.02 M51.13 113.34 C53.48 110.63, 55.84 107.92, 60.97 102.02 M53.49 116.72 C55.45 114.47, 57.41 112.21, 62.67 106.16 M53.49 116.72 C56.4 113.38, 59.3 110.03, 62.67 106.16 M55.19 120.86 C57.83 117.83, 60.46 114.8, 65.04 109.54 M55.19 120.86 C57.58 118.11, 59.97 115.36, 65.04 109.54 M57.56 124.23 C60.63 120.7, 63.69 117.17, 67.4 112.91 M57.56 124.23 C61.18 120.07, 64.79 115.91, 67.4 112.91 M59.92 127.61 C62.53 124.62, 65.13 121.62, 69.76 116.29 M59.92 127.61 C63.34 123.68, 66.76 119.74, 69.76 116.29 M61.63 131.75 C65.22 127.61, 68.82 123.47, 71.47 120.43 M61.63 131.75 C64.25 128.73, 66.87 125.71, 71.47 120.43 M63.99 135.13 C66.96 131.71, 69.93 128.3, 73.83 123.81 M63.99 135.13 C66.53 132.2, 69.08 129.27, 73.83 123.81 M66.35 138.51 C68.68 135.82, 71.02 133.14, 76.19 127.18 M66.35 138.51 C68.61 135.91, 70.86 133.32, 76.19 127.18 M68.06 142.64 C71.41 138.78, 74.76 134.93, 77.9 131.32 M68.06 142.64 C70.79 139.49, 73.53 136.35, 77.9 131.32 M70.42 146.02 C72.53 143.59, 74.64 141.17, 80.26 134.7 M70.42 146.02 C72.58 143.53, 74.74 141.05, 80.26 134.7 M72.78 149.4 C74.96 146.9, 77.13 144.39, 82.63 138.08 M72.78 149.4 C74.82 147.06, 76.85 144.72, 82.63 138.08 M74.49 153.53 C77.57 149.99, 80.64 146.45, 84.33 142.21 M74.49 153.53 C76.96 150.7, 79.42 147.86, 84.33 142.21 M76.85 156.91 C80.38 152.85, 83.91 148.79, 86.7 145.59 M76.85 156.91 C79.26 154.15, 81.66 151.38, 86.7 145.59 M78.56 161.04 C85.18 153.43, 91.8 145.81, 96.27 140.67 M78.56 161.04 C83.58 155.27, 88.59 149.51, 96.27 140.67 M80.92 164.42 C87.38 156.99, 93.84 149.56, 107.17 134.23 M80.92 164.42 C88.49 155.72, 96.05 147.02, 107.17 134.23 M83.29 167.8 C86.17 164.49, 89.04 161.18, 91.16 158.74 M83.29 167.8 C85.86 164.84, 88.43 161.88, 91.16 158.74 M91.16 158.74 C97.4 151.57, 103.64 144.39, 108.87 138.37 M91.16 158.74 C95.33 153.95, 99.49 149.16, 108.87 138.37 M84.99 171.93 C87.22 169.37, 89.45 166.8, 92.87 162.88 M84.99 171.93 C87.67 168.86, 90.34 165.78, 92.87 162.88 M93.52 162.12 C97.46 157.59, 101.41 153.05, 111.24 141.75 M93.52 162.12 C98.48 156.42, 103.44 150.72, 111.24 141.75 M87.36 175.31 C89.31 173.07, 91.26 170.82, 95.23 166.26 M87.36 175.31 C89.94 172.34, 92.53 169.36, 95.23 166.26 M95.88 165.5 C102.35 158.06, 108.82 150.62, 112.94 145.88 M95.88 165.5 C99.56 161.28, 103.23 157.06, 112.94 145.88 M89.72 178.69 C91.35 176.82, 92.98 174.94, 97.59 169.64 M89.72 178.69 C91.67 176.45, 93.62 174.21, 97.59 169.64 M98.25 168.88 C102.02 164.55, 105.78 160.21, 115.31 149.26 M98.25 168.88 C103.93 162.35, 109.6 155.82, 115.31 149.26 M91.43 182.83 C93.44 180.51, 95.45 178.2, 99.95 173.01 M91.43 182.83 C93.99 179.88, 96.55 176.93, 99.95 173.01 M100.61 172.26 C106.12 165.93, 111.62 159.6, 117.67 152.64 M100.61 172.26 C106.12 165.92, 111.62 159.59, 117.67 152.64 M93.79 186.2 C95.79 183.9, 97.79 181.6, 102.32 176.39 M93.79 186.2 C95.82 183.86, 97.86 181.52, 102.32 176.39 M102.97 175.64 C108.49 169.29, 114.01 162.94, 119.37 156.77 M102.97 175.64 C109.1 168.59, 115.23 161.54, 119.37 156.77 M96.15 189.58 C97.97 187.49, 99.8 185.39, 104.02 180.53 M96.15 189.58 C98.22 187.21, 100.29 184.83, 104.02 180.53 M104.68 179.77 C109.64 174.07, 114.6 168.37, 121.74 160.15 M104.68 179.77 C109.32 174.43, 113.96 169.1, 121.74 160.15 M97.86 193.72 C100.25 190.97, 102.64 188.22, 106.39 183.91 M97.86 193.72 C100.59 190.57, 103.33 187.42, 106.39 183.91 M107.04 183.15 C111.8 177.68, 116.56 172.21, 123.44 164.28 M107.04 183.15 C112.02 177.43, 117 171.7, 123.44 164.28 M100.22 197.1 C103.3 193.55, 106.39 190, 108.75 187.29 M100.22 197.1 C102.02 195.03, 103.81 192.97, 108.75 187.29 M109.41 186.53 C112.95 182.45, 116.49 178.38, 125.81 167.66 M109.41 186.53 C115.17 179.9, 120.94 173.26, 125.81 167.66 M101.93 201.23 C104.52 198.24, 107.12 195.25, 111.11 190.66 M101.93 201.23 C104.47 198.3, 107.01 195.38, 111.11 190.66 M111.77 189.91 C115.34 185.8, 118.91 181.69, 127.51 171.8 M111.77 189.91 C118.05 182.69, 124.32 175.47, 127.51 171.8 M104.29 204.61 C108.5 199.76, 112.71 194.92, 115.44 191.78 M104.29 204.61 C107.79 200.58, 111.29 196.55, 115.44 191.78 M116.76 190.27 C120.13 186.39, 123.5 182.51, 129.88 175.18 M116.76 190.27 C119.71 186.87, 122.67 183.46, 129.88 175.18 M106.65 207.99 C109.5 204.71, 112.35 201.44, 120.43 192.14 M106.65 207.99 C110.29 203.8, 113.93 199.62, 120.43 192.14 M128.3 183.08 C129.55 181.64, 130.8 180.21, 132.24 178.55 M128.3 183.08 C129.53 181.68, 130.75 180.27, 132.24 178.55 M108.36 212.12 C112.07 207.86, 115.77 203.6, 122.79 195.52 M108.36 212.12 C112.95 206.84, 117.54 201.56, 122.79 195.52 M110.72 215.5 C116.44 208.92, 122.16 202.34, 125.16 198.9 M110.72 215.5 C115.52 209.98, 120.32 204.46, 125.16 198.9 M113.09 218.88 C114.67 217.06, 116.25 215.24, 119.65 211.33 M113.09 218.88 C114.5 217.25, 115.91 215.63, 119.65 211.33 M124.24 206.05 C125.18 204.97, 126.11 203.89, 126.86 203.03 M124.24 206.05 C124.94 205.25, 125.63 204.44, 126.86 203.03 M114.79 223.01 C116.11 221.5, 117.42 219.99, 121.35 215.47 M114.79 223.01 C117.04 220.42, 119.3 217.83, 121.35 215.47 M117.15 226.39 C118.74 224.56, 120.33 222.74, 123.72 218.85 M117.15 226.39 C119.03 224.23, 120.91 222.07, 123.72 218.85 M119.52 229.77 C120.83 228.26, 122.15 226.74, 126.08 222.22 M119.52 229.77 C121.08 227.97, 122.64 226.18, 126.08 222.22 M121.22 233.9 C123.64 231.13, 126.05 228.36, 127.78 226.36 M121.22 233.9 C122.97 231.9, 124.71 229.89, 127.78 226.36 M123.59 237.28 C125.13 235.51, 126.68 233.73, 130.15 229.74 M123.59 237.28 C125.45 235.14, 127.32 232.99, 130.15 229.74 M125.29 241.42 C126.79 239.7, 128.28 237.98, 131.85 233.87 M125.29 241.42 C127.11 239.33, 128.92 237.25, 131.85 233.87 M127.66 244.8 C129.78 242.35, 131.91 239.9, 134.22 237.25 M127.66 244.8 C129.07 243.17, 130.48 241.55, 134.22 237.25 M130.02 248.18 C132.6 245.21, 135.17 242.25, 136.58 240.63 M130.02 248.18 C131.9 246.01, 133.78 243.85, 136.58 240.63 M131.73 252.31 C133.13 250.7, 134.53 249.08, 138.29 244.76 M131.73 252.31 C133.11 250.71, 134.5 249.12, 138.29 244.76 M134.09 255.69 C135.47 254.1, 136.85 252.51, 140.65 248.14 M134.09 255.69 C135.83 253.68, 137.57 251.68, 140.65 248.14 M136.45 259.07 C138.27 256.98, 140.08 254.89, 143.01 251.52 M136.45 259.07 C137.79 257.53, 139.12 255.99, 143.01 251.52 M138.16 263.2 C140.15 260.91, 142.15 258.61, 144.72 255.65 M138.16 263.2 C139.99 261.09, 141.83 258.98, 144.72 255.65 M140.52 266.58 C141.91 264.98, 143.3 263.38, 147.08 259.03 M140.52 266.58 C142.95 263.79, 145.37 261, 147.08 259.03 M142.88 269.96 C144.5 268.1, 146.12 266.24, 148.79 263.17 M142.88 269.96 C145.21 267.28, 147.53 264.61, 148.79 263.17 M144.59 274.09 C146.86 271.48, 149.13 268.87, 151.15 266.54 M144.59 274.09 C146.14 272.3, 147.7 270.52, 151.15 266.54 M146.95 277.47 C149.56 274.48, 152.16 271.48, 153.51 269.92 M146.95 277.47 C149.39 274.67, 151.83 271.86, 153.51 269.92 M148.66 281.6 C150.84 279.1, 153.01 276.6, 155.22 274.06 M148.66 281.6 C151.15 278.74, 153.64 275.87, 155.22 274.06 M151.02 284.98 C153.16 282.52, 155.3 280.07, 157.58 277.44 M151.02 284.98 C153.48 282.16, 155.94 279.33, 157.58 277.44 M153.39 288.36 C155.01 286.49, 156.64 284.62, 159.95 280.82 M153.39 288.36 C155.5 285.93, 157.61 283.5, 159.95 280.82 M155.09 292.5 C157.66 289.54, 160.22 286.59, 161.65 284.95 M155.09 292.5 C156.82 290.51, 158.54 288.52, 161.65 284.95 M157.46 295.88 C159.42 293.61, 161.39 291.34, 164.02 288.33 M157.46 295.88 C159 294.1, 160.55 292.32, 164.02 288.33 M159.82 299.25 C161.78 297, 163.74 294.74, 166.38 291.71 M159.82 299.25 C161.76 297.02, 163.71 294.78, 166.38 291.71 M161.52 303.39 C163.63 300.97, 165.73 298.55, 168.09 295.84 M161.52 303.39 C163.11 301.56, 164.7 299.74, 168.09 295.84 M163.89 306.77 C165.42 305.01, 166.95 303.25, 170.45 299.22 M163.89 306.77 C165.4 305.02, 166.92 303.28, 170.45 299.22 M166.25 310.15 C167.84 308.32, 169.42 306.5, 172.15 303.35 M166.25 310.15 C168.07 308.05, 169.89 305.95, 172.15 303.35 M167.96 314.28 C170.27 311.62, 172.58 308.96, 174.52 306.73 M167.96 314.28 C169.42 312.59, 170.89 310.91, 174.52 306.73 M170.32 317.66 C172.48 315.17, 174.64 312.69, 176.88 310.11 M170.32 317.66 C172.64 314.99, 174.96 312.32, 176.88 310.11 M172.03 321.79 C173.95 319.58, 175.87 317.37, 178.59 314.24 M172.03 321.79 C174.17 319.32, 176.32 316.85, 178.59 314.24 M174.39 325.17 C175.79 323.55, 177.2 321.94, 180.95 317.62 M174.39 325.17 C176.64 322.58, 178.89 319.99, 180.95 317.62 M176.75 328.55 C178.51 326.53, 180.27 324.51, 183.31 321 M176.75 328.55 C179.34 325.57, 181.93 322.59, 183.31 321 M178.46 332.68 C180.18 330.7, 181.9 328.73, 185.02 325.14 M178.46 332.68 C181.02 329.73, 183.58 326.79, 185.02 325.14 M180.82 336.06 C183.22 333.3, 185.63 330.53, 187.38 328.52 M180.82 336.06 C183.3 333.22, 185.77 330.37, 187.38 328.52 M183.18 339.44 C185.4 336.89, 187.62 334.33, 189.74 331.89 M183.18 339.44 C184.89 337.48, 186.59 335.53, 189.74 331.89 M184.89 343.57 C186.56 341.66, 188.22 339.74, 191.45 336.03 M184.89 343.57 C186.36 341.89, 187.83 340.2, 191.45 336.03 M187.25 346.95 C189.45 344.43, 191.64 341.91, 193.81 339.41 M187.25 346.95 C188.96 344.99, 190.67 343.03, 193.81 339.41 M189.62 350.33 C191.23 348.48, 192.85 346.62, 195.52 343.54 M189.62 350.33 C191.88 347.73, 194.13 345.14, 195.52 343.54 M155.9 395.22 C155.9 395.22, 155.9 395.22, 155.9 395.22 M155.9 395.22 C155.9 395.22, 155.9 395.22, 155.9 395.22 M191.32 354.47 C193.58 351.87, 195.83 349.28, 197.88 346.92 M191.32 354.47 C193.29 352.2, 195.26 349.94, 197.88 346.92 M158.26 398.6 C159.52 397.15, 160.78 395.7, 161.54 394.83 M158.26 398.6 C159.06 397.68, 159.86 396.75, 161.54 394.83 M193.69 357.85 C195.39 355.88, 197.1 353.92, 200.25 350.3 M193.69 357.85 C195.78 355.43, 197.88 353.02, 200.25 350.3 M160.62 401.98 C162.13 400.25, 163.63 398.52, 166.53 395.19 M160.62 401.98 C162.35 399.99, 164.08 398, 166.53 395.19 M195.39 361.98 C197.98 359, 200.57 356.02, 201.95 354.43 M195.39 361.98 C197.93 359.06, 200.46 356.15, 201.95 354.43 M162.33 406.11 C164.87 403.18, 167.42 400.26, 171.51 395.55 M162.33 406.11 C164.18 403.98, 166.04 401.85, 171.51 395.55 M197.76 365.36 C200.36 362.36, 202.96 359.37, 204.32 357.81 M197.76 365.36 C199.99 362.79, 202.22 360.22, 204.32 357.81 M164.69 409.49 C169.37 404.1, 174.06 398.72, 177.16 395.15 M164.69 409.49 C168.74 404.83, 172.8 400.16, 177.16 395.15 M200.12 368.74 C202.03 366.54, 203.93 364.35, 206.68 361.19 M200.12 368.74 C201.58 367.06, 203.04 365.38, 206.68 361.19 M167.05 412.87 C171.6 407.64, 176.15 402.4, 182.14 395.51 M167.05 412.87 C172.55 406.54, 178.05 400.22, 182.14 395.51 M201.82 372.87 C204.31 370.01, 206.79 367.15, 208.39 365.32 M201.82 372.87 C204.26 370.07, 206.69 367.28, 208.39 365.32 M168.76 417 C174.86 409.98, 180.97 402.96, 187.13 395.87 M168.76 417 C173.72 411.3, 178.68 405.6, 187.13 395.87 M204.19 376.25 C206.41 373.69, 208.64 371.13, 210.75 368.7 M204.19 376.25 C206.3 373.82, 208.41 371.39, 210.75 368.7 M171.12 420.38 C179.18 411.12, 187.23 401.85, 192.77 395.48 M171.12 420.38 C178.49 411.91, 185.85 403.45, 192.77 395.48 M206.55 379.63 C208.48 377.41, 210.41 375.19, 212.45 372.84 M206.55 379.63 C208.39 377.51, 210.23 375.39, 212.45 372.84 M173.49 423.76 C179.59 416.74, 185.69 409.72, 197.76 395.84 M173.49 423.76 C181.3 414.77, 189.12 405.78, 197.76 395.84 M205.63 386.78 C208.14 383.89, 210.65 381.01, 214.82 376.22 M205.63 386.78 C209.07 382.83, 212.5 378.88, 214.82 376.22 M175.19 427.9 C184.75 416.9, 194.31 405.9, 217.18 379.59 M175.19 427.9 C188.26 412.86, 201.32 397.83, 217.18 379.59 M177.56 431.27 C193.52 412.91, 209.49 394.54, 218.89 383.73 M177.56 431.27 C187.49 419.85, 197.42 408.43, 218.89 383.73 M181.89 432.39 C191.97 420.78, 202.06 409.18, 217.31 391.63 M181.89 432.39 C190.8 422.14, 199.71 411.88, 217.31 391.63 M187.53 431.99 C193.45 425.18, 199.38 418.36, 211.15 404.83 M187.53 431.99 C193.24 425.43, 198.95 418.86, 211.15 404.83 M193.17 431.6 C195.92 428.44, 198.67 425.27, 204.98 418.02 M193.17 431.6 C195.95 428.4, 198.74 425.2, 204.98 418.02 M177.13 431.85 C177.13 431.85, 177.13 431.85, 177.13 431.85 M177.13 431.85 C177.13 431.85, 177.13 431.85, 177.13 431.85 M183.53 432.11 C181 429.92, 178.48 427.72, 171.45 421.62 M183.53 432.11 C181.07 429.97, 178.6 427.83, 171.45 421.62 M189.17 431.72 C183.01 426.36, 176.85 421.01, 165.02 410.72 M189.17 431.72 C180.36 424.06, 171.55 416.4, 165.02 410.72 M194.81 431.32 C181.16 419.45, 167.51 407.59, 158.59 399.83 M194.81 431.32 C185.91 423.59, 177.01 415.85, 158.59 399.83 M198.95 429.62 C184.55 417.1, 170.15 404.59, 157.44 393.53 M198.95 429.62 C189 420.97, 179.05 412.32, 157.44 393.53 M200.82 425.94 C192.45 418.67, 184.08 411.39, 163.83 393.79 M200.82 425.94 C189.77 416.34, 178.72 406.73, 163.83 393.79 M202.69 422.27 C193.15 413.97, 183.61 405.68, 170.23 394.06 M202.69 422.27 C191.11 412.21, 179.54 402.15, 170.23 394.06 M204.55 418.59 C196.91 411.94, 189.26 405.29, 176.63 394.32 M204.55 418.59 C197.59 412.54, 190.63 406.49, 176.63 394.32 M205.67 414.26 C199.5 408.9, 193.32 403.53, 182.27 393.92 M205.67 414.26 C197.76 407.38, 189.84 400.5, 182.27 393.92 M207.54 410.59 C200.69 404.63, 193.84 398.68, 188.67 394.18 M207.54 410.59 C203.17 406.79, 198.8 402.99, 188.67 394.18 M209.41 406.91 C206.53 404.41, 203.66 401.91, 195.07 394.45 M209.41 406.91 C206.45 404.34, 203.5 401.77, 195.07 394.45 M211.28 403.24 C207.44 399.9, 203.6 396.56, 200.71 394.05 M211.28 403.24 C207.8 400.22, 204.33 397.19, 200.71 394.05 M213.15 399.56 C209.72 396.58, 206.29 393.6, 202.58 390.38 M213.15 399.56 C210.19 396.99, 207.24 394.42, 202.58 390.38 M215.02 395.89 C212.15 393.4, 209.29 390.91, 204.45 386.7 M215.02 395.89 C212.14 393.38, 209.26 390.88, 204.45 386.7 M216.89 392.21 C214.6 390.23, 212.32 388.24, 207.08 383.68 M216.89 392.21 C214.17 389.85, 211.45 387.48, 207.08 383.68 M218 387.88 C213.8 384.23, 209.6 380.58, 204.42 376.07 M218 387.88 C213.35 383.84, 208.7 379.8, 204.42 376.07 M219.87 384.21 C211.14 376.62, 202.41 369.03, 197.98 365.18 M219.87 384.21 C215.16 380.11, 210.45 376.01, 197.98 365.18 M214.19 373.97 C209.23 369.65, 204.26 365.33, 192.31 354.94 M214.19 373.97 C208.36 368.9, 202.53 363.83, 192.31 354.94 M207.76 363.08 C201.78 357.88, 195.8 352.68, 185.87 344.05 M207.76 363.08 C201 357.2, 194.24 351.33, 185.87 344.05 M201.33 352.19 C196.94 348.37, 192.54 344.55, 179.44 333.16 M201.33 352.19 C194.29 346.06, 187.24 339.94, 179.44 333.16 M194.9 341.3 C186.81 334.26, 178.72 327.23, 173.76 322.93 M194.9 341.3 C189.16 336.31, 183.43 331.32, 173.76 322.93 M189.22 331.06 C181.94 324.73, 174.65 318.4, 167.33 312.03 M189.22 331.06 C184.11 326.62, 179 322.17, 167.33 312.03 M182.79 320.17 C177.74 315.78, 172.69 311.39, 160.9 301.14 M182.79 320.17 C178.08 316.08, 173.38 311.99, 160.9 301.14 M176.35 309.28 C168.64 302.57, 160.93 295.87, 154.47 290.25 M176.35 309.28 C170.33 304.04, 164.31 298.8, 154.47 290.25 M170.68 299.04 C161.99 291.49, 153.3 283.94, 148.79 280.02 M170.68 299.04 C163.03 292.39, 155.38 285.74, 148.79 280.02 M164.24 288.15 C157.35 282.15, 150.45 276.16, 142.36 269.12 M164.24 288.15 C156.17 281.13, 148.09 274.11, 142.36 269.12 M157.81 277.26 C152.61 272.73, 147.4 268.21, 135.93 258.23 M157.81 277.26 C151.6 271.85, 145.38 266.45, 135.93 258.23 M151.38 266.37 C144.74 260.59, 138.1 254.82, 129.49 247.34 M151.38 266.37 C142.95 259.04, 134.52 251.71, 129.49 247.34 M145.7 256.13 C137.24 248.78, 128.78 241.42, 123.82 237.11 M145.7 256.13 C138.57 249.93, 131.44 243.74, 123.82 237.11 M139.27 245.24 C132.14 239.04, 125 232.84, 117.38 226.21 M139.27 245.24 C133.95 240.62, 128.64 236, 117.38 226.21 M132.84 234.35 C127.31 229.54, 121.78 224.74, 110.95 215.32 M132.84 234.35 C124.52 227.11, 116.19 219.88, 110.95 215.32 M127.16 224.11 C122.22 219.82, 117.29 215.53, 104.52 204.43 M127.16 224.11 C122.42 219.99, 117.68 215.87, 104.52 204.43 M120.73 213.22 C113.68 207.09, 106.62 200.96, 98.84 194.2 M120.73 213.22 C115.22 208.43, 109.71 203.64, 98.84 194.2 M120.33 207.58 C110.79 199.28, 101.25 190.99, 92.41 183.3 M120.33 207.58 C114.74 202.71, 109.14 197.85, 92.41 183.3 M123.71 205.21 C113.98 196.75, 104.24 188.29, 85.98 172.41 M123.71 205.21 C110.79 193.98, 97.87 182.75, 85.98 172.41 M127.85 203.51 C124.18 200.32, 120.52 197.14, 115.02 192.36 M127.85 203.51 C124.25 200.38, 120.65 197.26, 115.02 192.36 M113.51 191.04 C113.51 191.04, 113.51 191.04, 113.51 191.04 M113.51 191.04 C113.51 191.04, 113.51 191.04, 113.51 191.04 M108.98 187.11 C98.25 177.78, 87.53 168.46, 79.54 161.52 M108.98 187.11 C98.34 177.86, 87.69 168.6, 79.54 161.52 M121.41 192.62 C120.62 191.93, 119.83 191.24, 118.39 189.99 M121.41 192.62 C120.25 191.61, 119.09 190.6, 118.39 189.99 M116.89 188.68 C113.02 185.32, 109.16 181.96, 104.81 178.18 M116.89 188.68 C113.2 185.47, 109.51 182.27, 104.81 178.18 M101.79 175.56 C95.13 169.77, 88.46 163.97, 73.87 151.28 M101.79 175.56 C95.29 169.91, 88.79 164.25, 73.87 151.28 M120.26 186.32 C114.77 181.54, 109.28 176.77, 95.36 164.67 M120.26 186.32 C114.75 181.52, 109.23 176.72, 95.36 164.67 M94.6 164.01 C86.51 156.97, 78.41 149.94, 67.43 140.39 M94.6 164.01 C86.59 157.04, 78.57 150.07, 67.43 140.39 M124.4 184.61 C101.52 164.72, 78.64 144.84, 61 129.5 M124.4 184.61 C101.09 164.35, 77.77 144.08, 61 129.5 M127.78 182.25 C107.09 164.27, 86.41 146.28, 55.32 119.27 M127.78 182.25 C108.51 165.5, 89.25 148.75, 55.32 119.27 M131.16 179.89 C115.85 166.58, 100.54 153.27, 88.89 143.15 M131.16 179.89 C120.57 170.68, 109.99 161.48, 88.89 143.15 M81.35 136.59 C74.09 130.28, 66.84 123.98, 48.89 108.37 M81.35 136.59 C73.61 129.86, 65.88 123.14, 48.89 108.37 M127.74 171.62 C118.29 163.4, 108.83 155.18, 93.03 141.44 M127.74 171.62 C116.47 161.82, 105.21 152.03, 93.03 141.44 M74.91 125.69 C68.08 119.76, 61.26 113.82, 42.46 97.48 M74.91 125.69 C68.29 119.94, 61.67 114.18, 42.46 97.48 M122.06 161.38 C115.24 155.45, 108.42 149.52, 96.4 139.08 M122.06 161.38 C114.54 154.84, 107.01 148.29, 96.4 139.08 M68.48 114.8 C58.04 105.73, 47.6 96.65, 36.03 86.59 M68.48 114.8 C57.03 104.84, 45.57 94.89, 36.03 86.59 M115.63 150.49 C110.44 145.98, 105.26 141.47, 100.54 137.37 M115.63 150.49 C112.48 147.75, 109.33 145.02, 100.54 137.37 M62.05 103.91 C52.26 95.4, 42.46 86.89, 30.35 76.36 M62.05 103.91 C50.21 93.62, 38.36 83.32, 30.35 76.36 M109.96 140.26 C108.55 139.03, 107.14 137.81, 103.92 135.01 M109.96 140.26 C107.72 138.31, 105.48 136.37, 103.92 135.01 M55.62 93.02 C46.09 84.74, 36.56 76.45, 23.92 65.46 M55.62 93.02 C44.43 83.3, 33.25 73.57, 23.92 65.46 M49.18 82.13 C40.02 74.16, 30.85 66.19, 17.49 54.57 M49.18 82.13 C41.97 75.86, 34.76 69.59, 17.49 54.57 M42.75 71.24 C33.19 62.93, 23.64 54.62, 11.05 43.68 M42.75 71.24 C34 63.63, 25.25 56.02, 11.05 43.68 M36.32 60.34 C24.2 49.81, 12.08 39.28, 5.38 33.45 M36.32 60.34 C27.75 52.9, 19.19 45.45, 5.38 33.45 M29.89 49.45 C20.81 41.57, 11.74 33.68, -1.06 22.55 M29.89 49.45 C19.77 40.66, 9.66 31.87, -1.06 22.55 M23.45 38.56 C15.78 31.89, 8.11 25.22, -7.49 11.66 M23.45 38.56 C12.2 28.77, 0.94 18.99, -7.49 11.66 M17.02 27.67 C8.46 20.23, -0.1 12.78, -8.64 5.36 M17.02 27.67 C7.07 19.02, -2.87 10.37, -8.64 5.36 M10.59 16.78 C5.96 12.75, 1.33 8.73, -5.26 3 M10.59 16.78 C4.53 11.51, -1.54 6.24, -5.26 3 M4.16 5.89 C2.6 4.53, 1.05 3.18, -1.88 0.64 M4.16 5.89 C2.11 4.11, 0.06 2.33, -1.88 0.64" stroke="#ffc9c9" stroke-width="0.5" fill="none"></path><path d="M0 0 C-2.67 1.88, -5.35 3.75, -10.38 7.28 M0 0 C-2.63 1.85, -5.26 3.69, -10.38 7.28 M-10.38 7.28 C70.86 146.98, 152.11 286.67, 207.46 381.85 M-10.38 7.28 C64.91 136.74, 140.2 266.2, 207.46 381.85 M207.46 381.85 C204.96 386.44, 202.46 391.03, 200.13 395.3 M207.46 381.85 C204.84 386.66, 202.22 391.47, 200.13 395.3 M200.13 395.3 C183.31 394.9, 166.49 394.49, 155.46 394.22 M200.13 395.3 C185.61 394.95, 171.1 394.6, 155.46 394.22 M155.46 394.22 C161.24 404.19, 167.02 414.15, 177.47 432.14 M155.46 394.22 C161.21 404.14, 166.97 414.06, 177.47 432.14 M177.47 432.14 C183.36 431.8, 189.26 431.45, 198.3 430.92 M177.47 432.14 C185.41 431.68, 193.35 431.21, 198.3 430.92 M198.3 430.92 C203.58 419.56, 208.85 408.19, 219.69 384.81 M198.3 430.92 C202.99 420.83, 207.67 410.74, 219.69 384.81 M219.69 384.81 C197.53 346.64, 175.38 308.47, 117.85 209.38 M219.69 384.81 C193.82 340.24, 167.94 295.66, 117.85 209.38 M117.85 209.38 C121.09 207.35, 124.33 205.31, 127.28 203.45 M117.85 209.38 C120.03 208.01, 122.21 206.64, 127.28 203.45 M127.28 203.45 C124.19 198.13, 121.1 192.8, 119.19 189.52 M127.28 203.45 C124.19 198.12, 121.09 192.79, 119.19 189.52 M119.19 189.52 C116.96 190.86, 114.73 192.2, 112.45 193.57 M119.19 189.52 C116.84 190.93, 114.49 192.34, 112.45 193.57 M112.45 193.57 C104.51 180.86, 96.56 168.14, 90.07 157.76 M112.45 193.57 C107.91 186.3, 103.37 179.04, 90.07 157.76 M90.07 157.76 C95 164.98, 99.93 172.2, 113.14 191.53 M90.07 157.76 C98.61 170.26, 107.15 182.76, 113.14 191.53 M113.14 191.53 C120.59 186.83, 128.04 182.13, 132.19 179.51 M113.14 191.53 C117.92 188.51, 122.7 185.49, 132.19 179.51 M132.19 179.51 C123.93 164.92, 115.67 150.33, 106.55 134.21 M132.19 179.51 C123.41 164, 114.63 148.5, 106.55 134.21 M106.55 134.21 C99.94 137.75, 93.33 141.29, 86.01 145.21 M106.55 134.21 C101.2 137.08, 95.86 139.94, 86.01 145.21 M86.01 145.21 C67.67 114.25, 49.33 83.29, 0 0 M86.01 145.21 C63.57 107.33, 41.14 69.45, 0 0 M0 0 C0 0, 0 0, 0 0 M0 0 C0 0, 0 0, 0 0" stroke="#e03131" stroke-width="1" fill="none"></path></g></g><mask></mask><g stroke-linecap="round"><g transform="translate(262.3302720609213 611.4259048132335) rotate(0 -4.922570612032359 29.762746829678235)" fill-rule="evenodd"><path d="M-41.04 26.6 C-41.04 26.6, -41.04 26.6, -41.04 26.6 M-41.04 26.6 C-41.04 26.6, -41.04 26.6, -41.04 26.6 M-38.68 29.98 C-35.04 26.95, -31.85 22.13, -28.84 18.66 M-38.68 29.98 C-34.76 26.15, -31.91 21.89, -28.84 18.66 M-36.31 33.36 C-31.53 25.99, -26.5 22.54, -16.63 10.72 M-36.31 33.36 C-30.56 26.39, -23.79 20.55, -16.63 10.72 M-33.95 36.74 C-24.53 26.4, -14.1 17.47, -4.43 2.78 M-33.95 36.74 C-26.36 26.82, -17.67 17.93, -4.43 2.78 M-31.59 40.12 C-24.69 30.32, -13.31 22.09, 1.87 1.63 M-31.59 40.12 C-20.62 26.98, -8.51 14.97, 1.87 1.63 M-29.22 43.5 C-18.35 32.09, -7.18 15.87, 4.23 5.01 M-29.22 43.5 C-21.91 34.94, -14.58 25.6, 4.23 5.01 M-26.86 46.87 C-16.96 32.6, -2.19 18.27, 6.6 8.38 M-26.86 46.87 C-14.62 32.68, -2.41 20.3, 6.6 8.38 M-24.5 50.25 C-12.81 37.08, -0.62 23.47, 8.3 12.52 M-24.5 50.25 C-14.64 39.18, -6.35 28.67, 8.3 12.52 M-22.14 53.63 C-12.62 42.74, -4.42 33.2, 10.67 15.9 M-22.14 53.63 C-10.43 39.75, 1.44 27.32, 10.67 15.9 M-19.77 57.01 C-7.96 44.59, 2.3 30.86, 13.03 19.28 M-19.77 57.01 C-10.47 45.79, -1.82 34.46, 13.03 19.28 M-17.41 60.39 C-11.12 52.1, -1.49 39.1, 15.39 22.66 M-17.41 60.39 C-7 47.87, 2.91 36.73, 15.39 22.66 M-11.77 60 C-5.54 52.29, 3.64 40.32, 17.75 26.03 M-11.77 60 C-2.6 48.49, 8.7 37.62, 17.75 26.03 M-6.78 60.36 C1.81 51.07, 10.67 41.32, 20.12 29.41 M-6.78 60.36 C2.09 50.79, 11.3 39.19, 20.12 29.41 M-1.79 60.72 C3.49 55.05, 10.68 48.06, 21.82 33.55 M-1.79 60.72 C6.07 53.25, 13.35 43.35, 21.82 33.55 M3.85 60.32 C8.29 51.09, 15.69 46.23, 24.19 36.93 M3.85 60.32 C10.58 52.49, 16.53 46.6, 24.19 36.93 M8.84 60.68 C12.88 55.66, 18.8 47.7, 26.55 40.3 M8.84 60.68 C13.01 54.69, 17.89 49.46, 26.55 40.3 M13.82 61.04 C18.27 56.36, 24.09 49.48, 28.91 43.68 M13.82 61.04 C18.79 54.91, 24.49 46.53, 28.91 43.68 M19.47 60.65 C22.63 57.99, 25.9 53.81, 31.28 47.06 M19.47 60.65 C23.9 55.56, 26.55 51.85, 31.28 47.06 M24.45 61.01 C28.04 59.1, 28.81 55.86, 33.64 50.44 M24.45 61.01 C28.77 56.84, 31.47 52.58, 33.64 50.44 M-19.18 58.64 C-19.18 58.64, -19.18 58.64, -19.18 58.64 M-19.18 58.64 C-19.18 58.64, -19.18 58.64, -19.18 58.64 M-12.78 58.9 C-16.42 54.75, -21.39 53.31, -27.87 45.78 M-12.78 58.9 C-16.15 55.59, -20.66 51.58, -27.87 45.78 M-6.38 59.17 C-17.8 52.02, -26.06 39.62, -36.57 32.92 M-6.38 59.17 C-18.15 50.5, -28.23 41.45, -36.57 32.92 M-0.74 58.77 C-16.04 46.63, -28.81 33.87, -39.23 25.31 M-0.74 58.77 C-13.82 46.76, -25.82 37.27, -39.23 25.31 M5.66 59.03 C-9 46.44, -23.81 31.54, -35.85 22.95 M5.66 59.03 C-11.83 45.19, -26.98 30.98, -35.85 22.95 M12.06 59.29 C-2.18 47.17, -20.41 33.61, -32.47 20.59 M12.06 59.29 C-2.33 46.19, -16.18 35.2, -32.47 20.59 M18.46 59.55 C4.2 47.28, -7.79 35.34, -28.34 18.88 M18.46 59.55 C5.12 49.34, -6.81 38.29, -28.34 18.88 M24.85 59.82 C7.35 44.1, -11.13 28.36, -24.96 16.52 M24.85 59.82 C11.94 48.05, -0.07 37.7, -24.96 16.52 M27.48 56.8 C6.84 41.86, -12.81 21.52, -21.58 14.15 M27.48 56.8 C16.09 46.79, 3.81 38.08, -21.58 14.15 M29.35 53.12 C16.34 41.34, 2.48 26.59, -18.2 11.79 M29.35 53.12 C20.43 43.25, 9.3 36.11, -18.2 11.79 M31.22 49.45 C16.58 37.8, 0.66 24.04, -14.82 9.43 M31.22 49.45 C20.8 40.33, 10.03 30.62, -14.82 9.43 M25.54 39.21 C15.93 30.79, 10.66 24.19, -11.44 7.07 M25.54 39.21 C17.13 31.59, 8.83 25.27, -11.44 7.07 M18.35 27.66 C13.92 20.36, 6.36 15.51, -8.06 4.7 M18.35 27.66 C11.63 21.68, 2.82 14.91, -8.06 4.7 M10.41 15.46 C8.9 10.87, 3.52 8.99, -3.93 3 M10.41 15.46 C6.46 12.3, 2.86 8.44, -3.93 3 M3.22 3.91 C1.74 3.06, 0.94 2.55, -0.55 0.63 M3.22 3.91 C2.28 2.94, 1 1.96, -0.55 0.63" stroke="#b2f2bb" stroke-width="0.5" fill="none"></path><path d="M0 0 C-15.89 9.04, -31.85 19.15, -40.96 26.51 M0 0 C-16.24 10.16, -32.54 21.49, -40.96 26.51 M-40.96 26.51 C-36.71 33.85, -32.93 42.16, -19.06 58.74 M-40.96 26.51 C-32.31 40.54, -23.47 52.87, -19.06 58.74 M-19.06 58.74 C-9.71 59.49, 0.23 60.71, 26.58 59.53 M-19.06 58.74 C-1.78 58.41, 13.22 60.15, 26.58 59.53 M26.58 59.53 C28.56 56.38, 30.01 52.23, 31.11 48.75 M26.58 59.53 C27.52 56.94, 28.82 54, 31.11 48.75 M31.11 48.75 C23.91 38.37, 19.17 27.8, 0 0 M31.11 48.75 C24.79 38.7, 18.97 27.9, 0 0 M0 0 C0 0, 0 0, 0 0 M0 0 C0 0, 0 0, 0 0" stroke="#e03131" stroke-width="1" fill="none"></path></g></g><mask></mask><g stroke-linecap="round"><g transform="translate(217.58416015306113 449.81092185376565) rotate(0 108.75975109846433 187.37280490563808)"><path d="M0 0 C28.58 48.37, 57.16 96.74, 101.56 171.88 M0 0 C26.35 44.59, 52.69 89.17, 101.56 171.88 M101.56 171.88 C99.76 174.82, 97.96 177.77, 94.77 183 M101.56 171.88 C99.61 175.07, 97.66 178.26, 94.77 183 M94.77 183 C97.63 187.59, 100.49 192.19, 106.89 202.46 M94.77 183 C99.58 190.74, 104.4 198.47, 106.89 202.46 M106.89 202.46 C112.08 205.17, 117.27 207.88, 122.25 210.48 M106.89 202.46 C111.11 204.66, 115.33 206.87, 122.25 210.48 M122.25 210.48 C120.73 213.57, 119.21 216.66, 116.78 221.61 M122.25 210.48 C120.68 213.68, 119.11 216.88, 116.78 221.61 M116.78 221.61 C121.33 223.77, 125.87 225.93, 134.59 230.07 M116.78 221.61 C122.31 224.24, 127.83 226.86, 134.59 230.07 M134.59 230.07 C132.58 234.56, 130.58 239.05, 129.46 241.55 M134.59 230.07 C133.32 232.9, 132.06 235.72, 129.46 241.55 M129.46 241.55 C134.42 244.12, 139.38 246.69, 149.03 251.69 M129.46 241.55 C134.3 244.07, 139.15 246.58, 149.03 251.69 M149.03 251.69 C146.89 254.93, 144.75 258.17, 141.6 262.93 M149.03 251.69 C147.25 254.38, 145.47 257.07, 141.6 262.93 M141.6 262.93 C147.4 266.5, 153.21 270.07, 158.41 273.27 M141.6 262.93 C147.31 266.44, 153.02 269.95, 158.41 273.27 M158.41 273.27 C156.49 276.56, 154.57 279.85, 152.18 283.96 M158.41 273.27 C156.03 277.35, 153.65 281.44, 152.18 283.96 M152.18 283.96 C155.88 285.78, 159.59 287.59, 169.04 292.21 M152.18 283.96 C157.86 286.74, 163.55 289.52, 169.04 292.21 M169.04 292.21 C167.14 295.63, 165.24 299.06, 163 303.08 M169.04 292.21 C167.61 294.77, 166.19 297.34, 163 303.08 M163 303.08 C169.22 306.54, 175.44 310, 181.12 313.15 M163 303.08 C170.06 307.01, 177.12 310.93, 181.12 313.15 M181.12 313.15 C180.03 315.22, 178.94 317.29, 175.7 323.43 M181.12 313.15 C179.42 316.37, 177.73 319.58, 175.7 323.43 M175.7 323.43 C180.21 325.86, 184.73 328.29, 193.2 332.86 M175.7 323.43 C181.73 326.68, 187.77 329.93, 193.2 332.86 M193.2 332.86 C190.94 337.34, 188.67 341.83, 187.31 344.52 M193.2 332.86 C191.01 337.19, 188.82 341.53, 187.31 344.52 M187.31 344.52 C192.39 347.12, 197.48 349.72, 205.29 353.72 M187.31 344.52 C191.79 346.81, 196.26 349.1, 205.29 353.72 M205.29 353.72 C203.2 357.01, 201.1 360.31, 198.53 364.33 M205.29 353.72 C203.12 357.13, 200.95 360.54, 198.53 364.33 M198.53 364.33 C202.57 366.55, 206.62 368.76, 217.52 374.75 M198.53 364.33 C203.21 366.9, 207.9 369.47, 217.52 374.75" stroke="#f08c00" stroke-width="4" fill="none"></path></g></g><mask></mask><g stroke-linecap="round"><g transform="translate(463.0916204144113 422.7359455187843) rotate(0 -102.79866397559738 0.12240079536604753)"><path d="M0 0 C-52.12 0.06, -104.25 0.12, -205.6 0.24 M0 0 C-55.91 0.07, -111.83 0.13, -205.6 0.24" stroke="#f08c00" stroke-width="4" fill="none"></path></g></g><mask></mask><g stroke-linecap="round"><g transform="translate(54.32094266503884 173.81582568219346) rotate(0 10.370346513243646 63.334042729934936)" fill-rule="evenodd"><path d="M-41.2 23.81 C-41.2 23.81, -41.2 23.81, -41.2 23.81 M-41.2 23.81 C-41.2 23.81, -41.2 23.81, -41.2 23.81 M-40.15 28.7 C-37.74 25.93, -35.33 23.16, -30.3 17.38 M-40.15 28.7 C-37.11 25.21, -34.08 21.72, -30.3 17.38 M-39.09 33.59 C-32.36 25.85, -25.63 18.1, -20.07 11.7 M-39.09 33.59 C-32.44 25.93, -25.78 18.27, -20.07 11.7 M-38.04 38.48 C-29.1 28.19, -20.16 17.91, -9.18 5.27 M-38.04 38.48 C-32.14 31.69, -26.24 24.9, -9.18 5.27 M-36.99 43.37 C-29.45 34.69, -21.9 26.01, 0.4 0.35 M-36.99 43.37 C-24.06 28.49, -11.12 13.61, 0.4 0.35 M-36.6 49.01 C-27.28 38.29, -17.96 27.57, 2.76 3.73 M-36.6 49.01 C-23.62 34.09, -10.65 19.16, 2.76 3.73 M-35.55 53.9 C-20.62 36.73, -5.69 19.55, 5.13 7.11 M-35.55 53.9 C-22.78 39.22, -10.02 24.53, 5.13 7.11 M-34.5 58.79 C-25.48 48.41, -16.46 38.04, 6.83 11.24 M-34.5 58.79 C-22.86 45.4, -11.21 32, 6.83 11.24 M-33.45 63.68 C-19.89 48.08, -6.34 32.49, 9.2 14.62 M-33.45 63.68 C-17.96 45.86, -2.47 28.04, 9.2 14.62 M-32.4 68.56 C-22.59 57.29, -12.79 46.01, 11.56 18 M-32.4 68.56 C-21.1 55.57, -9.81 42.58, 11.56 18 M-31.35 73.45 C-15.55 55.28, 0.25 37.1, 13.92 21.38 M-31.35 73.45 C-15.41 55.12, 0.53 36.78, 13.92 21.38 M-30.95 79.1 C-17.13 63.19, -3.3 47.29, 15.63 25.51 M-30.95 79.1 C-14.64 60.33, 1.67 41.57, 15.63 25.51 M-29.9 83.98 C-16.4 68.46, -2.91 52.93, 17.99 28.89 M-29.9 83.98 C-11.37 62.67, 7.16 41.35, 17.99 28.89 M-28.85 88.87 C-15.98 74.07, -3.11 59.26, 20.36 32.27 M-28.85 88.87 C-16.33 74.47, -3.82 60.08, 20.36 32.27 M-27.8 93.76 C-9.41 72.6, 8.99 51.44, 22.72 35.65 M-27.8 93.76 C-11.51 75.02, 4.79 56.28, 22.72 35.65 M-26.75 98.65 C-15.56 85.77, -4.36 72.9, 25.08 39.03 M-26.75 98.65 C-8.03 77.11, 10.7 55.58, 25.08 39.03 M-26.35 104.29 C-6.67 81.65, 13.01 59.01, 26.79 43.16 M-26.35 104.29 C-12.42 88.27, 1.51 72.24, 26.79 43.16 M-25.3 109.18 C-12.49 94.44, 0.32 79.71, 29.15 46.54 M-25.3 109.18 C-11.11 92.85, 3.09 76.52, 29.15 46.54 M-24.25 114.07 C-7.44 94.72, 9.38 75.38, 31.51 49.92 M-24.25 114.07 C-9.88 97.54, 4.48 81.01, 31.51 49.92 M-23.2 118.96 C-7.72 101.15, 7.76 83.34, 33.88 53.3 M-23.2 118.96 C-9.43 103.12, 4.34 87.27, 33.88 53.3 M-22.15 123.85 C-5.68 104.9, 10.79 85.95, 35.58 57.43 M-22.15 123.85 C-10.08 109.96, 1.99 96.07, 35.58 57.43 M-19.13 126.47 C-4.74 109.91, 9.65 93.36, 37.95 60.81 M-19.13 126.47 C3.12 100.88, 25.37 75.28, 37.95 60.81 M-11.52 123.81 C2.77 107.38, 17.05 90.94, 40.31 64.19 M-11.52 123.81 C7.4 102.04, 26.33 80.27, 40.31 64.19 M-4.57 121.91 C13.53 101.09, 31.62 80.28, 42.67 67.57 M-4.57 121.91 C9.21 106.06, 22.99 90.21, 42.67 67.57 M3.05 119.25 C17.88 102.18, 32.72 85.12, 45.03 70.95 M3.05 119.25 C12.4 108.49, 21.75 97.73, 45.03 70.95 M10.66 116.59 C19.51 106.41, 28.36 96.23, 46.74 75.08 M10.66 116.59 C22.58 102.87, 34.51 89.15, 46.74 75.08 M18.27 113.93 C25.22 105.93, 32.18 97.93, 49.1 78.46 M18.27 113.93 C25.28 105.86, 32.3 97.79, 49.1 78.46 M25.88 111.27 C33.48 102.53, 41.08 93.79, 51.47 81.84 M25.88 111.27 C35.83 99.83, 45.77 88.39, 51.47 81.84 M32.83 109.37 C39.68 101.49, 46.53 93.61, 53.83 85.22 M32.83 109.37 C38.57 102.77, 44.31 96.17, 53.83 85.22 M40.45 106.71 C46.31 99.96, 52.18 93.21, 56.19 88.6 M40.45 106.71 C45.91 100.43, 51.37 94.15, 56.19 88.6 M48.06 104.05 C51.16 100.48, 54.27 96.9, 57.9 92.73 M48.06 104.05 C50.05 101.76, 52.04 99.47, 57.9 92.73 M55.67 101.39 C57.43 99.37, 59.19 97.34, 60.26 96.11 M55.67 101.39 C57.43 99.36, 59.19 97.34, 60.26 96.11 M-21.58 126.96 C-21.58 126.96, -21.58 126.96, -21.58 126.96 M-21.58 126.96 C-21.58 126.96, -21.58 126.96, -21.58 126.96 M-17.45 125.25 C-18.6 124.25, -19.75 123.25, -22.73 120.66 M-17.45 125.25 C-18.92 123.97, -20.38 122.7, -22.73 120.66 M-13.32 123.54 C-16.86 120.46, -20.4 117.38, -23.88 114.36 M-13.32 123.54 C-15.67 121.5, -18.02 119.45, -23.88 114.36 M-8.43 122.49 C-12.38 119.05, -16.34 115.62, -25.03 108.06 M-8.43 122.49 C-13.47 118.11, -18.51 113.73, -25.03 108.06 M-4.3 120.78 C-11.51 114.51, -18.73 108.23, -26.94 101.1 M-4.3 120.78 C-9.74 116.05, -15.19 111.31, -26.94 101.1 M-0.16 119.08 C-10.97 109.68, -21.78 100.28, -28.09 94.8 M-0.16 119.08 C-9.55 110.91, -18.94 102.75, -28.09 94.8 M4.73 118.03 C-5.41 109.22, -15.54 100.41, -29.24 88.5 M4.73 118.03 C-8.71 106.34, -22.15 94.66, -29.24 88.5 M8.86 116.32 C-2.19 106.72, -13.23 97.12, -30.38 82.21 M8.86 116.32 C-4.83 104.42, -18.52 92.52, -30.38 82.21 M12.99 114.61 C-3.35 100.41, -19.69 86.21, -31.53 75.91 M12.99 114.61 C-3.6 100.19, -20.18 85.77, -31.53 75.91 M17.88 113.56 C1.94 99.71, -13.99 85.85, -32.68 69.61 M17.88 113.56 C2.09 99.84, -13.7 86.11, -32.68 69.61 M22.02 111.86 C8.37 99.99, -5.28 88.12, -33.83 63.31 M22.02 111.86 C10.62 101.95, -0.79 92.04, -33.83 63.31 M26.15 110.15 C4.21 91.08, -17.73 72.01, -34.98 57.01 M26.15 110.15 C8.03 94.4, -10.09 78.65, -34.98 57.01 M31.04 109.1 C5.71 87.09, -19.61 65.07, -36.13 50.71 M31.04 109.1 C6.06 87.39, -18.92 65.67, -36.13 50.71 M35.17 107.39 C16.37 91.04, -2.44 74.7, -37.28 44.41 M35.17 107.39 C8.42 84.13, -18.34 60.88, -37.28 44.41 M39.31 105.69 C20.83 89.63, 2.36 73.57, -38.43 38.11 M39.31 105.69 C15.55 85.04, -8.2 64.39, -38.43 38.11 M44.19 104.64 C15.63 79.81, -12.93 54.98, -39.58 31.81 M44.19 104.64 C19.27 82.97, -5.65 61.3, -39.58 31.81 M48.33 102.93 C28.22 85.45, 8.12 67.98, -40.73 25.51 M48.33 102.93 C23.07 80.97, -2.19 59.01, -40.73 25.51 M52.46 101.22 C24.77 77.15, -2.91 53.08, -38.86 21.84 M52.46 101.22 C29.99 81.68, 7.51 62.15, -38.86 21.84 M57.35 100.17 C23.53 70.77, -10.29 41.37, -34.73 20.13 M57.35 100.17 C26.72 73.54, -3.92 46.91, -34.73 20.13 M61.48 98.46 C31.49 72.39, 1.49 46.31, -31.35 17.77 M61.48 98.46 C35.63 75.99, 9.77 53.51, -31.35 17.77 M56.56 88.88 C38.39 73.09, 20.23 57.3, -27.97 15.41 M56.56 88.88 C28.84 64.78, 1.11 40.69, -27.97 15.41 M49.37 77.34 C23.45 54.8, -2.47 32.27, -23.83 13.7 M49.37 77.34 C30.58 61, 11.8 44.67, -23.83 13.7 M42.19 65.79 C20.41 46.86, -1.37 27.93, -20.45 11.34 M42.19 65.79 C23.83 49.83, 5.47 33.87, -20.45 11.34 M35 54.24 C23.4 44.16, 11.8 34.08, -16.32 9.63 M35 54.24 C17.51 39.04, 0.02 23.83, -16.32 9.63 M27.81 42.69 C16.76 33.08, 5.7 23.48, -12.94 7.27 M27.81 42.69 C15.58 32.06, 3.35 21.43, -12.94 7.27 M20.63 31.15 C10.2 22.09, -0.22 13.02, -9.56 4.9 M20.63 31.15 C11.88 23.54, 3.13 15.94, -9.56 4.9 M13.44 19.6 C7.44 14.38, 1.44 9.17, -5.43 3.2 M13.44 19.6 C6.47 13.54, -0.5 7.48, -5.43 3.2 M6.25 8.05 C2.97 5.2, -0.31 2.35, -2.05 0.83 M6.25 8.05 C3.26 5.45, 0.26 2.85, -2.05 0.83" stroke="#b2f2bb" stroke-width="0.5" fill="none"></path><path d="M0 0 C-10.06 5.78, -20.12 11.56, -40.92 23.5 M0 0 C-12 6.89, -24 13.78, -40.92 23.5 M-40.92 23.5 C-34.63 57.66, -28.34 91.82, -21.92 126.67 M-40.92 23.5 C-36.64 46.72, -32.37 69.94, -21.92 126.67 M-21.92 126.67 C-4.05 120.65, 13.82 114.64, 61.66 98.53 M-21.92 126.67 C-4.82 120.91, 12.27 115.16, 61.66 98.53 M61.66 98.53 C44.99 71.89, 28.33 45.26, 0 0 M61.66 98.53 C38.35 61.28, 15.04 24.04, 0 0 M0 0 C0 0, 0 0, 0 0 M0 0 C0 0, 0 0, 0 0" stroke="#e03131" stroke-width="1" fill="none"></path></g></g><mask></mask></svg>